<REAPER_PROJECT 0.1 "6.28/win64" 1619580236
  RIPPLE 0
  GROUPOVERRIDE 1 0 0
  AUTOXFADE 1
  ENVATTACH 1
  POOLEDENVATTACH 0
  MIXERUIFLAGS 11 113
  PEAKGAIN 1.1
  FEEDBACK 0
  PANLAW 1
  PROJOFFS 0 0 1
  MAXPROJLEN 0 600
  GRID 3711 8 0.125 8 1 0 0 0
  TIMEMODE 1 5 -1 30 0 0 -1
  VIDEO_CONFIG 0 0 256
  PANMODE 3
  CURSOR 2.66666666666667
  ZOOM 6.34429914740384 0 0
  VZOOMEX 1 0
  USE_REC_CFG 0
  RECMODE 1
  SMPTESYNC 0 30 100 40 1000 300 0 0 1 0 0
  LOOP 0
  LOOPGRAN 0 4
  RECORD_PATH "" ""
  <RECORD_CFG
    ZXZhdxgAAA==
  >
  <APPLYFX_CFG
  >
  RENDER_FILE "Tracks"
  RENDER_PATTERN $track
  RENDER_FMT 0 1 48000
  RENDER_1X 0
  RENDER_RANGE 1 0 0 18 1000
  RENDER_RESAMPLE 4 4 1
  RENDER_ADDTOPROJ 0
  RENDER_STEMS 19
  RENDER_DITHER 0
  TIMELOCKMODE 1
  TEMPOENVLOCKMODE 1
  ITEMMIX 0
  DEFPITCHMODE 589824 0
  TAKELANE 1
  SAMPLERATE 44100 0 0
  <RENDER_CFG
    ZXZhdxgAAA==
  >
  LOCK 1
  <METRONOME 6 2
    VOL 0.25 0.125
    FREQ 800 1600 1
    BEATLEN 4
    SAMPLES "" ""
    PATTERN 2863311530 2863311529
  >
  GLOBAL_AUTO -1
  TEMPO 90 4 4
  PLAYRATE 1 0 0.25 4
  SELECTION 2.66666666666667 13.33333333333333
  SELECTION2 2.66666666666667 13.33333333333333
  MASTERAUTOMODE 0
  MASTERTRACKHEIGHT 0 0
  MASTERPEAKCOL 16576
  MASTERMUTESOLO 0
  MASTERTRACKVIEW 1 0.6667 0.5 0.5 0 0 0 0 0 0 0 0 0
  MASTERHWOUT 0 0 1 0 0 0 0 -1
  MASTER_NCH 32 2
  MASTER_VOLUME 1.16340968999221 0 -1 -1 1
  MASTER_FX 1
  MASTER_SEL 0
  <MASTERFXLIST
    SHOW 0
    LASTSEL 0
    DOCKED 0
  >
  <MASTERPLAYSPEEDENV
    EGUID {5A27A992-C38D-4096-897C-8691A8289F40}
    ACT 0 -1
    VIS 0 1 1
    LANEHEIGHT 0 0
    ARM 0
    DEFSHAPE 0 -1 -1
  >
  <TEMPOENVEX
    EGUID {90986177-7551-4F0D-9E87-592F2EA157F4}
    ACT 0 -1
    VIS 0 0 1
    LANEHEIGHT 0 0
    ARM 0
    DEFSHAPE 1 -1 -1
    PT 0.000000000000 90.0000000000 1 262148 0 1
    PT 13.333333333333 90.0000000000 1 262147 0 1
    PT 109.333333333333 90.0000000000 1 262148 1 3
  >
  MARKER 3 0 Gap 1 0 1 R {00EEC70B-63D0-4713-92C8-1B17681BAF55}
  MARKER 3 1.33333333333333 "" 1 0 1 R
  MARKER 0 0 =START 0 0 1 R {6CC6560A-F51D-40AA-A35D-F1A7C652B1C7}
  MARKER 1 1.33333333333333 Pickup 1 0 1 R {B7EA10C0-C662-4F35-9D28-D59B7B4AEBE4}
  MARKER 1 2.66666666666667 "" 1 0 1 R
  MARKER 1 2.66666666666667 "" 0 0 1 R {BF1C2830-ED87-429B-9FDA-C8ED1C6D9A5D}
  MARKER 2 2.66666666666667 Intro 1 0 1 R {A64DCEB2-4234-463B-8127-C6F87822E104}
  MARKER 2 13.33333333333333 "" 1 0 1 R
  MARKER 2 13.33333333333333 "" 0 0 1 R {A610F892-4648-453B-A0B8-B7920790DF3C}
  MARKER 3 29.33333333333332 "" 0 0 1 R {FB0B58C2-D670-4EAB-9E07-7BE16798286A}
  MARKER 4 61.33333333333333 "" 0 0 1 R {A1393499-C7EF-4488-B2E5-32E76626CF03}
  MARKER 5 77.333333333333 "" 0 0 1 R {CD6939CB-534F-48E2-8772-C46E77BE2BC7}
  MARKER 6 109.333333333333 "" 0 0 1 R {9034544F-071C-4259-A115-AF60DB90C7C4}
  MARKER 7 130.66666666666634 "" 0 0 1 R {F506B188-0352-4AD4-B663-7CE3228F52A4}
  MARKER 8 151.99999999999966 "" 0 0 1 R {0F65D283-44FB-412D-936F-17EE70D054E5}
  MARKER 9 173.333333333333 "" 0 0 1 R {2E8D4280-59E3-4C17-A353-866D4F2899A3}
  MARKER 10 205.333333333333 =END 0 0 1 R {5132CBF7-B559-406E-B3F1-41578137FE09}
  <PROJBAY
  >
  <TRACK {9DFCE4FA-617D-4496-83BB-2A0CA3C2EBE5}
    NAME Midi
    PEAKCOL 25166079
    BEAT -1
    AUTOMODE 0
    VOLPAN 0.77019387072009 0 -1 -1 1
    MUTESOLO 0 0 0
    IPHASE 0
    PLAYOFFS 0 1
    ISBUS 1 1
    BUSCOMP 0 0 0 0 0
    SHOWINMIX 0 0.6667 0.5 1 0.5 0 0 0
    FREEMODE 0
    SEL 0
    REC 0 5088 1 0 0 0 0
    VU 2
    MIDICTL -1 4
    TRACKHEIGHT 25 0 0 0 0 0
    INQ 0 0 0 0.5 100 0 0 100
    NCHAN 2
    TRACKIMGFN "midi.png"
    FX 1
    TRACKID {9DFCE4FA-617D-4496-83BB-2A0CA3C2EBE5}
    PERF 0
    MIDIOUT -1
    MAINSEND 1 0
  >
  <TRACK {16AC1E15-2F97-4956-B92F-12A4AF93604D}
    NAME Midi-Bass
    PEAKCOL 25166079
    BEAT -1
    AUTOMODE 0
    VOLPAN 0.99426007000013 0 -1 -1 1
    MUTESOLO 0 0 0
    IPHASE 0
    PLAYOFFS 0 1
    ISBUS 0 0
    BUSCOMP 0 0 0 0 0
    SHOWINMIX 0 0.6667 0.5 1 0.5 0 0 0
    FREEMODE 0
    SEL 0
    REC 0 4128 1 0 0 0 0
    MIDICTL -1 1
    TRACKHEIGHT 122 0 0 0 0 0
    INQ 0 0 0 0.5 100 0 0 100
    NCHAN 2
    FX 1
    TRACKID {16AC1E15-2F97-4956-B92F-12A4AF93604D}
    PERF 0
    MIDIOUT -1
    <MIDINOTENAMES
      -1 1 -- 0 1
      -1 2 -- 0 2
      -1 3 -- 0 3
      -1 4 -- 0 4
      -1 5 -- 0 5
      -1 6 -- 0 6
      -1 7 -- 0 7
      -1 8 -- 0 8
      -1 9 "Polyphony (Disable legato)" 0 9
      -1 10 Harmonic 0 10
      -1 11 Slap/Pop 0 11
      -1 12 -- 0 12
      -1 13 "AT Pitch Enable" 0 13
      -1 14 Upstroke 0 14
      -1 15 "Loud Mute" 0 15
      -1 16 "Ghost Note" 0 16
      -1 17 "Fret Down" 0 17
      -1 18 -- 0 18
      -1 19 "Fret Up" 0 19
      -1 20 Tapping 0 20
      -1 21 Polyphony 0 21
      -1 22 Harmonic 0 22
      -1 23 Slap/Pop 0 23
      -1 24 -- 0 24
      -1 25 Downstroke 0 25
      -1 26 Repeater 0 26
      -1 27 "Loud Mute" 0 27
      -1 28 Ghost 0 28
      -1 29 "Slide Down" 0 29
      -1 30 Slide 0 30
      -1 31 G1 0 31
      -1 32 Legato 0 32
      -1 33 A1 0 33
      -1 34 A#1 0 34
      -1 35 B1 0 35
      -1 36 C1 0 36
      -1 37 C#1 0 37
      -1 38 D1 0 38
      -1 39 D#1 0 39
      -1 40 E1 0 40
      -1 41 F1 0 41
      -1 42 F#1 0 42
      -1 43 G1 0 43
      -1 44 G#1 0 44
      -1 45 A1 0 45
      -1 46 A#1 0 46
      -1 47 B1 0 47
      -1 48 C2 0 48
      -1 49 C#2 0 49
      -1 50 D2 0 50
      -1 51 D#2 0 51
      -1 52 E2 0 52
      -1 53 F2 0 53
      -1 54 F#2 0 54
      -1 55 G2 0 55
      -1 56 G#2 0 56
      -1 57 A2 0 57
      -1 58 A#2 0 58
      -1 59 B2 0 59
      -1 60 C3 0 60
      -1 61 C#3 0 61
      -1 62 D3 0 62
      -1 63 D#3 0 63
      -1 64 E3 0 64
      -1 65 F3 0 65
      -1 66 F#3 0 66
      -1 67 G3 0 67
      -1 68 G#3 0 68
      -1 69 A3 0 69
      -1 70 A#3 0 70
      -1 71 B3 0 71
      -1 72 C4 0 72
      -1 73 C#4 0 73
      -1 74 D4 0 74
      -1 75 D#4 0 75
      -1 76 E4 0 76
      -1 77 -- 0 77
      -1 78 -- 0 78
      -1 79 -- 0 79
      -1 80 -- 0 80
      -1 81 -- 0 81
      -1 82 -- 0 82
      -1 83 -- 0 83
      -1 84 -- 0 84
      -1 85 -- 0 85
      -1 86 -- 0 86
      -1 87 -- 0 87
      -1 88 -- 0 88
      -1 89 -- 0 89
      -1 90 -- 0 90
      -1 91 -- 0 91
      -1 92 -- 0 92
      -1 93 -- 0 93
      -1 94 -- 0 94
      -1 95 -- 0 95
      -1 96 "-- " 0 96
      -1 97 -- 0 97
      -1 98 -- 0 98
      -1 99 -- 0 99
      -1 100 -- 0 100
      -1 101 -- 0 101
      -1 102 -- 0 102
      -1 103 -- 0 103
      -1 104 -- 0 104
      -1 105 -- 0 105
      -1 106 -- 0 106
      -1 107 -- 0 107
      -1 109 -- 0 109
      -1 110 -- 0 110
      -1 111 -- 0 111
      -1 112 -- 0 112
      -1 113 -- 0 113
      -1 114 -- 0 114
      -1 115 -- 0 115
      -1 116 -- 0 116
      -1 117 -- 0 117
      -1 118 -- 0 118
      -1 119 -- 0 119
      -1 121 -- 0 121
      -1 122 -- 0 122
      -1 123 -- 0 123
      -1 124 -- 0 124
      -1 125 -- 0 125
      -1 126 -- 0 126
      -1 127 -- 0 127
    >
    MAINSEND 1 0
    <FXCHAIN
      SHOW 0
      LASTSEL 0
      DOCKED 0
    >
    <ITEM
      POSITION 2.66666666666667
      SNAPOFFS 0
      LENGTH 10.66666666666667
      LOOP 0
      ALLTAKES 0
      FADEIN 1 0 0 1 0 0 0
      FADEOUT 1 0 0 1 0 0 0
      MUTE 0 0
      SEL 0
      IGUID {54AE356D-1BA9-4383-91F3-D9BE29EFF57F}
      IID 639
      NAME B-1-A
      VOLPAN 1 0 1 -1
      SOFFS 0 0
      PLAYRATE 1 1 0 -1 0 0.0025
      CHANMODE 0
      TAKECOLOR 27818771 R
      GUID {ABBFB96A-CC93-44A0-B72D-00653CADFE6C}
      RECPASS 1
      <SOURCE MIDI
        HASDATA 1 960 QN
        CCINTERP 32
        POOLEDEVTS {AC5E5BCE-81A8-4EB2-8267-64AB51D55380}
        E 0 90 28 3e
        E 240 90 28 00
        E 0 90 2b 36
        E 240 90 2b 00
        E 0 90 2a 43
        E 240 90 2d 3d
        E 22 90 2a 00
        E 218 90 2b 3e
        E 16 90 2d 00
        E 224 90 2b 00
        E 0 90 2f 3d
        E 240 90 2f 00
        E 0 90 2a 57
        E 240 90 2a 00
        e 0 90 2b 42
        e 240 90 2b 00
        E 0 90 28 3e
        E 240 90 28 00
        E 0 90 2b 36
        E 240 90 2b 00
        E 0 90 2a 43
        E 240 90 2d 3d
        E 22 90 2a 00
        E 218 90 2b 3e
        E 16 90 2d 00
        E 224 90 2b 00
        E 0 90 2f 3d
        E 240 90 2f 00
        E 0 90 2a 57
        E 240 90 2a 00
        e 0 90 2b 42
        e 240 90 2b 00
        E 0 90 28 3e
        E 240 90 28 00
        E 0 90 2b 36
        E 240 90 2b 00
        E 0 90 2a 43
        E 240 90 2d 3d
        E 22 90 2a 00
        E 218 90 2b 3e
        E 16 90 2d 00
        E 224 90 2b 00
        E 0 90 2f 3d
        E 240 90 2f 00
        E 0 90 2a 57
        E 240 90 2a 00
        e 0 90 2b 42
        e 240 90 2b 00
        E 0 90 28 3e
        E 240 90 28 00
        E 0 90 2b 36
        E 240 90 2b 00
        E 0 90 2a 43
        E 240 90 2d 3d
        E 22 90 2a 00
        E 218 90 2b 3e
        E 16 90 2d 00
        E 224 90 2b 00
        E 0 90 2f 3d
        E 240 90 2f 00
        E 0 90 2a 57
        E 240 90 2a 00
        e 0 90 2b 42
        e 240 90 2b 00
        E 0 90 28 3e
        E 240 90 28 00
        E 0 90 2b 36
        E 240 90 2b 00
        E 0 90 2a 43
        E 240 90 2d 3d
        E 22 90 2a 00
        E 218 90 2b 3e
        E 16 90 2d 00
        E 224 90 2b 00
        E 0 90 2f 3d
        E 240 90 2f 00
        E 0 90 2a 57
        E 240 90 2a 00
        e 0 90 2b 42
        e 240 90 2b 00
        E 0 90 28 3e
        E 240 90 28 00
        E 0 90 2b 36
        E 240 90 2b 00
        E 0 90 2a 43
        E 240 90 2d 3d
        E 22 90 2a 00
        E 218 90 2b 3e
        E 16 90 2d 00
        E 224 90 2b 00
        E 0 90 2f 3d
        E 240 90 2f 00
        E 0 90 2a 57
        E 240 90 2a 00
        e 0 90 2b 42
        e 240 90 2b 00
        E 12 90 28 3e
        E 240 90 28 00
        E 0 90 2b 36
        E 240 90 2b 00
        E 0 90 2a 43
        E 240 90 2d 3d
        E 22 90 2a 00
        E 218 90 2b 3e
        E 16 90 2d 00
        E 224 90 2b 00
        E 0 90 2f 3d
        E 240 90 2f 00
        E 0 90 2a 57
        E 240 90 2a 00
        e 0 90 2b 42
        E 228 90 28 3e
        e 12 90 2b 00
        E 228 90 28 00
        E 0 90 2b 36
        E 240 90 2b 00
        E 0 90 2a 43
        E 240 90 2d 3d
        E 22 90 2a 00
        E 218 90 2b 3e
        E 16 90 2d 00
        E 224 90 2b 00
        E 0 90 2f 3d
        E 240 90 2f 00
        E 0 90 2a 57
        E 240 90 2a 00
        e 0 90 2b 42
        e 240 90 2b 00
        E 12 90 28 3e
        E 240 90 28 00
        E 0 90 2b 36
        E 240 90 2b 00
        E 0 90 2a 43
        E 240 90 2d 3d
        E 22 90 2a 00
        E 218 90 2b 3e
        E 16 90 2d 00
        E 224 90 2b 00
        E 0 90 2f 3d
        E 240 90 2f 00
        E 0 90 2a 57
        E 240 90 2a 00
        e 0 90 2b 42
        E 225 90 28 3e
        e 15 90 2b 00
        E 225 90 28 00
        E 0 90 2b 36
        E 240 90 2b 00
        E 0 90 2a 43
        E 240 90 2d 3d
        E 22 90 2a 00
        E 218 90 2b 3e
        E 17 90 2d 00
        E 223 90 2b 00
        E 0 90 2f 3d
        E 240 90 2f 00
        E 0 90 2a 57
        E 240 90 2a 00
        e 0 90 2b 42
        e 240 90 2b 00
        E 3 90 28 3e
        E 240 90 28 00
        E 0 90 2b 36
        E 240 90 2b 00
        E 0 90 2a 43
        E 240 90 2d 3d
        E 22 90 2a 00
        E 218 90 2b 3e
        E 16 90 2d 00
        E 224 90 2b 00
        E 0 90 2f 3d
        E 240 90 2f 00
        E 0 90 2a 57
        E 240 90 2a 00
        e 0 90 2b 42
        e 240 90 2b 00
        E 0 90 28 3e
        E 240 90 28 00
        E 0 90 2b 36
        E 240 90 2b 00
        E 0 90 2a 43
        E 240 90 2d 3d
        E 22 90 2a 00
        E 218 90 2b 3e
        E 16 90 2d 00
        E 224 90 2b 00
        E 0 90 2f 3d
        E 240 90 2f 00
        E 0 90 2a 57
        E 240 90 2a 00
        e 0 90 2b 42
        e 240 90 2b 00
        E 12 90 28 3e
        E 240 90 28 00
        E 0 90 2b 36
        E 240 90 2b 00
        E 0 90 2a 43
        E 240 90 2d 3d
        E 22 90 2a 00
        E 218 90 2b 3e
        E 16 90 2d 00
        E 224 90 2b 00
        E 0 90 2f 3d
        E 240 90 2f 00
        E 0 90 2a 57
        E 240 90 2a 00
        e 0 90 2b 42
        E 225 90 28 3e
        e 15 90 2b 00
        E 225 90 28 00
        E 0 90 2b 36
        E 240 90 2b 00
        E 0 90 2a 43
        E 240 90 2d 3d
        E 22 90 2a 00
        E 218 90 2b 3e
        E 17 90 2d 00
        E 223 90 2b 00
        E 0 90 2f 3d
        E 240 90 2f 00
        E 0 90 2a 57
        E 240 90 2a 00
        e 0 90 2b 42
        e 240 90 2b 00
        E 3 90 28 3e
        E 240 90 28 00
        E 0 90 2b 36
        E 240 90 2b 00
        E 0 90 2a 43
        E 240 90 2d 3d
        E 22 90 2a 00
        E 218 90 2b 3e
        E 16 90 2d 00
        E 224 90 2b 00
        E 0 90 2f 3d
        E 240 90 2f 00
        E 0 90 2a 57
        E 240 90 2a 00
        e 0 90 2b 42
        e 240 90 2b 00
        E 0 b0 7b 00
        CCINTERP 32
        CHASE_CC_TAKEOFFS 1
        GUID {7E7E4965-E5CE-47B4-B5BB-923703778904}
        IGNTEMPO 0 120 4 4
        SRCCOLOR 932
        VELLANE -1 133 0
        VELLANE -2 108 108
        CFGEDITVIEW 183135.926595 0.012629 0 8 0 -1 0 0 0 0.5
        KEYSNAP 0
        TRACKSEL 252
        EVTFILTER 0 -1 -1 -1 -1 0 0 0 0 -1 -1 -1 -1 0 -1 0 -1 -1
        CFGEDIT 1 1 0 1 1 1 1 1 1 1 1 2 225 0 1672 739 0 1 0 0 0 0 0 1 0 0 0 0 1 64
      >
    >
    <ITEM
      POSITION 13.33333333333334
      SNAPOFFS 0
      LENGTH 16
      LOOP 1
      ALLTAKES 0
      FADEIN 1 0 0 1 0 0 0
      FADEOUT 1 0 0 1 0 0 0
      MUTE 0 0
      SEL 0
      IGUID {D2230DAE-8D7E-4F12-B970-B31C240CC0BD}
      IID 571
      NAME B-2
      VOLPAN 1 0 1 -1
      SOFFS 0 0
      PLAYRATE 1 1 0 -1 0 0.0025
      CHANMODE 0
      GUID {4048F3C5-2824-47C2-8909-896C1BB4E3FF}
      <SOURCE MIDI
        HASDATA 1 960 QN
        CCINTERP 32
        POOLEDEVTS {8CA05099-04A4-4FEE-B499-ECC55FC4AE37}
        E 5760 90 26 6f
        E 240 80 26 00
        E 0 90 1c 7f
        E 240 80 1c 00
        E 0 90 26 7f
        E 2400 80 26 00
        E 0 90 1b 7f
        E 240 80 1b 00
        E 0 90 1c 7f
        Em 130 90 29 7f
        E 110 80 1c 00
        Em 0 80 29 00
        E 0 90 26 6d
        Em 0 90 29 42
        E 240 80 26 00
        Em 0 80 29 00
        E 0 90 1c 7f
        E 251 80 1c 00
        e 0 90 29 7f
        e 229 80 29 00
        E 240 90 1b 7f
        E 0 90 32 65
        E 120 80 1b 00
        E 120 80 32 00
        E 0 90 26 6e
        E 240 80 26 00
        E 0 90 1c 7f
        E 0 90 2b 7f
        E 251 80 1c 00
        E 229 80 2b 00
        E 0 90 25 6d
        E 240 80 25 00
        E 0 90 29 60
        E 240 80 29 00
        E 0 90 26 71
        E 683 80 26 00
        E 37 90 26 43
        E 240 80 26 00
        Em 0 90 1c 55
        E 0 90 29 43
        E 240 80 29 00
        E 0 90 2b 47
        E 240 80 2b 00
        E 0 90 32 74
        Em 60 80 1c 00
        E 900 80 32 00
        E 0 90 29 54
        E 480 80 29 00
        E 0 90 26 50
        E 240 80 26 00
        E 0 90 1c 7f
        E 240 80 1c 00
        E 0 90 25 5a
        E 240 80 25 00
        E 0 90 26 4d
        E 240 80 26 00
        E 0 90 29 50
        E 240 80 29 00
        E 0 90 2b 5f
        E 240 80 2b 00
        E 0 90 32 79
        E 960 80 32 00
        E 0 90 29 5b
        E 480 80 29 00
        E 0 90 26 49
        E 240 80 26 00
        E 0 90 1c 7f
        E 240 80 1c 00
        E 0 90 26 4c
        E 240 80 26 00
        E 0 90 26 52
        E 240 80 26 00
        E 0 90 29 50
        E 240 80 29 00
        E 0 90 2b 55
        E 240 80 2b 00
        E 0 90 32 7f
        E 960 80 32 00
        E 0 90 29 5b
        E 480 80 29 00
        E 0 90 26 69
        E 240 90 1c 7f
        E 14 80 26 00
        E 226 80 1c 00
        E 0 90 26 42
        E 240 80 26 00
        E 0 90 26 51
        E 240 80 26 00
        E 0 90 29 53
        E 240 80 29 00
        E 0 90 2b 28
        E 240 80 2b 00
        E 0 90 32 65
        E 240 80 32 00
        E 0 90 26 6e
        E 240 80 26 00
        E 0 90 2b 7f
        E 480 80 2b 00
        E 0 90 25 6d
        E 240 80 25 00
        E 0 90 29 60
        E 240 80 29 00
        E 0 90 26 71
        E 683 80 26 00
        E 37 90 26 43
        E 240 80 26 00
        Em 0 90 1c 55
        E 0 90 29 43
        E 240 80 29 00
        E 0 90 2b 47
        E 240 80 2b 00
        E 0 90 32 74
        Em 60 80 1c 00
        E 900 80 32 00
        E 0 90 29 54
        E 480 80 29 00
        E 0 90 26 50
        E 240 80 26 00
        E 0 90 1c 7f
        E 240 80 1c 00
        E 0 90 25 5a
        E 240 80 25 00
        E 0 90 26 4d
        E 240 80 26 00
        E 0 90 29 50
        E 240 80 29 00
        E 0 90 2b 5f
        E 240 80 2b 00
        E 0 90 32 79
        E 960 80 32 00
        E 0 90 29 5b
        E 480 80 29 00
        E 0 90 26 49
        E 240 80 26 00
        E 0 90 1c 7f
        E 240 80 1c 00
        E 0 90 26 4c
        E 240 80 26 00
        E 0 90 26 52
        E 240 80 26 00
        E 0 90 29 50
        E 240 80 29 00
        E 0 90 2b 55
        E 240 80 2b 00
        E 0 90 32 7f
        E 960 80 32 00
        E 0 90 29 5b
        E 480 80 29 00
        E 0 90 26 69
        E 240 90 1c 7f
        E 14 80 26 00
        E 226 80 1c 00
        E 0 90 26 42
        E 240 80 26 00
        E 0 90 26 51
        E 240 80 26 00
        E 0 90 29 53
        E 240 80 29 00
        E 0 90 2b 28
        E 240 80 2b 00
        E 0 90 32 65
        E 240 80 32 00
        E 0 90 26 6e
        E 240 80 26 00
        E 0 90 2b 7f
        E 480 80 2b 00
        E 0 90 25 6d
        E 240 80 25 00
        E 0 90 29 60
        E 240 80 29 00
        E 0 90 26 71
        E 683 80 26 00
        E 37 90 26 43
        E 240 80 26 00
        Em 0 90 1c 55
        E 0 90 29 43
        E 240 80 29 00
        E 0 90 2b 47
        E 240 80 2b 00
        E 0 90 32 74
        Em 60 80 1c 00
        E 900 80 32 00
        E 0 90 29 54
        E 480 80 29 00
        E 0 90 26 50
        E 240 80 26 00
        E 0 90 1c 7f
        E 240 80 1c 00
        E 0 90 25 5a
        E 240 80 25 00
        E 0 90 26 4d
        E 240 80 26 00
        E 0 90 29 50
        E 240 80 29 00
        E 0 90 2b 5f
        E 240 80 2b 00
        E 0 90 32 79
        E 960 80 32 00
        E 0 90 29 5b
        E 480 80 29 00
        E 0 90 26 49
        E 240 80 26 00
        E 0 90 1c 7f
        E 240 80 1c 00
        E 0 90 26 4c
        E 240 80 26 00
        E 0 90 26 52
        E 240 80 26 00
        E 0 90 29 50
        E 240 80 29 00
        E 0 90 2b 55
        E 240 80 2b 00
        E 0 90 32 7f
        E 960 80 32 00
        E 0 90 29 5b
        E 480 80 29 00
        E 0 90 26 69
        E 240 90 1c 7f
        E 14 80 26 00
        E 226 80 1c 00
        E 0 90 26 42
        E 240 80 26 00
        E 0 90 26 51
        E 240 80 26 00
        E 0 90 29 53
        E 240 80 29 00
        E 0 90 2b 28
        E 240 80 2b 00
        E 0 90 32 65
        E 240 80 32 00
        E 0 90 26 6e
        E 240 80 26 00
        E 0 90 2b 7f
        E 480 80 2b 00
        E 0 90 25 6d
        E 240 80 25 00
        E 0 90 29 60
        E 240 80 29 00
        E 0 b0 7b 00
        CCINTERP 32
        CHASE_CC_TAKEOFFS 1
        GUID {4DD04E42-E2CE-4426-BBA3-C5FE26A49533}
        IGNTEMPO 0 120 4 4
        SRCCOLOR 1326
        VELLANE -1 133 0
        VELLANE -2 108 108
        CFGEDITVIEW 167775.926595 0.012629 0 8 0 -1 0 0 0 0.5
        KEYSNAP 0
        TRACKSEL 252
        EVTFILTER 0 -1 -1 -1 -1 0 0 0 0 -1 -1 -1 -1 0 -1 0 -1 -1
        CFGEDIT 1 1 0 1 1 1 1 1 1 1 1 2 225 0 1672 739 0 1 0 0 0 0 0 1 0 0 0 0 1 64
      >
    >
    <ITEM
      POSITION 29.33333333333332
      SNAPOFFS 0
      LENGTH 31.99999999999988
      LOOP 1
      ALLTAKES 0
      FADEIN 1 0 0 1 0 0 0
      FADEOUT 1 0 0 1 0 0 0
      MUTE 0 0
      SEL 0
      IGUID {0C1E6720-8997-4AA4-B3D1-924778C3F2F4}
      IID 700
      NAME B-3
      VOLPAN 1 0 1 -1
      SOFFS 0 0
      PLAYRATE 1 1 0 -1 0 0.0025
      CHANMODE 0
      GUID {7A460078-B6B1-429B-A330-517D6EC74371}
      <SOURCE MIDI
        HASDATA 1 960 QN
        CCINTERP 32
        POOLEDEVTS {8ACDCCF6-650E-4ED3-97FA-8FE906E108DB}
        e 0 90 26 71
        e 683 80 26 00
        e 37 90 26 43
        e 240 80 26 00
        Em 0 90 1c 55
        e 0 90 29 43
        e 240 80 29 00
        e 0 90 2b 47
        e 240 80 2b 00
        e 0 90 32 74
        Em 60 80 1c 00
        e 900 80 32 00
        e 0 90 29 54
        e 480 80 29 00
        E 0 90 26 50
        E 240 80 26 00
        E 0 90 1c 7f
        E 240 80 1c 00
        E 0 90 25 5a
        E 240 80 25 00
        E 0 90 26 4d
        E 240 80 26 00
        E 0 90 29 50
        E 240 80 29 00
        E 0 90 2b 5f
        E 240 80 2b 00
        E 0 90 32 79
        E 960 80 32 00
        E 0 90 29 5b
        E 480 80 29 00
        E 0 90 26 49
        E 240 80 26 00
        E 0 90 1c 7f
        E 240 80 1c 00
        E 0 90 26 4c
        E 240 80 26 00
        E 0 90 26 52
        E 240 80 26 00
        E 0 90 29 50
        E 240 80 29 00
        E 0 90 2b 55
        E 240 80 2b 00
        E 0 90 32 7f
        E 960 80 32 00
        E 0 90 29 5b
        E 480 80 29 00
        E 0 90 26 69
        E 240 90 1c 7f
        E 14 80 26 00
        E 226 80 1c 00
        E 0 90 26 42
        E 240 80 26 00
        E 0 90 26 51
        E 240 80 26 00
        E 0 90 29 53
        E 240 80 29 00
        E 0 90 2b 28
        E 240 80 2b 00
        E 0 90 32 65
        E 240 80 32 00
        E 0 90 26 6e
        E 240 80 26 00
        E 0 90 2b 7f
        E 480 80 2b 00
        E 0 90 25 6d
        E 240 80 25 00
        E 0 90 29 60
        E 240 80 29 00
        E 0 90 26 71
        E 683 80 26 00
        E 37 90 26 43
        E 240 80 26 00
        Em 0 90 1c 55
        E 0 90 29 43
        E 240 80 29 00
        E 0 90 2b 47
        E 240 80 2b 00
        E 0 90 32 74
        Em 60 80 1c 00
        E 900 80 32 00
        E 0 90 29 54
        E 480 80 29 00
        E 0 90 26 50
        E 240 80 26 00
        E 0 90 1c 7f
        E 240 80 1c 00
        E 0 90 25 5a
        E 240 80 25 00
        E 0 90 26 4d
        E 240 80 26 00
        E 0 90 29 50
        E 240 80 29 00
        E 0 90 2b 5f
        E 240 80 2b 00
        E 0 90 32 79
        E 960 80 32 00
        E 0 90 29 5b
        E 480 80 29 00
        E 0 90 26 49
        E 240 80 26 00
        E 0 90 1c 7f
        E 240 80 1c 00
        E 0 90 26 4c
        E 240 80 26 00
        E 0 90 26 52
        E 240 80 26 00
        E 0 90 29 50
        E 240 80 29 00
        E 0 90 2b 55
        E 240 80 2b 00
        E 0 90 32 7f
        E 960 80 32 00
        E 0 90 29 5b
        E 480 80 29 00
        E 0 90 26 69
        E 240 90 1c 7f
        E 14 80 26 00
        E 226 80 1c 00
        E 0 90 26 42
        E 240 80 26 00
        E 0 90 26 51
        E 240 80 26 00
        E 0 90 29 53
        E 240 80 29 00
        E 0 90 2b 28
        E 240 80 2b 00
        E 0 90 32 65
        E 240 80 32 00
        E 0 90 26 6e
        E 240 80 26 00
        E 0 90 2b 7f
        E 480 80 2b 00
        E 0 90 25 6d
        E 240 80 25 00
        E 0 90 29 60
        E 240 80 29 00
        E 0 90 26 71
        E 683 80 26 00
        E 37 90 26 43
        E 240 80 26 00
        Em 0 90 1c 55
        E 0 90 29 43
        E 240 80 29 00
        E 0 90 2b 47
        E 240 80 2b 00
        E 0 90 32 74
        Em 60 80 1c 00
        E 900 80 32 00
        E 0 90 29 54
        E 480 80 29 00
        E 0 90 26 50
        E 240 80 26 00
        E 0 90 1c 7f
        E 240 80 1c 00
        E 0 90 25 5a
        E 240 80 25 00
        E 0 90 26 4d
        E 240 80 26 00
        E 0 90 29 50
        E 240 80 29 00
        E 0 90 2b 5f
        E 240 80 2b 00
        E 0 90 32 79
        E 960 80 32 00
        E 0 90 29 5b
        E 480 80 29 00
        E 0 90 26 49
        E 240 80 26 00
        E 0 90 1c 7f
        E 240 80 1c 00
        E 0 90 26 4c
        E 240 80 26 00
        E 0 90 26 52
        E 240 80 26 00
        E 0 90 29 50
        E 240 80 29 00
        E 0 90 2b 55
        E 240 80 2b 00
        E 0 90 32 7f
        E 960 80 32 00
        E 0 90 29 5b
        E 480 80 29 00
        E 0 90 26 69
        E 240 90 1c 7f
        E 14 80 26 00
        E 226 80 1c 00
        E 0 90 26 42
        E 240 80 26 00
        E 0 90 26 51
        E 240 80 26 00
        E 0 90 29 53
        E 240 80 29 00
        E 0 90 2b 28
        E 240 80 2b 00
        E 0 90 32 65
        E 240 80 32 00
        E 0 90 26 6e
        E 240 80 26 00
        E 0 90 2b 7f
        E 480 80 2b 00
        E 0 90 25 6d
        E 240 80 25 00
        E 0 90 29 60
        E 240 80 29 00
        E 0 90 26 71
        E 683 80 26 00
        E 37 90 26 43
        E 240 80 26 00
        Em 0 90 1c 55
        E 0 90 29 43
        E 240 80 29 00
        E 0 90 2b 47
        E 240 80 2b 00
        E 0 90 32 74
        Em 60 80 1c 00
        E 900 80 32 00
        E 0 90 29 54
        E 480 80 29 00
        E 0 90 26 50
        E 240 80 26 00
        E 0 90 1c 7f
        E 240 80 1c 00
        E 0 90 25 5a
        E 240 80 25 00
        E 0 90 26 4d
        E 240 80 26 00
        E 0 90 29 50
        E 240 80 29 00
        E 0 90 2b 5f
        E 240 80 2b 00
        E 0 90 32 79
        E 960 80 32 00
        E 0 90 29 5b
        E 480 80 29 00
        E 0 90 26 49
        E 240 80 26 00
        E 0 90 1c 7f
        E 240 80 1c 00
        E 0 90 26 4c
        E 240 80 26 00
        E 0 90 26 52
        E 240 80 26 00
        E 0 90 29 50
        E 240 80 29 00
        E 0 90 2b 55
        E 240 80 2b 00
        E 0 90 32 7f
        E 960 80 32 00
        E 0 90 29 5b
        E 480 80 29 00
        E 0 90 26 69
        E 240 90 1c 7f
        E 14 80 26 00
        E 226 80 1c 00
        E 0 90 26 42
        E 240 80 26 00
        E 0 90 26 51
        E 240 80 26 00
        E 0 90 29 53
        E 240 80 29 00
        E 0 90 2b 28
        E 240 80 2b 00
        E 0 90 32 65
        E 240 80 32 00
        E 0 90 26 6e
        E 240 80 26 00
        E 0 90 2b 7f
        E 480 80 2b 00
        E 0 90 25 6d
        E 240 80 25 00
        E 0 90 29 60
        E 240 80 29 00
        E 0 b0 7b 00
        CCINTERP 32
        CHASE_CC_TAKEOFFS 1
        GUID {855090D8-C30A-4D63-B3D4-E00657BE727E}
        IGNTEMPO 0 120 4 4
        SRCCOLOR 1294
        VELLANE -1 133 0
        VELLANE -2 108 108
        CFGEDITVIEW 144735.926595 0.012629 0 8 0 -1 0 0 0 0.5
        KEYSNAP 0
        TRACKSEL 252
        EVTFILTER 0 -1 -1 -1 -1 0 0 0 0 -1 -1 -1 -1 0 -1 0 -1 -1
        CFGEDIT 1 1 0 1 1 1 1 1 1 1 1 2 225 0 1672 739 0 1 0 0 0 0 0 1 0 0 0 0 1 64
      >
    >
    <ITEM
      POSITION 61.3333333333332
      SNAPOFFS 0
      LENGTH 15.9999999999998
      LOOP 1
      ALLTAKES 0
      FADEIN 1 0 0 1 0 0 0
      FADEOUT 1 0 0 1 0 0 0
      MUTE 0 0
      SEL 0
      IGUID {E6C2DCB4-1FAA-4841-AB81-93F0AD3AC061}
      IID 750
      NAME B-4
      VOLPAN 1 0 1 -1
      SOFFS 0 0
      PLAYRATE 1 1 0 -1 0 0.0025
      CHANMODE 0
      GUID {11D6BD61-24C0-400D-8C99-EFFCA4744581}
      <SOURCE MIDI
        HASDATA 1 960 QN
        CCINTERP 32
        POOLEDEVTS {9FC1755D-4354-41C8-8793-B5CAB0A60ECD}
        E 0 90 26 69
        E 720 80 26 00
        E 0 90 26 51
        E 240 80 26 00
        E 0 90 29 53
        E 240 80 29 00
        E 0 90 2b 28
        E 240 80 2b 00
        E 0 90 32 65
        E 240 80 32 00
        E 0 90 26 6e
        E 240 80 26 00
        E 0 90 2b 7f
        E 480 80 2b 00
        E 0 90 29 6d
        E 480 80 29 00
        E 0 90 26 69
        E 240 80 26 00
        E 0 90 1c 7f
        E 240 80 1c 00
        E 0 90 26 42
        E 240 80 26 00
        E 0 90 1c 7f
        E 240 80 1c 00
        E 0 90 29 53
        E 240 80 29 00
        E 0 90 2b 28
        E 240 80 2b 00
        E 0 90 32 65
        E 240 80 32 00
        E 0 90 26 6e
        E 240 80 26 00
        E 0 90 2b 7f
        E 480 80 2b 00
        E 0 90 25 6d
        E 240 80 25 00
        E 0 90 29 60
        E 240 80 29 00
        E 0 90 26 69
        E 240 90 1c 7f
        E 14 80 26 00
        E 226 80 1c 00
        E 0 90 26 42
        E 240 80 26 00
        E 0 90 26 51
        E 240 80 26 00
        E 0 90 29 53
        E 240 80 29 00
        E 0 90 2b 28
        E 240 80 2b 00
        E 0 90 32 65
        E 240 80 32 00
        E 0 90 26 6e
        E 240 80 26 00
        E 0 90 2b 7f
        E 480 80 2b 00
        E 0 90 25 6d
        E 240 80 25 00
        E 0 90 29 60
        E 240 80 29 00
        E 0 90 2b 69
        Em 240 90 1c 7f
        E 240 80 2b 00
        Em 0 80 1c 00
        E 0 90 2b 69
        E 240 80 2b 00
        E 0 90 2b 69
        E 240 80 2b 00
        E 0 90 2b 69
        Em 0 90 1c 53
        E 240 80 2b 00
        Em 0 80 1c 00
        E 0 90 2b 69
        E 240 80 2b 00
        E 0 90 29 7f
        E 480 80 29 00
        E 0 90 29 7f
        E 480 80 29 00
        E 0 90 26 7f
        E 240 80 26 00
        E 0 90 25 6d
        E 0 90 1c 7f
        E 240 80 25 00
        E 0 80 1c 00
        E 0 90 26 69
        E 480 80 26 00
        e 0 90 26 51
        e 240 80 26 00
        E 0 90 26 51
        E 240 80 26 00
        E 0 90 29 53
        E 240 80 29 00
        E 0 90 2b 28
        E 240 80 2b 00
        E 0 90 32 65
        E 240 80 32 00
        E 0 90 26 6e
        E 240 80 26 00
        E 0 90 2b 7f
        E 480 80 2b 00
        E 0 90 29 6d
        E 480 80 29 00
        E 0 90 26 69
        E 240 80 26 00
        E 0 90 1c 7f
        E 240 80 1c 00
        E 0 90 26 42
        E 240 80 26 00
        E 0 90 1c 7f
        E 240 80 1c 00
        E 0 90 29 53
        E 240 80 29 00
        E 0 90 2b 28
        E 240 80 2b 00
        E 0 90 32 65
        E 240 80 32 00
        E 0 90 26 6e
        E 240 80 26 00
        E 0 90 2b 7f
        E 480 80 2b 00
        E 0 90 25 6d
        E 240 80 25 00
        E 0 90 29 60
        E 240 80 29 00
        E 0 90 26 69
        E 240 90 1c 7f
        E 14 80 26 00
        E 226 80 1c 00
        E 0 90 26 42
        E 240 80 26 00
        E 0 90 26 51
        E 240 80 26 00
        E 0 90 29 53
        E 240 80 29 00
        E 0 90 2b 28
        E 240 80 2b 00
        E 0 90 32 65
        E 240 80 32 00
        E 0 90 26 6e
        E 240 80 26 00
        E 0 90 2b 7f
        E 480 80 2b 00
        E 0 90 25 6d
        E 240 80 25 00
        E 0 90 29 60
        E 240 80 29 00
        E 0 90 2b 69
        Em 240 90 1c 7f
        E 240 80 2b 00
        Em 0 80 1c 00
        E 0 90 2b 69
        E 240 80 2b 00
        E 0 90 2b 69
        E 240 80 2b 00
        E 0 90 2b 69
        Em 0 90 1c 53
        E 240 80 2b 00
        Em 0 80 1c 00
        E 0 90 2b 69
        E 240 80 2b 00
        E 0 90 29 7f
        E 480 80 29 00
        E 0 90 29 7f
        E 480 80 29 00
        E 0 90 26 7f
        E 240 80 26 00
        E 0 90 25 6d
        E 0 90 1c 7f
        E 240 80 25 00
        E 0 80 1c 00
        E 23040 b0 7b 00
        CCINTERP 32
        CHASE_CC_TAKEOFFS 1
        GUID {8F021794-05D4-4296-A241-716763AE84C9}
        IGNTEMPO 0 120 4 4
        SRCCOLOR 1573
        VELLANE 128 133 0
        VELLANE -2 108 108
        CFGEDITVIEW 98655.926595 0.012629 0 8 0 -1 0 0 0 0.5
        KEYSNAP 0
        TRACKSEL 252
        EVTFILTER 0 -1 -1 -1 -1 0 0 0 0 -1 -1 -1 -1 0 -1 0 -1 -1
        CFGEDIT 1 1 0 1 1 1 1 1 1 1 1 2 225 0 1672 739 0 1 0 0 0 0 0 1 0 0 0 0 1 64
      >
    >
    <ITEM
      POSITION 77.33333333333299
      SNAPOFFS 0
      LENGTH 32
      LOOP 1
      ALLTAKES 0
      FADEIN 1 0 0 1 0 0 0
      FADEOUT 1 0 0 1 0 0 0
      MUTE 0 0
      SEL 0
      IGUID {4693AB3C-C035-4EDD-97E6-1C1281EA436B}
      IID 758
      NAME B-5
      VOLPAN 1 0 1 -1
      SOFFS 0 0
      PLAYRATE 1 1 0 -1 0 0.0025
      CHANMODE 0
      GUID {71DE6662-2712-4B8E-A3B9-FA787AEBCC75}
      <SOURCE MIDI
        HASDATA 1 960 QN
        CCINTERP 32
        POOLEDEVTS {1BFF4546-C768-44D6-BC5A-4BEB24151658}
        E 0 90 26 71
        E 683 80 26 00
        E 37 90 26 43
        E 240 80 26 00
        Em 0 90 1c 55
        E 0 90 29 43
        E 240 80 29 00
        E 0 90 2b 47
        E 240 80 2b 00
        E 0 90 32 74
        Em 60 80 1c 00
        E 900 80 32 00
        E 0 90 29 54
        E 480 80 29 00
        E 0 90 26 50
        E 240 80 26 00
        E 0 90 1c 7f
        E 240 80 1c 00
        E 0 90 25 5a
        E 240 80 25 00
        E 0 90 26 4d
        E 240 80 26 00
        E 0 90 29 50
        E 240 80 29 00
        E 0 90 2b 5f
        E 240 80 2b 00
        E 0 90 32 79
        E 960 80 32 00
        E 0 90 29 5b
        E 480 80 29 00
        E 0 90 26 49
        E 240 80 26 00
        E 0 90 1c 7f
        E 240 80 1c 00
        E 0 90 26 4c
        E 240 80 26 00
        E 0 90 26 52
        E 240 80 26 00
        E 0 90 29 50
        E 240 80 29 00
        E 0 90 2b 55
        E 240 80 2b 00
        E 0 90 32 7f
        E 960 80 32 00
        E 0 90 29 5b
        E 480 80 29 00
        E 0 90 26 69
        E 240 90 1c 7f
        E 14 80 26 00
        E 226 80 1c 00
        E 0 90 26 42
        E 240 80 26 00
        E 0 90 26 51
        E 240 80 26 00
        E 0 90 29 53
        E 240 80 29 00
        E 0 90 2b 28
        E 240 80 2b 00
        E 0 90 32 65
        E 240 80 32 00
        E 0 90 26 6e
        E 240 80 26 00
        E 0 90 2b 7f
        E 480 80 2b 00
        E 0 90 25 6d
        E 240 80 25 00
        E 0 90 29 60
        E 240 80 29 00
        E 0 90 26 71
        E 683 80 26 00
        E 37 90 26 43
        E 240 80 26 00
        Em 0 90 1c 55
        E 0 90 29 43
        E 240 80 29 00
        E 0 90 2b 47
        E 240 80 2b 00
        E 0 90 32 74
        Em 60 80 1c 00
        E 900 80 32 00
        E 0 90 29 54
        E 480 80 29 00
        E 0 90 26 50
        E 240 80 26 00
        E 0 90 1c 7f
        E 240 80 1c 00
        E 0 90 25 5a
        E 240 80 25 00
        E 0 90 26 4d
        E 240 80 26 00
        E 0 90 29 50
        E 240 80 29 00
        E 0 90 2b 5f
        E 240 80 2b 00
        E 0 90 32 79
        E 960 80 32 00
        E 0 90 29 5b
        E 480 80 29 00
        E 0 90 26 49
        E 240 80 26 00
        E 0 90 1c 7f
        E 240 80 1c 00
        E 0 90 26 4c
        E 240 80 26 00
        E 0 90 26 52
        E 240 80 26 00
        E 0 90 29 50
        E 240 80 29 00
        E 0 90 2b 55
        E 240 80 2b 00
        E 0 90 32 7f
        E 960 80 32 00
        E 0 90 29 5b
        E 480 80 29 00
        E 0 90 26 69
        E 240 90 1c 7f
        E 14 80 26 00
        E 226 80 1c 00
        E 0 90 26 42
        E 240 80 26 00
        E 0 90 26 51
        E 240 80 26 00
        E 0 90 29 53
        E 240 80 29 00
        E 0 90 2b 28
        E 240 80 2b 00
        E 0 90 32 65
        E 240 80 32 00
        E 0 90 26 6e
        E 240 80 26 00
        E 0 90 2b 7f
        E 480 80 2b 00
        E 0 90 25 6d
        E 240 80 25 00
        E 0 90 29 60
        E 240 80 29 00
        E 0 90 26 71
        E 683 80 26 00
        E 37 90 26 43
        E 240 80 26 00
        Em 0 90 1c 55
        E 0 90 29 43
        E 240 80 29 00
        E 0 90 2b 47
        E 240 80 2b 00
        E 0 90 32 74
        Em 60 80 1c 00
        E 900 80 32 00
        E 0 90 29 54
        E 480 80 29 00
        E 0 90 26 50
        E 240 80 26 00
        E 0 90 1c 7f
        E 240 80 1c 00
        E 0 90 25 5a
        E 240 80 25 00
        E 0 90 26 4d
        E 240 80 26 00
        E 0 90 29 50
        E 240 80 29 00
        E 0 90 2b 5f
        E 240 80 2b 00
        E 0 90 32 79
        E 480 80 32 00
        E 0 90 32 79
        E 480 80 32 00
        E 0 90 29 5b
        E 480 80 29 00
        E 0 90 26 49
        E 240 80 26 00
        E 0 90 1c 7f
        E 240 80 1c 00
        E 0 90 26 4c
        E 240 80 26 00
        E 0 90 26 52
        E 240 80 26 00
        E 0 90 29 50
        E 240 80 29 00
        E 0 90 2b 55
        E 240 80 2b 00
        E 0 90 32 7f
        E 453 80 32 00
        E 30 90 32 7f
        E 477 90 29 5b
        E 11 80 32 00
        E 469 80 29 00
        E 0 90 26 69
        E 240 90 1c 7f
        E 14 80 26 00
        E 226 80 1c 00
        E 0 90 26 42
        E 240 80 26 00
        E 0 90 26 51
        E 240 80 26 00
        E 0 90 29 53
        E 240 80 29 00
        E 0 90 2b 28
        E 240 80 2b 00
        E 0 90 32 65
        E 240 80 32 00
        E 0 90 26 6e
        E 240 80 26 00
        E 0 90 2b 7f
        E 480 80 2b 00
        E 0 90 25 6d
        E 240 80 25 00
        E 0 90 29 60
        E 240 80 29 00
        E 0 90 26 71
        E 683 80 26 00
        E 37 90 26 43
        E 240 80 26 00
        Em 0 90 1c 55
        E 0 90 29 43
        E 240 80 29 00
        E 0 90 2b 47
        E 240 80 2b 00
        E 0 90 32 74
        Em 60 80 1c 00
        E 900 80 32 00
        E 0 90 29 54
        E 480 80 29 00
        E 0 90 26 50
        E 240 80 26 00
        E 0 90 1c 7f
        E 240 80 1c 00
        E 0 90 25 5a
        E 240 80 25 00
        E 0 90 26 4d
        E 240 80 26 00
        E 0 90 29 50
        E 240 80 29 00
        E 0 90 2b 5f
        E 240 80 2b 00
        E 0 90 32 79
        E 457 80 32 00
        e 46 90 32 79
        e 457 80 32 00
        E 0 90 29 5b
        E 480 80 29 00
        E 0 90 26 49
        E 240 80 26 00
        E 0 90 1c 7f
        E 240 80 1c 00
        E 0 90 26 4c
        E 240 80 26 00
        E 0 90 26 52
        E 240 80 26 00
        E 0 90 29 50
        E 240 80 29 00
        E 0 90 2b 55
        E 240 80 2b 00
        E 0 90 32 7f
        E 960 80 32 00
        E 0 90 29 5b
        E 480 80 29 00
        E 0 90 26 69
        E 240 90 1c 7f
        E 14 80 26 00
        E 226 80 1c 00
        E 0 90 26 42
        E 240 80 26 00
        E 0 90 26 51
        E 240 80 26 00
        E 0 90 29 53
        E 240 80 29 00
        E 0 90 2b 28
        E 240 80 2b 00
        E 0 90 32 65
        E 240 80 32 00
        E 0 90 26 6e
        E 240 80 26 00
        E 0 90 2b 7f
        E 480 80 2b 00
        E 0 90 25 6d
        E 240 80 25 00
        E 0 90 29 60
        E 240 80 29 00
        E 0 b0 7b 00
        CCINTERP 32
        CHASE_CC_TAKEOFFS 1
        GUID {255D2235-60CD-4601-8ABB-2EAC067D8980}
        IGNTEMPO 0 120 4 4
        SRCCOLOR 1586
        VELLANE -1 133 0
        VELLANE -2 108 108
        CFGEDITVIEW 75615.926595 0.012629 0 8 0 -1 0 0 0 0.5
        KEYSNAP 0
        TRACKSEL 252
        EVTFILTER 0 -1 -1 -1 -1 0 0 0 0 -1 -1 -1 -1 0 -1 0 -1 -1
        CFGEDIT 1 1 0 1 1 1 1 1 1 1 1 2 225 0 1672 739 0 1 0 0 0 0 0 1 0 0 0 0 1 64
      >
    >
    <ITEM
      POSITION 109.3333333333329
      SNAPOFFS 0
      LENGTH 21.33333326171397
      LOOP 1
      ALLTAKES 0
      FADEIN 1 0 0 1 0 0 0
      FADEOUT 1 0 0 1 0 0 0
      MUTE 0 0
      SEL 0
      IGUID {36788973-7D7B-42BA-AF18-FC275B786B5F}
      IID 723
      NAME B-6
      VOLPAN 1 0 1 -1
      SOFFS 0 0
      PLAYRATE 1 1 0 -1 0 0.0025
      CHANMODE 0
      GUID {61697C22-3022-455B-92DD-C84CF591A05B}
      <SOURCE MIDI
        HASDATA 1 960 QN
        CCINTERP 32
        POOLEDEVTS {2523DE33-A5EE-47B0-A0AC-8B17201ABDE2}
        E 0 90 18 7f
        E 0 90 26 28
        E 360 80 18 00
        E 120 80 26 00
        E 240 90 26 28
        E 240 80 26 00
        E 0 90 29 28
        E 240 80 29 00
        E 0 90 2b 28
        E 240 80 2b 00
        E 0 90 32 28
        E 480 80 32 00
        E 0 90 26 28
        E 480 80 26 00
        E 240 90 26 28
        E 240 80 26 00
        E 0 90 29 28
        E 240 80 29 00
        E 0 90 2b 28
        E 240 80 2b 00
        E 0 90 32 28
        E 480 80 32 00
        e 0 90 18 7f
        e 0 90 26 28
        e 360 80 18 00
        e 120 80 26 00
        e 240 90 26 28
        e 240 80 26 00
        e 0 90 29 28
        e 240 80 29 00
        e 0 90 2b 28
        e 240 80 2b 00
        e 0 90 32 28
        e 480 80 32 00
        e 0 90 26 28
        e 480 80 26 00
        e 240 90 26 28
        e 240 80 26 00
        e 0 90 29 28
        e 240 80 29 00
        e 0 90 2b 28
        e 240 80 2b 00
        e 0 90 32 28
        E 480 90 26 4e
        e 0 80 32 00
        E 720 80 26 00
        E 0 90 1c 7f
        E 240 80 1c 00
        E 0 90 2b 6b
        E 240 80 2b 00
        E 0 90 1c 7f
        E 240 80 1c 00
        E 0 90 29 28
        E 240 80 29 00
        E 0 90 1c 7f
        E 240 80 1c 00
        E 0 90 26 58
        E 720 80 26 00
        E 0 90 1c 7f
        E 240 80 1c 00
        E 0 90 29 6b
        E 240 80 29 00
        E 0 90 2b 6b
        E 240 80 2b 00
        E 0 90 29 6b
        E 240 80 29 00
        E 0 90 1c 7f
        E 240 80 1c 00
        E 0 90 26 7f
        E 720 80 26 00
        E 0 90 1c 7f
        E 240 80 1c 00
        E 0 90 2b 7f
        E 240 80 2b 00
        E 0 90 1c 7f
        E 240 80 1c 00
        E 0 90 29 78
        E 240 80 29 00
        E 0 90 1c 7f
        E 240 80 1c 00
        E 0 90 26 7f
        E 720 80 26 00
        E 0 90 1c 7f
        E 240 80 1c 00
        E 0 90 29 7f
        E 240 80 29 00
        E 0 90 2b 7f
        E 240 80 2b 00
        E 0 90 29 7f
        E 240 80 29 00
        E 0 90 1c 7f
        E 240 80 1c 00
        E 0 90 26 4e
        E 720 80 26 00
        E 0 90 1c 7f
        E 240 80 1c 00
        E 0 90 2b 6b
        E 240 80 2b 00
        E 0 90 1c 7f
        E 240 80 1c 00
        E 0 90 29 28
        E 240 80 29 00
        E 0 90 1c 7f
        E 240 80 1c 00
        E 0 90 26 58
        E 720 80 26 00
        E 0 90 1c 7f
        E 240 80 1c 00
        E 0 90 29 6b
        E 240 80 29 00
        E 0 90 2b 6b
        E 240 80 2b 00
        E 0 90 29 6b
        E 240 80 29 00
        E 0 90 1c 7f
        E 240 80 1c 00
        E 0 90 26 7f
        E 720 80 26 00
        E 0 90 1c 7f
        E 240 80 1c 00
        E 0 90 2b 7f
        E 240 80 2b 00
        E 0 90 1c 7f
        E 240 80 1c 00
        E 0 90 29 78
        E 240 80 29 00
        E 0 90 1c 7f
        E 240 80 1c 00
        E 0 90 26 7f
        E 720 80 26 00
        E 0 90 1c 7f
        E 240 80 1c 00
        E 0 90 29 7f
        E 240 80 29 00
        E 0 90 2b 7f
        E 240 80 2b 00
        E 0 90 29 7f
        E 240 80 29 00
        E 0 90 1c 7f
        E 240 80 1c 00
        E 0 90 26 4e
        E 720 80 26 00
        E 0 90 1c 7f
        E 240 80 1c 00
        E 0 90 2b 6b
        E 240 80 2b 00
        E 0 90 1c 7f
        E 240 80 1c 00
        E 0 90 29 28
        E 240 80 29 00
        E 0 90 1c 7f
        E 240 80 1c 00
        E 0 90 26 58
        E 720 80 26 00
        E 0 90 1c 7f
        E 240 80 1c 00
        E 0 90 29 6b
        E 240 80 29 00
        E 0 90 2b 6b
        E 240 80 2b 00
        E 0 90 29 6b
        E 240 80 29 00
        E 0 90 1c 7f
        E 240 80 1c 00
        E 0 90 26 7f
        E 720 80 26 00
        E 0 90 1c 7f
        E 240 80 1c 00
        E 0 90 2b 7f
        E 240 80 2b 00
        E 0 90 1c 7f
        E 240 80 1c 00
        E 0 90 29 78
        E 240 80 29 00
        E 0 90 1c 7f
        E 240 80 1c 00
        E 0 90 26 7f
        E 720 80 26 00
        E 0 90 1c 7f
        E 240 80 1c 00
        E 0 90 29 7f
        E 240 80 29 00
        E 0 90 2b 7f
        E 240 80 2b 00
        E 0 90 29 7f
        E 240 80 29 00
        E 0 90 1c 7f
        E 240 80 1c 00
        E 0 b0 7b 00
        CCINTERP 32
        CHASE_CC_TAKEOFFS 1
        GUID {66E3EF86-6A8B-44F7-90D5-2169D713A056}
        IGNTEMPO 0 120 4 4
        SRCCOLOR 1419
        VELLANE 128 133 0
        VELLANE -2 108 108
        CFGEDITVIEW 29535.926595 0.012629 0 8 0 -1 0 0 0 0.5
        KEYSNAP 0
        TRACKSEL 252
        EVTFILTER 0 -1 -1 -1 -1 0 0 0 0 -1 -1 -1 -1 0 -1 0 -1 -1
        CFGEDIT 1 1 0 1 1 1 1 1 1 1 1 2 225 0 1672 739 0 1 0 0 0 0 0 1 0 0 0 0 1 64
      >
    >
    <ITEM
      POSITION 130.66666659504688
      SNAPOFFS 0
      LENGTH 21.33333340495278
      LOOP 0
      ALLTAKES 0
      FADEIN 1 0 0 1 0 0 0
      FADEOUT 1 0 0 1 0 0 0
      MUTE 0 0
      SEL 0
      IGUID {D2860880-34FE-4926-8CEB-6E088CCEC4A4}
      IID 764
      NAME B-7
      VOLPAN 1 0 1 -1
      SOFFS 21.33333326171397 31.99999989257097
      PLAYRATE 1 1 0 -1 0 0.0025
      CHANMODE 0
      GUID {C260955A-5AA5-452C-AB1D-0E173ACB94EF}
      <SOURCE MIDI
        HASDATA 1 960 QN
        CCINTERP 32
        POOLEDEVTS {8FAB170B-C654-463E-BCC3-62DC887651E5}
        E 0 90 18 7f
        E 0 90 26 28
        E 360 80 18 00
        E 120 80 26 00
        E 240 90 26 28
        E 240 80 26 00
        E 0 90 29 28
        E 240 80 29 00
        E 0 90 2b 28
        E 240 80 2b 00
        E 0 90 32 28
        E 480 80 32 00
        E 0 90 26 28
        E 480 80 26 00
        E 240 90 26 28
        E 240 80 26 00
        E 0 90 29 28
        E 240 80 29 00
        E 0 90 2b 28
        E 240 80 2b 00
        E 0 90 32 28
        E 480 80 32 00
        E 0 90 18 7f
        E 0 90 26 28
        E 360 80 18 00
        E 120 80 26 00
        E 240 90 26 28
        E 240 80 26 00
        E 0 90 29 28
        E 240 80 29 00
        E 0 90 2b 28
        E 240 80 2b 00
        E 0 90 32 28
        E 480 80 32 00
        E 0 90 26 28
        E 480 80 26 00
        E 240 90 26 28
        E 240 80 26 00
        E 0 90 29 28
        E 240 80 29 00
        E 0 90 2b 28
        E 240 80 2b 00
        E 0 90 32 28
        E 480 80 32 00
        E 0 90 26 4e
        E 720 80 26 00
        E 0 90 1c 7f
        E 240 80 1c 00
        E 0 90 2b 6b
        E 240 80 2b 00
        E 0 90 1c 7f
        E 240 80 1c 00
        E 0 90 29 28
        E 240 80 29 00
        E 0 90 1c 7f
        E 240 80 1c 00
        E 0 90 26 58
        E 720 80 26 00
        E 0 90 1c 7f
        E 240 80 1c 00
        E 0 90 29 6b
        E 240 80 29 00
        E 0 90 2b 6b
        E 240 80 2b 00
        E 0 90 29 6b
        E 240 80 29 00
        E 0 90 1c 7f
        E 240 80 1c 00
        E 0 90 26 7f
        E 720 80 26 00
        E 0 90 1c 7f
        E 240 80 1c 00
        E 0 90 2b 7f
        E 240 80 2b 00
        E 0 90 1c 7f
        E 240 80 1c 00
        E 0 90 29 78
        E 240 80 29 00
        E 0 90 1c 7f
        E 240 80 1c 00
        E 0 90 26 7f
        E 720 80 26 00
        E 0 90 1c 7f
        E 240 80 1c 00
        E 0 90 29 7f
        E 240 80 29 00
        E 0 90 2b 7f
        E 240 80 2b 00
        E 0 90 29 7f
        E 240 80 29 00
        E 0 90 1c 7f
        E 240 80 1c 00
        E 0 90 26 4e
        E 720 80 26 00
        E 0 90 1c 7f
        E 240 80 1c 00
        E 0 90 2b 6b
        E 240 80 2b 00
        E 0 90 1c 7f
        E 240 80 1c 00
        E 0 90 29 28
        E 240 80 29 00
        E 0 90 1c 7f
        E 240 80 1c 00
        E 0 90 26 58
        E 720 80 26 00
        E 0 90 1c 7f
        E 240 80 1c 00
        E 0 90 29 6b
        E 240 80 29 00
        E 0 90 2b 6b
        E 240 80 2b 00
        E 0 90 29 6b
        E 240 80 29 00
        E 0 90 1c 7f
        E 240 80 1c 00
        E 0 90 26 7f
        E 720 80 26 00
        E 0 90 1c 7f
        E 240 80 1c 00
        E 0 90 2b 7f
        E 240 80 2b 00
        E 0 90 1c 7f
        E 240 80 1c 00
        E 0 90 29 78
        E 240 80 29 00
        E 0 90 1c 7f
        E 240 80 1c 00
        E 0 90 26 7f
        E 720 80 26 00
        E 0 90 1c 7f
        E 240 80 1c 00
        E 0 90 29 7f
        E 240 80 29 00
        E 0 90 2b 7f
        E 240 80 2b 00
        E 0 90 29 7f
        E 240 80 29 00
        E 0 90 1c 7f
        E 240 80 1c 00
        E 0 90 26 4e
        E 720 80 26 00
        E 0 90 1c 7f
        E 240 80 1c 00
        E 0 90 2b 6b
        E 240 80 2b 00
        E 0 90 1c 7f
        E 240 80 1c 00
        E 0 90 29 28
        E 240 80 29 00
        E 0 90 1c 7f
        E 240 80 1c 00
        E 0 90 26 58
        E 720 80 26 00
        E 0 90 1c 7f
        E 240 80 1c 00
        E 0 90 29 6b
        E 240 80 29 00
        E 0 90 2b 6b
        E 240 80 2b 00
        E 0 90 29 6b
        E 240 80 29 00
        E 0 90 1c 7f
        E 240 80 1c 00
        E 0 90 26 7f
        E 720 80 26 00
        E 0 90 1c 7f
        E 240 80 1c 00
        E 0 90 2b 7f
        E 240 80 2b 00
        E 0 90 1c 7f
        E 240 80 1c 00
        E 0 90 29 78
        E 240 80 29 00
        E 0 90 1c 7f
        E 240 80 1c 00
        E 0 90 26 7f
        E 720 80 26 00
        E 0 90 1c 7f
        E 240 80 1c 00
        E 0 90 29 7f
        E 240 80 29 00
        E 0 90 2b 7f
        E 240 80 2b 00
        E 0 90 29 7f
        E 240 80 29 00
        E 0 90 1c 7f
        E 240 80 1c 00
        E 0 90 26 4e
        E 480 80 26 00
        E 0 90 1c 7f
        E 240 80 1c 00
        E 0 90 1c 7f
        E 240 80 1c 00
        E 0 90 2b 6b
        E 240 80 2b 00
        E 0 90 1c 7f
        E 240 80 1c 00
        E 0 90 29 28
        E 240 80 29 00
        E 0 90 1c 7f
        E 240 80 1c 00
        E 0 90 26 58
        E 240 80 26 00
        E 0 90 32 7f
        E 240 80 32 00
        E 0 90 1c 7f
        E 240 80 1c 00
        E 0 90 1c 7f
        E 240 80 1c 00
        E 0 90 1c 4a
        E 240 80 1c 00
        E 0 90 2b 2b
        E 240 80 2b 00
        E 0 90 29 6b
        E 202 80 29 00
        E 38 90 1c 7f
        E 240 80 1c 00
        E 0 90 26 7f
        E 442 80 26 00
        E 38 90 1c 7f
        E 240 80 1c 00
        E 0 90 1c 7f
        E 240 80 1c 00
        E 0 90 2b 7f
        E 240 80 2b 00
        E 0 90 1c 7f
        E 240 80 1c 00
        E 0 90 29 78
        E 240 80 29 00
        E 0 90 1c 7f
        E 240 80 1c 00
        E 0 90 26 50
        E 240 80 26 00
        E 0 90 32 7f
        E 177 80 32 00
        E 63 90 26 7f
        E 177 80 26 00
        E 63 90 1c 7f
        E 240 80 1c 00
        Em 0 90 29 7f
        E 0 90 35 58
        Em 240 80 29 00
        E 0 80 35 00
        E 0 90 2b 7f
        E 240 80 2b 00
        E 0 90 35 58
        Em 0 90 29 7f
        E 202 80 35 00
        Em 38 80 29 00
        E 0 90 1c 7f
        E 240 80 1c 00
        E 0 90 26 4e
        E 480 80 26 00
        E 0 90 1c 7f
        E 240 80 1c 00
        E 0 90 1c 7f
        E 240 80 1c 00
        E 0 90 2b 6b
        E 240 80 2b 00
        E 0 90 1c 7f
        E 240 80 1c 00
        E 0 90 29 28
        E 240 80 29 00
        E 0 90 1c 7f
        E 240 80 1c 00
        E 0 90 26 58
        E 480 80 26 00
        E 0 90 1c 7f
        E 240 80 1c 00
        E 0 90 1c 7f
        E 240 80 1c 00
        E 0 90 29 6b
        E 240 80 29 00
        E 0 90 37 7f
        Em 0 90 2b 6b
        E 240 80 37 00
        Em 0 80 2b 00
        E 0 90 29 6b
        E 240 80 29 00
        E 0 90 1c 7f
        E 240 80 1c 00
        E 0 90 26 7f
        E 480 80 26 00
        E 0 90 1c 7f
        E 240 80 1c 00
        E 0 90 1c 7f
        E 240 80 1c 00
        E 0 90 2b 7f
        E 240 80 2b 00
        E 0 90 1c 7f
        E 240 80 1c 00
        E 0 90 29 78
        E 240 80 29 00
        E 0 90 1c 7f
        E 240 80 1c 00
        E 0 90 26 7f
        E 240 90 1c 7f
        E 240 80 26 00
        E 0 80 1c 00
        E 0 90 1c 7f
        E 240 80 1c 00
        E 0 90 1c 7f
        E 240 80 1c 00
        E 0 90 29 7f
        E 240 80 29 00
        E 0 90 37 7f
        E 240 80 37 00
        E 0 90 26 7f
        E 240 80 26 00
        E 0 90 1c 7f
        E 240 80 1c 00
        Em 0 90 26 4e
        E 0 90 32 7f
        Em 360 80 26 00
        E 360 80 32 00
        E 0 90 1c 7f
        E 240 80 1c 00
        E 0 90 2b 6b
        E 240 80 2b 00
        E 0 90 1c 7f
        E 240 80 1c 00
        E 0 90 29 28
        E 240 80 29 00
        E 0 90 1c 7f
        E 240 80 1c 00
        E 0 90 1c 7f
        E 240 80 1c 00
        E 1 90 26 58
        E 479 80 26 00
        E 0 90 1c 7f
        E 240 80 1c 00
        E 0 90 35 6b
        E 240 80 35 00
        E 0 90 37 6b
        E 240 80 37 00
        E 0 90 35 6b
        E 223 80 35 00
        E 17 90 1c 7f
        E 240 80 1c 00
        E 0 90 26 7f
        E 670 80 26 00
        E 50 90 1c 7f
        E 240 80 1c 00
        E 0 90 2b 7f
        E 240 80 2b 00
        E 0 90 1c 7f
        E 240 80 1c 00
        E 0 90 29 78
        E 190 80 29 00
        E 50 90 1c 7f
        E 240 80 1c 00
        E 0 90 1c 7f
        E 240 80 1c 00
        E 0 90 26 7f
        E 430 80 26 00
        E 50 90 1c 7f
        E 240 80 1c 00
        E 0 90 29 7f
        E 240 80 29 00
        E 0 90 37 7f
        E 227 80 37 00
        E 13 90 29 7f
        E 177 80 29 00
        E 63 90 1c 7f
        E 240 80 1c 00
        E 0 90 3e 7f
        Em 480 90 1c 7f
        Em 240 80 1c 00
        E 0 90 1c 7f
        E 240 80 1c 00
        E 0 90 2b 6b
        E 240 80 3e 00
        E 0 80 2b 00
        E 0 90 1c 7f
        E 240 80 1c 00
        E 0 90 29 28
        E 240 80 29 00
        E 0 90 1c 7f
        E 240 80 1c 00
        E 0 90 1c 7f
        E 240 80 1c 00
        E 0 90 26 58
        E 360 80 26 00
        E 120 90 1c 7f
        E 240 80 1c 00
        E 0 90 41 6b
        E 240 80 41 00
        E 0 90 43 6b
        E 240 80 43 00
        E 0 90 41 6b
        E 206 80 41 00
        E 34 90 1c 7f
        E 240 80 1c 00
        E 0 90 35 7f
        E 240 80 35 00
        E 0 90 32 7f
        E 240 80 32 00
        E 0 90 26 7f
        E 240 80 26 00
        E 0 90 1c 7f
        E 240 80 1c 00
        E 0 90 2b 7f
        E 240 80 2b 00
        E 0 90 1c 7f
        E 240 80 1c 00
        E 0 90 29 78
        E 240 80 29 00
        E 0 90 1c 7f
        E 240 80 1c 00
        E 0 90 32 7f
        E 480 90 1c 7f
        E 240 80 32 00
        E 0 80 1c 00
        E 0 90 1c 7f
        E 240 80 1c 00
        E 0 90 29 7f
        E 240 80 29 00
        E 0 90 41 7f
        E 240 80 41 00
        E 0 90 3e 7f
        E 240 80 3e 00
        E 0 90 1c 7f
        E 240 80 1c 00
        E 0 b0 7b 00
        CCINTERP 32
        CHASE_CC_TAKEOFFS 1
        GUID {7B3DC42A-0147-4939-9D8E-6B5A8BB6F92D}
        IGNTEMPO 0 120 4 4
        SRCCOLOR 1668
        VELLANE -1 133 0
        VELLANE -2 108 108
        CFGEDITVIEW 29950.042221 0.039727 0 32 0 -1 0 0 0 0.5
        KEYSNAP 0
        TRACKSEL 252
        EVTFILTER 0 -1 -1 -1 -1 0 0 0 0 -1 -1 -1 -1 0 -1 0 -1 -1
        CFGEDIT 1 1 0 1 1 1 1 1 1 1 1 0.125 225 0 1672 739 0 1 0 0 0 0 0 1 0 0 0 0 1 64
      >
    >
    <ITEM
      POSITION 151.99999999999955
      SNAPOFFS 0
      LENGTH 21.33333340495255
      LOOP 0
      ALLTAKES 0
      FADEIN 1 0 0 1 0 0 0
      FADEOUT 1 0 0 1 0 0 0
      MUTE 0 0
      SEL 0
      IGUID {378F9250-4BC5-4246-9A35-B11BEFBB899D}
      IID 578
      NAME B-8
      VOLPAN 1 0 1 -1
      SOFFS 21.33333326171419 31.99999989257128
      PLAYRATE 1 1 0 -1 0 0.0025
      CHANMODE 0
      GUID {D3A1706F-47FB-4EDF-B9F9-E757F343486D}
      <SOURCE MIDI
        HASDATA 1 960 QN
        CCINTERP 32
        POOLEDEVTS {73D7F2F1-A41E-4466-B68A-5E99D39E7F95}
        E 0 90 18 7f
        E 0 90 26 28
        E 360 80 18 00
        E 120 80 26 00
        E 240 90 26 28
        E 240 80 26 00
        E 0 90 29 28
        E 240 80 29 00
        E 0 90 2b 28
        E 240 80 2b 00
        E 0 90 32 28
        E 480 80 32 00
        E 0 90 26 28
        E 480 80 26 00
        E 240 90 26 28
        E 240 80 26 00
        E 0 90 29 28
        E 240 80 29 00
        E 0 90 2b 28
        E 240 80 2b 00
        E 0 90 32 28
        E 480 80 32 00
        E 0 90 18 7f
        E 0 90 26 28
        E 360 80 18 00
        E 120 80 26 00
        E 240 90 26 28
        E 240 80 26 00
        E 0 90 29 28
        E 240 80 29 00
        E 0 90 2b 28
        E 240 80 2b 00
        E 0 90 32 28
        E 480 80 32 00
        E 0 90 26 28
        E 480 80 26 00
        E 240 90 26 28
        E 240 80 26 00
        E 0 90 29 28
        E 240 80 29 00
        E 0 90 2b 28
        E 240 80 2b 00
        E 0 90 32 28
        E 480 80 32 00
        E 0 90 26 4e
        E 720 80 26 00
        E 0 90 1c 7f
        E 240 80 1c 00
        E 0 90 2b 6b
        E 240 80 2b 00
        E 0 90 1c 7f
        E 240 80 1c 00
        E 0 90 29 28
        E 240 80 29 00
        E 0 90 1c 7f
        E 240 80 1c 00
        E 0 90 26 58
        E 720 80 26 00
        E 0 90 1c 7f
        E 240 80 1c 00
        E 0 90 29 6b
        E 240 80 29 00
        E 0 90 2b 6b
        E 240 80 2b 00
        E 0 90 29 6b
        E 240 80 29 00
        E 0 90 1c 7f
        E 240 80 1c 00
        E 0 90 26 7f
        E 720 80 26 00
        E 0 90 1c 7f
        E 240 80 1c 00
        E 0 90 2b 7f
        E 240 80 2b 00
        E 0 90 1c 7f
        E 240 80 1c 00
        E 0 90 29 78
        E 240 80 29 00
        E 0 90 1c 7f
        E 240 80 1c 00
        E 0 90 26 7f
        E 720 80 26 00
        E 0 90 1c 7f
        E 240 80 1c 00
        E 0 90 29 7f
        E 240 80 29 00
        E 0 90 2b 7f
        E 240 80 2b 00
        E 0 90 29 7f
        E 240 80 29 00
        E 0 90 1c 7f
        E 240 80 1c 00
        E 0 90 26 4e
        E 720 80 26 00
        E 0 90 1c 7f
        E 240 80 1c 00
        E 0 90 2b 6b
        E 240 80 2b 00
        E 0 90 1c 7f
        E 240 80 1c 00
        E 0 90 29 28
        E 240 80 29 00
        E 0 90 1c 7f
        E 240 80 1c 00
        E 0 90 26 58
        E 720 80 26 00
        E 0 90 1c 7f
        E 240 80 1c 00
        E 0 90 29 6b
        E 240 80 29 00
        E 0 90 2b 6b
        E 240 80 2b 00
        E 0 90 29 6b
        E 240 80 29 00
        E 0 90 1c 7f
        E 240 80 1c 00
        E 0 90 26 7f
        E 720 80 26 00
        E 0 90 1c 7f
        E 240 80 1c 00
        E 0 90 2b 7f
        E 240 80 2b 00
        E 0 90 1c 7f
        E 240 80 1c 00
        E 0 90 29 78
        E 240 80 29 00
        E 0 90 1c 7f
        E 240 80 1c 00
        E 0 90 26 7f
        E 720 80 26 00
        E 0 90 1c 7f
        E 240 80 1c 00
        E 0 90 29 7f
        E 240 80 29 00
        E 0 90 2b 7f
        E 240 80 2b 00
        E 0 90 29 7f
        E 240 80 29 00
        E 0 90 1c 7f
        E 240 80 1c 00
        E 0 90 26 4e
        E 720 80 26 00
        E 0 90 1c 7f
        E 240 80 1c 00
        E 0 90 2b 6b
        E 240 80 2b 00
        E 0 90 1c 7f
        E 240 80 1c 00
        E 0 90 29 28
        E 240 80 29 00
        E 0 90 1c 7f
        E 240 80 1c 00
        E 0 90 26 58
        E 720 80 26 00
        E 0 90 1c 7f
        E 240 80 1c 00
        E 0 90 29 6b
        E 240 80 29 00
        E 0 90 2b 6b
        E 240 80 2b 00
        E 0 90 29 6b
        E 240 80 29 00
        E 0 90 1c 7f
        E 240 80 1c 00
        E 0 90 26 7f
        E 720 80 26 00
        E 0 90 1c 7f
        E 240 80 1c 00
        E 0 90 2b 7f
        E 240 80 2b 00
        E 0 90 1c 7f
        E 240 80 1c 00
        E 0 90 29 78
        E 240 80 29 00
        E 0 90 1c 7f
        E 240 80 1c 00
        E 0 90 26 7f
        E 720 80 26 00
        E 0 90 1c 7f
        E 240 80 1c 00
        E 0 90 29 7f
        E 240 80 29 00
        E 0 90 2b 7f
        E 240 80 2b 00
        E 0 90 29 7f
        E 240 80 29 00
        E 0 90 1c 7f
        E 240 80 1c 00
        E 0 90 26 4e
        E 720 80 26 00
        E 0 90 1c 7f
        E 240 80 1c 00
        E 0 90 2b 6b
        E 240 80 2b 00
        E 0 90 1c 7f
        E 240 80 1c 00
        E 0 90 35 28
        E 240 80 35 00
        E 0 90 1c 7f
        E 240 80 1c 00
        E 0 90 37 58
        E 240 80 37 00
        E 0 90 3e 7f
        Em 480 90 1c 7f
        Em 240 80 1c 00
        Em 0 90 1c 4a
        E 240 80 3e 00
        Em 0 80 1c 00
        E 0 90 2b 2b
        E 240 80 2b 00
        E 0 90 29 6b
        E 202 80 29 00
        E 38 90 1c 7f
        E 240 80 1c 00
        E 0 90 35 7f
        E 240 80 35 00
        E 0 90 43 3c
        E 240 80 43 00
        E 0 90 1c 7f
        E 240 80 1c 00
        E 0 90 41 7f
        E 240 80 41 00
        E 0 90 1c 7f
        E 240 80 1c 00
        E 0 90 3e 7f
        E 240 80 3e 00
        E 0 90 1c 7f
        E 240 80 1c 00
        E 0 90 37 7f
        E 240 80 37 00
        E 240 90 1c 7f
        E 240 80 1c 00
        E 0 90 41 7f
        E 240 80 41 00
        E 0 90 43 7f
        E 240 80 43 00
        E 0 90 37 7f
        E 200 80 37 00
        E 40 90 35 7f
        E 200 80 35 00
        E 40 90 3e 7f
        E 170 80 3e 00
        E 70 90 1c 7f
        E 240 80 1c 00
        E 0 90 32 58
        E 0 90 4a 7f
        E 960 80 4a 00
        E 0 90 1c 7f
        E 240 80 32 00
        E 0 80 1c 00
        E 0 90 3e 58
        E 720 80 3e 00
        E 0 90 1c 7f
        E 240 80 1c 00
        E 0 90 26 7f
        E 240 80 26 00
        E 0 90 29 7f
        E 0 90 35 7f
        E 240 80 29 00
        E 0 80 35 00
        E 0 90 39 55
        em 0 90 1c 7f
        E 240 80 39 00
        em 0 80 1c 00
        E 0 90 37 58
        E 0 90 41 58
        E 720 80 37 00
        E 0 80 41 00
        E 0 90 1c 7f
        E 240 80 1c 00
        E 0 90 35 30
        E 480 80 35 00
        E 0 90 1c 7f
        E 240 80 1c 00
        E 0 90 1c 7f
        E 240 80 1c 00
        E 0 90 37 7f
        E 240 80 37 00
        E 0 90 41 7f
        E 240 80 41 00
        E 0 90 1c 7f
        E 240 80 1c 00
        E 0 90 29 7f
        E 0 90 35 78
        E 240 80 29 00
        E 0 80 35 00
        E 0 90 3e 7f
        E 240 80 3e 00
        E 0 90 37 7f
        E 240 80 37 00
        E 0 90 1c 7f
        E 240 80 1c 00
        E 0 90 1c 7f
        E 240 80 1c 00
        E 0 90 35 7f
        E 240 80 35 00
        E 0 90 37 7f
        E 240 80 37 00
        E 0 90 32 7f
        E 240 80 32 00
        E 0 90 1c 7f
        E 240 80 1c 00
        Em 0 90 26 4e
        E 0 90 32 7f
        Em 360 80 26 00
        E 360 80 32 00
        E 0 90 1c 7f
        E 240 80 1c 00
        E 0 90 2b 6b
        E 240 80 2b 00
        E 0 90 1c 7f
        E 240 80 1c 00
        E 0 90 29 28
        E 240 80 29 00
        E 0 90 1c 7f
        E 240 80 1c 00
        E 0 90 1c 7f
        E 240 80 1c 00
        E 1 90 26 58
        E 479 80 26 00
        E 0 90 1c 7f
        E 240 80 1c 00
        E 0 90 35 6b
        E 240 80 35 00
        E 0 90 37 6b
        E 240 80 37 00
        E 0 90 35 6b
        E 223 80 35 00
        E 17 90 1c 7f
        E 240 80 1c 00
        E 0 90 26 7f
        E 670 80 26 00
        E 50 90 1c 7f
        E 240 80 1c 00
        E 0 90 2b 7f
        E 240 80 2b 00
        E 0 90 1c 7f
        E 240 80 1c 00
        E 0 90 29 78
        E 190 80 29 00
        E 50 90 1c 7f
        E 240 80 1c 00
        E 0 90 1c 7f
        E 240 80 1c 00
        E 0 90 26 7f
        E 430 80 26 00
        E 50 90 1c 7f
        E 240 80 1c 00
        E 0 90 29 7f
        E 240 80 29 00
        E 0 90 2b 7f
        E 227 80 2b 00
        E 13 90 29 7f
        E 177 80 29 00
        E 63 90 1c 7f
        E 240 80 1c 00
        E 0 90 3e 7f
        Em 480 90 1c 7f
        Em 240 80 1c 00
        E 0 90 1c 7f
        E 240 80 1c 00
        E 0 90 2b 6b
        E 240 80 3e 00
        E 0 80 2b 00
        E 0 90 1c 7f
        E 240 80 1c 00
        E 0 90 29 28
        E 240 80 29 00
        E 0 90 1c 7f
        E 240 80 1c 00
        E 0 90 1c 7f
        E 240 80 1c 00
        E 0 90 26 58
        E 360 80 26 00
        E 120 90 1c 7f
        E 240 80 1c 00
        E 0 90 41 6b
        E 240 80 41 00
        E 0 90 43 6b
        E 240 80 43 00
        E 0 90 41 6b
        E 206 80 41 00
        E 34 90 1c 7f
        E 240 80 1c 00
        E 0 90 35 7f
        E 240 80 35 00
        E 0 90 32 7f
        E 240 80 32 00
        E 0 90 26 7f
        E 240 80 26 00
        E 0 90 1c 7f
        E 240 80 1c 00
        E 0 90 2b 7f
        E 240 80 2b 00
        E 0 90 1c 7f
        E 240 80 1c 00
        E 0 90 29 78
        E 240 80 29 00
        E 0 90 1c 7f
        E 240 80 1c 00
        E 0 90 26 7f
        E 240 80 26 00
        E 0 90 29 7f
        E 240 80 29 00
        E 0 90 1c 7f
        E 240 80 1c 00
        E 0 90 1c 7f
        E 240 80 1c 00
        E 0 90 29 7f
        E 240 80 29 00
        E 0 90 35 7f
        E 240 80 35 00
        E 0 90 32 7f
        E 240 80 32 00
        E 0 90 1c 7f
        E 240 80 1c 00
        E 0 b0 7b 00
        CCINTERP 32
        CHASE_CC_TAKEOFFS 1
        GUID {F6C4B60B-3A14-44FA-9F8C-55BFA8B3F0AC}
        IGNTEMPO 0 120 4 4
        SRCCOLOR 1785
        VELLANE -1 133 0
        VELLANE -2 108 108
        CFGEDITVIEW 29718.570313 0.039727 0 32 0 -1 0 0 0 0.5
        KEYSNAP 0
        TRACKSEL 252
        EVTFILTER 0 -1 -1 -1 -1 0 0 0 0 -1 -1 -1 -1 0 -1 0 -1 -1
        CFGEDIT 1 1 0 1 1 1 1 1 1 1 1 0.125 225 0 1672 739 0 1 0 0 0 0 0 1 0 0 0 0 1 64
      >
    >
    <ITEM
      POSITION 173.3333334049521
      SNAPOFFS 0
      LENGTH 32.00000000000023
      LOOP 0
      ALLTAKES 0
      FADEIN 1 0 0 1 0 0 0
      FADEOUT 1 0 0 1 0 0 0
      MUTE 0 0
      SEL 0
      IGUID {9911D054-2115-48BE-97A8-31746DEAE86C}
      IID 709
      NAME B-9
      VOLPAN 1 0 1 -1
      SOFFS 0 0
      PLAYRATE 1 1 0 -1 0 0.0025
      CHANMODE 0
      GUID {4AAB41AE-7403-4F31-976E-D5AF024264C3}
      <SOURCE MIDI
        HASDATA 1 960 QN
        CCINTERP 32
        POOLEDEVTS {3DCCEC8C-DB0B-4A9F-8116-16DFD4A83485}
        E 0 90 26 7f
        E 960 80 26 00
        E 0 90 32 7f
        E 960 80 32 00
        E 0 90 29 53
        E 240 80 29 00
        E 0 90 2b 28
        E 240 80 2b 00
        E 0 90 32 65
        E 240 80 32 00
        E 0 90 26 6e
        E 240 80 26 00
        E 0 90 2b 74
        E 480 80 2b 00
        E 0 90 29 60
        E 480 80 29 00
        E 0 90 26 7f
        E 960 80 26 00
        E 0 90 32 7f
        E 960 80 32 00
        E 0 90 29 53
        E 240 80 29 00
        E 0 90 2b 28
        E 240 80 2b 00
        E 0 90 32 65
        E 240 80 32 00
        E 0 90 26 6e
        E 240 80 26 00
        E 0 90 2b 74
        E 480 80 2b 00
        E 0 90 29 60
        E 480 80 29 00
        E 0 90 26 7f
        E 960 80 26 00
        E 0 90 32 7f
        E 960 80 32 00
        E 0 90 29 53
        E 240 80 29 00
        E 0 90 2b 28
        E 240 80 2b 00
        E 0 90 32 65
        E 240 80 32 00
        E 0 90 26 6e
        E 240 80 26 00
        E 0 90 2b 74
        E 480 80 2b 00
        E 0 90 29 60
        E 480 80 29 00
        E 0 90 26 7f
        E 960 80 26 00
        E 0 90 32 7f
        E 960 80 32 00
        E 0 90 29 53
        E 240 80 29 00
        E 0 90 2b 28
        E 240 80 2b 00
        E 0 90 32 65
        E 240 80 32 00
        E 0 90 26 6e
        E 240 80 26 00
        E 0 90 2b 74
        E 480 80 2b 00
        E 0 90 29 60
        E 480 80 29 00
        E 0 90 26 7f
        E 960 80 26 00
        E 0 90 32 7f
        E 960 80 32 00
        E 0 90 29 53
        E 240 80 29 00
        E 0 90 2b 28
        E 240 80 2b 00
        E 0 90 32 65
        E 240 80 32 00
        E 0 90 26 6e
        E 240 80 26 00
        E 0 90 2b 74
        E 480 80 2b 00
        E 0 90 29 60
        E 480 80 29 00
        e 0 90 26 7f
        e 960 80 26 00
        e 0 90 32 7f
        e 960 80 32 00
        e 0 90 29 53
        e 240 80 29 00
        e 0 90 2b 28
        e 240 80 2b 00
        e 0 90 32 65
        e 240 80 32 00
        e 0 90 26 6e
        e 240 80 26 00
        e 0 90 2b 74
        e 480 80 2b 00
        e 0 90 29 60
        E 480 90 32 69
        e 0 80 29 00
        E 960 80 32 00
        E 0 90 29 53
        E 240 80 29 00
        E 0 90 2b 28
        E 240 80 2b 00
        E 0 90 32 65
        E 240 80 32 00
        E 0 90 26 6e
        E 240 80 26 00
        E 0 90 2b 63
        E 480 80 2b 00
        E 0 90 29 60
        E 480 80 29 00
        E 0 90 26 28
        E 960 80 26 00
        E 0 90 32 69
        E 960 80 32 00
        E 0 90 29 53
        E 240 80 29 00
        E 0 90 2b 28
        E 240 80 2b 00
        E 0 90 32 65
        E 240 80 32 00
        E 0 90 26 6e
        E 240 80 26 00
        E 0 90 2b 7f
        E 480 80 2b 00
        E 0 90 29 60
        E 480 80 29 00
        E 0 90 26 28
        E 960 80 26 00
        E 0 90 32 69
        E 960 80 32 00
        E 0 90 29 53
        E 240 80 29 00
        E 0 90 2b 28
        E 240 80 2b 00
        E 0 90 32 65
        E 240 80 32 00
        E 0 90 26 6e
        E 240 80 26 00
        E 0 90 2b 63
        E 480 80 2b 00
        E 0 90 29 60
        E 480 80 29 00
        E 0 90 26 28
        E 960 80 26 00
        E 0 90 32 69
        E 960 80 32 00
        E 0 90 29 53
        E 240 80 29 00
        E 0 90 2b 28
        E 240 80 2b 00
        E 0 90 32 65
        E 240 80 32 00
        E 0 90 26 6e
        E 240 80 26 00
        E 0 90 2b 7f
        E 480 80 2b 00
        E 0 90 29 60
        E 480 80 29 00
        E 0 90 26 28
        E 960 80 26 00
        E 0 90 32 69
        E 960 80 32 00
        E 0 90 29 53
        E 240 80 29 00
        E 0 90 2b 28
        E 240 80 2b 00
        E 0 90 32 65
        E 240 80 32 00
        E 0 90 26 6e
        E 240 80 26 00
        E 0 90 2b 63
        E 480 80 2b 00
        E 0 90 29 60
        E 480 80 29 00
        E 0 90 26 28
        E 960 80 26 00
        E 0 90 32 69
        E 960 80 32 00
        E 0 90 29 53
        E 240 80 29 00
        E 0 90 2b 28
        E 240 80 2b 00
        E 0 90 32 65
        E 240 80 32 00
        E 0 90 26 6e
        E 240 80 26 00
        E 0 90 2b 7f
        E 480 80 2b 00
        E 0 90 29 60
        E 480 80 29 00
        E 0 90 26 28
        E 960 80 26 00
        E 0 b0 7b 00
        CCINTERP 32
        CHASE_CC_TAKEOFFS 1
        GUID {7E911FDA-E936-4381-855D-DC49126051DE}
        IGNTEMPO 0 120 4 4
        SRCCOLOR 1226
        VELLANE 128 133 0
        VELLANE -2 108 108
        CFGEDITVIEW -1773.546098 0.022399 0 37 0 -1 0 0 0 0.5
        KEYSNAP 0
        TRACKSEL 252
        EVTFILTER 0 -1 -1 -1 -1 0 0 0 0 -1 -1 -1 -1 0 -1 0 -1 -1
        CFGEDIT 1 1 0 1 1 1 1 1 1 1 1 0.125 225 0 1672 739 0 1 0 0 0 0 0 1 0 0 0 0 1 64
      >
    >
  >
  <TRACK {5D41918B-DD00-42AA-B677-FADFD97547E9}
    NAME Midi-Guitars
    PEAKCOL 25166079
    BEAT -1
    AUTOMODE 0
    VOLPAN 1 0.16 -1 -1 1
    MUTESOLO 0 0 0
    IPHASE 0
    PLAYOFFS 0 1
    ISBUS 1 1
    BUSCOMP 0 0 0 0 0
    SHOWINMIX 0 0.6667 0.5 1 0.5 0 0 0
    FREEMODE 0
    SEL 0
    REC 0 -1 1 0 0 0 0
    VU 2
    TRACKHEIGHT 0 0 0 0 0 0
    INQ 0 0 0 0.5 100 0 0 100
    NCHAN 2
    FX 1
    TRACKID {5D41918B-DD00-42AA-B677-FADFD97547E9}
    PERF 0
    MIDIOUT -1
    MAINSEND 1 0
  >
  <TRACK {0DE18525-3C44-47F9-BB61-10709F4DD2E3}
    NAME Midi-G1
    PEAKCOL 25166079
    BEAT -1
    AUTOMODE 0
    VOLPAN 1.00000000000013 0 -1 -1 1
    MUTESOLO 0 0 0
    IPHASE 0
    PLAYOFFS 0 1
    ISBUS 0 0
    BUSCOMP 0 0 0 0 0
    SHOWINMIX 0 0.6667 0.5 1 0.5 0 0 0
    FREEMODE 0
    SEL 0
    REC 0 4128 1 0 0 0 0
    VU 2
    MIDICTL -1 1
    TRACKHEIGHT 0 0 0 0 0 0
    INQ 0 0 0 0.5 100 0 0 100
    NCHAN 2
    FX 1
    TRACKID {0DE18525-3C44-47F9-BB61-10709F4DD2E3}
    PERF 0
    MIDIOUT -1
    <MIDINOTENAMES
      -1 0 -- 0 0
      -1 1 -- 0 1
      -1 2 -- 0 2
      -1 3 -- 0 3
      -1 4 -- 0 4
      -1 5 -- 0 5
      -1 6 -- 0 6
      -1 7 -- 0 7
      -1 8 -- 0 8
      -1 9 -- 0 9
      -1 10 -- 0 10
      -1 11 -- 0 11
      -1 12 -- 0 12
      -1 13 -- 0 13
      -1 14 -- 0 14
      -1 15 -- 0 15
      -1 16 -- 0 16
      -1 17 -- 0 17
      -1 18 -- 0 18
      -1 19 -- 0 19
      -1 20 -- 0 20
      -1 21 -- 0 21
      -1 22 -- 0 22
      -1 23 -- 0 23
      -1 24 Sustain 0 24
      -1 25 "Natural Harm" 0 25
      -1 26 "Palm Mute" 0 26
      -1 27 "Slide In&Out" 0 27
      -1 28 Legato 0 28
      -1 29 HO/PO 0 29
      -1 30 "Slide Gtr" 0 30
      -1 31 "Force 6" 0 31
      -1 32 "Force 5" 0 32
      -1 33 "Force 4" 0 33
      -1 34 "Force 3" 0 34
      -1 35 "Force 2" 0 35
      -1 36 "Force 1" 0 36
      -1 37 "Capo Force" 0 37
      -1 38 D1 0 38
      -1 39 D#1 0 39
      -1 40 E1 0 40
      -1 41 F1 0 41
      -1 42 F#1 0 42
      -1 43 G1 0 43
      -1 44 G#1 0 44
      -1 45 A1 0 45
      -1 46 A#1 0 46
      -1 47 B1 0 47
      -1 48 C2 0 48
      -1 49 C#2 0 49
      -1 50 D2 0 50
      -1 51 D#2 0 51
      -1 52 E2 0 52
      -1 53 F2 0 53
      -1 54 F#2 0 54
      -1 55 G2 0 55
      -1 56 G#2 0 56
      -1 57 A2 0 57
      -1 58 A#2 0 58
      -1 59 B2 0 59
      -1 60 C3 0 60
      -1 61 C#3 0 61
      -1 62 D3 0 62
      -1 63 D#3 0 63
      -1 64 E3 0 64
      -1 65 F3 0 65
      -1 66 F#3 0 66
      -1 67 G3 0 67
      -1 68 G#3 0 68
      -1 69 A3 0 69
      -1 70 A#3 0 70
      -1 71 B3 0 71
      -1 72 C4 0 72
      -1 73 C#4 0 73
      -1 74 D4 0 74
      -1 75 D#4 0 75
      -1 76 E4 0 76
      -1 77 F4 0 77
      -1 78 F#4 0 78
      -1 79 G4 0 79
      -1 80 G#4 0 80
      -1 81 A4 0 81
      -1 82 A#4 0 82
      -1 83 B4 0 83
      -1 84 C5 0 84
      -1 85 C#5 0 85
      -1 86 D5 0 86
      -1 89 Scratch 0 89
      -1 90 Slap 0 90
      -1 91 Press 0 91
      -1 92 "Stroke Muting" 0 92
      -1 93 "Downstroke 1" 0 93
      -1 94 "Upstroke 1" 0 94
      -1 95 "Downstroke 2" 0 95
      -1 96 "Upstroke 2" 0 96
      -1 98 "Poly Repeater 1" 0 98
      -1 99 "Auto Legato Mode" 0 99
      -1 100 "Poly Repeater 2" 0 100
      -1 101 "Pick Scrape" 0 101
      -1 104 "Open String Toggle" 0 104
    >
    MAINSEND 1 0
    <VOLENV
      EGUID {02E8997F-7F0F-4E65-B9BD-CC26B58B76FC}
      ACT 1 -1
      VIS 0 1 1
      LANEHEIGHT 0 0
      ARM 1
      DEFSHAPE 0 -1 -1
      VOLTYPE 1
      PT 0 1 0
    >
    <FXCHAIN
      SHOW 0
      LASTSEL 0
      DOCKED 0
    >
    <ITEM
      POSITION 2.66666666666667
      SNAPOFFS 0
      LENGTH 10.66666666666667
      LOOP 1
      ALLTAKES 0
      FADEIN 1 0 0 1 0 0 0
      FADEOUT 1 0 0 1 0 0 0
      MUTE 0 0
      SEL 0
      IGUID {F009559A-8A7D-43F5-8DE7-D4DEDB2E99F8}
      IID 641
      NAME G1-1
      VOLPAN 1 0 1 -1
      SOFFS 1.33333333333333 2
      PLAYRATE 1 1 0 -1 0 0.0025
      CHANMODE 0
      GUID {DE79BA4A-DD59-4606-8BE6-0343AD24510E}
      <SOURCE MIDI
        HASDATA 1 960 QN
        CCINTERP 32
        POOLEDEVTS {8BF4B653-7E87-474A-9DB5-3A995BF1240C}
        Em 1920 90 28 3e
        e 60 90 18 59
        Em 180 90 28 00
        Em 0 90 2b 36
        e 240 80 18 00
        Em 0 90 2b 00
        Em 0 90 2a 43
        Em 240 90 2d 3d
        Em 22 90 2a 00
        Em 218 90 2b 3e
        Em 16 90 2d 00
        Em 224 90 2b 00
        Em 0 90 2f 3d
        Em 240 90 2f 00
        Em 0 90 2a 57
        Em 240 90 2a 00
        Em 0 90 2b 42
        Em 240 90 2b 00
        Em 0 90 28 3e
        Em 240 90 28 00
        Em 0 90 2b 36
        Em 240 90 2b 00
        Em 0 90 2a 43
        Em 240 90 2d 3d
        Em 22 90 2a 00
        Em 218 90 2b 3e
        Em 16 90 2d 00
        Em 224 90 2b 00
        Em 0 90 2f 3d
        Em 240 90 2f 00
        Em 0 90 2a 57
        Em 240 90 2a 00
        Em 0 90 2b 42
        Em 240 90 2b 00
        E 0 90 28 3e
        E 240 90 28 00
        E 0 90 2b 36
        E 240 90 2b 00
        E 0 90 2a 43
        E 240 90 2d 3d
        E 22 90 2a 00
        E 218 90 2b 3e
        E 16 90 2d 00
        E 224 90 2b 00
        E 0 90 2f 3d
        E 240 90 2f 00
        E 0 90 2a 57
        E 240 90 2a 00
        E 0 90 2b 42
        E 240 90 2b 00
        E 0 90 28 3e
        E 240 90 28 00
        E 0 90 2b 36
        E 240 90 2b 00
        E 0 90 2a 43
        E 240 90 2d 3d
        E 22 90 2a 00
        E 218 90 2b 3e
        E 16 90 2d 00
        E 224 90 2b 00
        E 0 90 2f 3d
        E 240 90 2f 00
        E 0 90 2a 57
        E 240 90 2a 00
        E 0 90 2b 42
        E 240 90 2b 00
        E 0 90 28 3e
        E 240 90 28 00
        E 0 90 2b 36
        E 240 90 2b 00
        E 0 90 2a 43
        E 240 90 2d 3d
        E 22 90 2a 00
        E 218 90 2b 3e
        E 16 90 2d 00
        E 224 90 2b 00
        E 0 90 2f 3d
        E 240 90 2f 00
        E 0 90 2a 57
        E 240 90 2a 00
        E 0 90 2b 42
        E 240 90 2b 00
        E 0 90 28 3e
        E 240 90 28 00
        E 0 90 2b 36
        E 240 90 2b 00
        E 0 90 2a 43
        E 240 90 2d 3d
        E 22 90 2a 00
        E 218 90 2b 3e
        E 16 90 2d 00
        E 224 90 2b 00
        E 0 90 2f 3d
        E 240 90 2f 00
        E 0 90 2a 57
        E 240 90 2a 00
        E 0 90 2b 42
        E 240 90 2b 00
        E 12 90 28 3e
        E 240 90 28 00
        E 0 90 2b 36
        E 240 90 2b 00
        E 0 90 2a 43
        E 240 90 2d 3d
        E 22 90 2a 00
        E 218 90 2b 3e
        E 16 90 2d 00
        E 224 90 2b 00
        E 0 90 2f 3d
        E 240 90 2f 00
        E 0 90 2a 57
        E 240 90 2a 00
        E 0 90 2b 42
        E 228 90 28 3e
        E 12 90 2b 00
        E 228 90 28 00
        E 0 90 2b 36
        E 240 90 2b 00
        E 0 90 2a 43
        E 240 90 2d 3d
        E 22 90 2a 00
        E 218 90 2b 3e
        E 16 90 2d 00
        E 224 90 2b 00
        E 0 90 2f 3d
        E 240 90 2f 00
        E 0 90 2a 57
        E 240 90 2a 00
        E 0 90 2b 42
        E 240 90 2b 00
        E 12 90 28 3e
        E 240 90 28 00
        E 0 90 2b 36
        E 240 90 2b 00
        E 0 90 2a 43
        E 240 90 2d 3d
        E 22 90 2a 00
        E 218 90 2b 3e
        E 16 90 2d 00
        E 224 90 2b 00
        E 0 90 2f 3d
        E 240 90 2f 00
        E 0 90 2a 57
        E 240 90 2a 00
        E 0 90 2b 42
        E 225 90 28 3e
        E 15 90 2b 00
        E 225 90 28 00
        E 0 90 2b 36
        E 240 90 2b 00
        E 0 90 2a 43
        E 240 90 2d 3d
        E 22 90 2a 00
        E 218 90 2b 3e
        E 17 90 2d 00
        E 223 90 2b 00
        E 0 90 2f 3d
        E 240 90 2f 00
        E 0 90 2a 57
        E 240 90 2a 00
        E 0 90 2b 42
        E 240 90 2b 00
        E 3 90 28 3e
        E 240 90 28 00
        E 0 90 2b 36
        E 240 90 2b 00
        E 0 90 2a 43
        E 240 90 2d 3d
        E 22 90 2a 00
        E 218 90 2b 3e
        E 16 90 2d 00
        E 224 90 2b 00
        E 0 90 2f 3d
        E 240 90 2f 00
        E 0 90 2a 57
        E 240 90 2a 00
        E 0 90 2b 42
        E 240 90 2b 00
        E 0 90 28 3e
        E 240 90 28 00
        E 0 90 2b 36
        E 240 90 2b 00
        E 0 90 2a 43
        E 240 90 2d 3d
        E 22 90 2a 00
        E 218 90 2b 3e
        E 16 90 2d 00
        E 224 90 2b 00
        E 0 90 2f 3d
        E 240 90 2f 00
        E 0 90 2a 57
        E 240 90 2a 00
        E 0 90 2b 42
        E 240 90 2b 00
        E 12 90 28 3e
        E 240 90 28 00
        E 0 90 2b 36
        E 240 90 2b 00
        E 0 90 2a 43
        E 240 90 2d 3d
        E 22 90 2a 00
        E 218 90 2b 3e
        E 16 90 2d 00
        E 224 90 2b 00
        E 0 90 2f 3d
        E 240 90 2f 00
        E 0 90 2a 57
        E 240 90 2a 00
        E 0 90 2b 42
        E 225 90 28 3e
        E 15 90 2b 00
        E 225 90 28 00
        E 0 90 2b 36
        E 240 90 2b 00
        E 0 90 2a 43
        E 240 90 2d 3d
        E 22 90 2a 00
        E 218 90 2b 3e
        E 17 90 2d 00
        E 223 90 2b 00
        E 0 90 2f 3d
        E 240 90 2f 00
        E 0 90 2a 57
        E 240 90 2a 00
        E 0 90 2b 42
        E 240 90 2b 00
        E 3 90 28 3e
        E 240 90 28 00
        E 0 90 2b 36
        E 240 90 2b 00
        E 0 90 2a 43
        E 240 90 2d 3d
        E 22 90 2a 00
        E 218 90 2b 3e
        E 16 90 2d 00
        E 224 90 2b 00
        E 0 90 2f 3d
        E 240 90 2f 00
        E 0 90 2a 57
        E 240 90 2a 00
        E 0 90 2b 42
        E 240 90 2b 00
        E 0 b0 7b 00
        CCINTERP 32
        CHASE_CC_TAKEOFFS 1
        GUID {687AA455-B81A-4D7F-BEAE-EDD06F2322D6}
        IGNTEMPO 0 120 4 4
        SRCCOLOR 935
        VELLANE -1 133 0
        VELLANE -2 108 108
        CFGEDITVIEW 183135.926595 0.012629 0 8 0 -1 0 0 0 0.5
        KEYSNAP 0
        TRACKSEL 252
        EVTFILTER 0 -1 -1 -1 -1 0 0 0 0 -1 -1 -1 -1 0 -1 0 -1 -1
        CFGEDIT 1 1 0 1 1 1 1 1 1 1 1 2 225 0 1672 739 0 1 0 0 0 0 0 1 0 0 0 0 1 64
      >
    >
    <ITEM
      POSITION 13.33333333333333
      SNAPOFFS 0
      LENGTH 16
      LOOP 1
      ALLTAKES 0
      FADEIN 1 0 0 1 0 0 0
      FADEOUT 1 0 0 1 0 0 0
      MUTE 0 0
      SEL 0
      IGUID {B9C80003-81BB-4F4F-A69A-96E22128490E}
      IID 570
      NAME G1-2
      VOLPAN 1 0 1 -1
      SOFFS 0 0
      PLAYRATE 1 1 0 -1 0 0.0025
      CHANMODE 0
      GUID {B23BCE58-92FE-4667-BEDC-685A3566C261}
      <SOURCE MIDI
        HASDATA 1 960 QN
        CCINTERP 32
        POOLEDEVTS {CE046C4C-9D9F-4F98-99D3-A7FCB34B81C3}
        E 0 90 18 7f
        E 0 90 26 28
        E 480 80 26 00
        E 124 80 18 00
        E 116 90 26 28
        E 240 80 26 00
        E 0 90 29 28
        E 240 80 29 00
        E 0 90 2b 28
        E 240 80 2b 00
        E 0 90 32 28
        E 960 80 32 00
        E 0 90 29 28
        E 480 80 29 00
        E 0 90 26 28
        E 480 80 26 00
        E 240 90 26 28
        E 240 80 26 00
        E 0 90 29 28
        E 240 80 29 00
        E 0 90 2b 28
        E 240 80 2b 00
        E 0 90 32 28
        E 960 80 32 00
        E 0 90 29 28
        E 480 80 29 00
        E 0 90 26 28
        E 480 80 26 00
        E 240 90 26 28
        E 240 80 26 00
        E 0 90 29 28
        E 240 80 29 00
        E 0 90 2b 28
        E 240 80 2b 00
        E 0 90 32 28
        E 960 80 32 00
        E 0 90 29 28
        E 480 80 29 00
        E 0 90 26 28
        E 480 80 26 00
        E 240 90 26 28
        E 240 80 26 00
        E 0 90 29 28
        E 240 80 29 00
        E 0 90 2b 28
        E 240 80 2b 00
        E 0 90 32 28
        E 960 80 32 00
        E 0 90 29 28
        E 480 80 29 00
        E 0 90 18 7f
        E 0 90 26 28
        E 480 80 26 00
        E 124 80 18 00
        E 116 90 26 28
        E 240 80 26 00
        E 0 90 29 28
        E 240 80 29 00
        E 0 90 2b 28
        E 240 80 2b 00
        E 0 90 32 28
        E 960 80 32 00
        E 0 90 29 28
        E 480 80 29 00
        E 0 90 26 28
        E 480 80 26 00
        E 240 90 26 28
        E 240 80 26 00
        E 0 90 29 28
        E 240 80 29 00
        E 0 90 2b 28
        E 240 80 2b 00
        E 0 90 32 28
        E 960 80 32 00
        E 0 90 29 28
        E 480 80 29 00
        E 0 90 26 28
        E 480 80 26 00
        E 240 90 26 28
        E 240 80 26 00
        E 0 90 29 28
        E 240 80 29 00
        E 0 90 2b 28
        E 240 80 2b 00
        E 0 90 32 28
        E 960 80 32 00
        E 0 90 29 28
        E 480 80 29 00
        E 0 90 26 28
        E 480 80 26 00
        E 240 90 26 28
        E 240 80 26 00
        E 0 90 29 28
        E 240 80 29 00
        E 0 90 2b 28
        E 240 80 2b 00
        E 0 90 32 28
        E 960 80 32 00
        E 0 90 29 28
        E 480 80 29 00
        E 0 90 18 7f
        E 0 90 26 28
        E 480 80 26 00
        E 124 80 18 00
        E 116 90 26 28
        E 240 80 26 00
        E 0 90 29 28
        E 240 80 29 00
        E 0 90 2b 28
        E 240 80 2b 00
        E 0 90 32 28
        E 960 80 32 00
        E 0 90 29 28
        E 480 80 29 00
        E 0 90 26 28
        E 480 80 26 00
        E 240 90 26 28
        E 240 80 26 00
        E 0 90 29 28
        E 240 80 29 00
        E 0 90 2b 28
        E 240 80 2b 00
        E 0 90 32 28
        E 960 80 32 00
        E 0 90 29 28
        E 480 80 29 00
        E 0 90 26 28
        E 480 80 26 00
        E 240 90 26 28
        E 240 80 26 00
        E 0 90 29 28
        E 240 80 29 00
        E 0 90 2b 28
        E 240 80 2b 00
        E 0 90 32 28
        E 960 80 32 00
        E 0 90 29 28
        E 480 80 29 00
        E 0 90 26 28
        E 480 80 26 00
        E 240 90 26 28
        E 240 80 26 00
        E 0 90 29 28
        E 240 80 29 00
        E 0 90 2b 28
        E 240 80 2b 00
        E 0 90 32 28
        E 960 80 32 00
        E 0 90 29 28
        E 480 80 29 00
        E 0 90 18 7f
        E 0 90 26 28
        E 480 80 26 00
        E 124 80 18 00
        E 116 90 26 28
        E 240 80 26 00
        E 0 90 29 28
        E 240 80 29 00
        E 0 90 2b 28
        E 240 80 2b 00
        E 0 90 32 28
        E 960 80 32 00
        E 0 90 29 28
        E 480 80 29 00
        E 0 90 26 28
        E 480 80 26 00
        E 240 90 26 28
        E 240 80 26 00
        E 0 90 29 28
        E 240 80 29 00
        E 0 90 2b 28
        E 240 80 2b 00
        E 0 90 32 28
        E 960 80 32 00
        E 0 90 29 28
        E 480 80 29 00
        E 0 90 26 28
        E 480 80 26 00
        E 240 90 26 28
        E 240 80 26 00
        E 0 90 29 28
        E 240 80 29 00
        E 0 90 2b 28
        E 240 80 2b 00
        E 0 90 32 28
        E 960 80 32 00
        E 0 90 29 28
        E 480 80 29 00
        E 0 90 26 28
        E 480 80 26 00
        E 240 90 26 28
        E 240 80 26 00
        E 0 90 29 28
        E 240 80 29 00
        E 0 90 2b 28
        E 240 80 2b 00
        E 0 90 32 28
        E 960 80 32 00
        E 0 90 29 28
        E 480 80 29 00
        E 0 b0 7b 00
        CCINTERP 32
        CHASE_CC_TAKEOFFS 1
        GUID {794D5AF1-346F-4FAA-B529-4FDD1F90846C}
        IGNTEMPO 0 120 4 4
        SRCCOLOR 1325
        VELLANE -1 133 0
        VELLANE -2 108 108
        CFGEDITVIEW 167775.926595 0.012629 0 8 0 -1 0 0 0 0.5
        KEYSNAP 0
        TRACKSEL 252
        EVTFILTER 0 -1 -1 -1 -1 0 0 0 0 -1 -1 -1 -1 0 -1 0 -1 -1
        CFGEDIT 1 1 0 1 1 1 1 1 1 1 1 2 225 0 1672 739 0 1 0 0 0 0 0 1 0 0 0 0 1 64
      >
    >
    <ITEM
      POSITION 29.33333333333332
      SNAPOFFS 0
      LENGTH 31.99999999999988
      LOOP 1
      ALLTAKES 0
      FADEIN 1 0 0 1 0 0 0
      FADEOUT 1 0 0 1 0 0 0
      MUTE 0 0
      SEL 0
      IGUID {ADCB1676-72A5-4062-9012-5079704B1F11}
      IID 699
      NAME G1-3
      VOLPAN 1 0 1 -1
      SOFFS 0 0
      PLAYRATE 1 1 0 -1 0 0.0025
      CHANMODE 0
      GUID {C6102CBA-5259-4E9E-A137-45DD83312C96}
      <SOURCE MIDI
        HASDATA 1 960 QN
        CCINTERP 32
        POOLEDEVTS {472C54A0-D405-4420-AE4F-EC38886BD8C3}
        E 0 90 18 7f
        E 0 90 26 28
        E 480 80 26 00
        E 124 80 18 00
        E 116 90 26 28
        E 240 80 26 00
        E 0 90 29 28
        E 240 80 29 00
        E 0 90 2b 28
        E 240 80 2b 00
        E 0 90 32 28
        E 960 80 32 00
        E 0 90 29 28
        E 480 80 29 00
        E 0 90 26 28
        E 480 80 26 00
        E 240 90 26 28
        E 240 80 26 00
        E 0 90 29 28
        E 240 80 29 00
        E 0 90 2b 28
        E 240 80 2b 00
        E 0 90 32 28
        E 960 80 32 00
        E 0 90 29 28
        E 480 80 29 00
        E 0 90 26 28
        E 480 80 26 00
        E 240 90 26 28
        E 240 80 26 00
        E 0 90 29 28
        E 240 80 29 00
        E 0 90 2b 28
        E 240 80 2b 00
        E 0 90 32 28
        E 960 80 32 00
        E 0 90 29 28
        E 480 80 29 00
        E 0 90 26 28
        E 480 80 26 00
        E 240 90 26 28
        E 240 80 26 00
        E 0 90 29 28
        E 240 80 29 00
        E 0 90 2b 28
        E 240 80 2b 00
        E 0 90 32 28
        E 960 80 32 00
        E 0 90 29 28
        E 480 80 29 00
        E 0 90 18 7f
        E 0 90 26 28
        E 480 80 26 00
        E 124 80 18 00
        E 116 90 26 28
        E 240 80 26 00
        E 0 90 29 28
        E 240 80 29 00
        E 0 90 2b 28
        E 240 80 2b 00
        E 0 90 32 28
        E 960 80 32 00
        E 0 90 29 28
        E 480 80 29 00
        E 0 90 26 28
        E 480 80 26 00
        E 240 90 26 28
        E 240 80 26 00
        E 0 90 29 28
        E 240 80 29 00
        E 0 90 2b 28
        E 240 80 2b 00
        E 0 90 32 28
        E 960 80 32 00
        E 0 90 29 28
        E 480 80 29 00
        E 0 90 26 28
        E 480 80 26 00
        E 240 90 26 28
        E 240 80 26 00
        E 0 90 29 28
        E 240 80 29 00
        E 0 90 2b 28
        E 240 80 2b 00
        E 0 90 32 28
        E 960 80 32 00
        E 0 90 29 28
        E 480 80 29 00
        E 0 90 26 28
        E 480 80 26 00
        E 240 90 26 28
        E 240 80 26 00
        E 0 90 29 28
        E 240 80 29 00
        E 0 90 2b 28
        E 240 80 2b 00
        E 0 90 32 28
        E 960 80 32 00
        E 0 90 29 28
        E 480 80 29 00
        E 0 90 18 7f
        E 0 90 26 28
        E 480 80 26 00
        E 124 80 18 00
        E 116 90 26 28
        E 240 80 26 00
        E 0 90 29 28
        E 240 80 29 00
        E 0 90 2b 28
        E 240 80 2b 00
        E 0 90 32 28
        E 960 80 32 00
        E 0 90 29 28
        E 480 80 29 00
        E 0 90 26 28
        E 480 80 26 00
        E 240 90 26 28
        E 240 80 26 00
        E 0 90 29 28
        E 240 80 29 00
        E 0 90 2b 28
        E 240 80 2b 00
        E 0 90 32 28
        E 960 80 32 00
        E 0 90 29 28
        E 480 80 29 00
        E 0 90 26 28
        E 480 80 26 00
        E 240 90 26 28
        E 240 80 26 00
        E 0 90 29 28
        E 240 80 29 00
        E 0 90 2b 28
        E 240 80 2b 00
        E 0 90 32 28
        E 960 80 32 00
        E 0 90 29 28
        E 480 80 29 00
        E 0 90 26 28
        E 480 80 26 00
        E 240 90 26 28
        E 240 80 26 00
        E 0 90 29 28
        E 240 80 29 00
        E 0 90 2b 28
        E 240 80 2b 00
        E 0 90 32 28
        E 960 80 32 00
        E 0 90 29 28
        E 480 80 29 00
        E 0 90 18 7f
        E 0 90 26 28
        E 480 80 26 00
        E 124 80 18 00
        E 116 90 26 28
        E 240 80 26 00
        E 0 90 29 28
        E 240 80 29 00
        E 0 90 2b 28
        E 240 80 2b 00
        E 0 90 32 28
        E 960 80 32 00
        E 0 90 29 28
        E 480 80 29 00
        E 0 90 26 28
        E 480 80 26 00
        E 240 90 26 28
        E 240 80 26 00
        E 0 90 29 28
        E 240 80 29 00
        E 0 90 2b 28
        E 240 80 2b 00
        E 0 90 32 28
        E 960 80 32 00
        E 0 90 29 28
        E 480 80 29 00
        E 0 90 26 28
        E 480 80 26 00
        E 240 90 26 28
        E 240 80 26 00
        E 0 90 29 28
        E 240 80 29 00
        E 0 90 2b 28
        E 240 80 2b 00
        E 0 90 32 28
        E 960 80 32 00
        E 0 90 29 28
        E 480 80 29 00
        E 0 90 26 28
        E 480 80 26 00
        E 240 90 26 28
        E 240 80 26 00
        E 0 90 29 28
        E 240 80 29 00
        E 0 90 2b 28
        E 240 80 2b 00
        E 0 90 32 28
        E 960 80 32 00
        E 0 90 29 28
        E 480 80 29 00
        E 0 b0 7b 00
        CCINTERP 32
        CHASE_CC_TAKEOFFS 1
        GUID {C724650B-8132-4B86-87AA-074A49B3B91A}
        IGNTEMPO 0 120 4 4
        SRCCOLOR 1214
        VELLANE -1 133 0
        VELLANE -2 108 108
        CFGEDITVIEW 144735.926595 0.012629 0 8 0 -1 0 0 0 0.5
        KEYSNAP 0
        TRACKSEL 252
        EVTFILTER 0 -1 -1 -1 -1 0 0 0 0 -1 -1 -1 -1 0 -1 0 -1 -1
        CFGEDIT 1 1 0 1 1 1 1 1 1 1 1 2 225 0 1672 739 0 1 0 0 0 0 0 1 0 0 0 0 1 64
      >
    >
    <ITEM
      POSITION 61.3333333333332
      SNAPOFFS 0
      LENGTH 15.99999999999979
      LOOP 1
      ALLTAKES 0
      FADEIN 1 0 0 1 0 0 0
      FADEOUT 1 0 0 1 0 0 0
      MUTE 0 0
      SEL 0
      IGUID {BCFADB7B-F4DF-4A6D-8E03-2CF4EB0A9032}
      IID 752
      NAME G1-4
      VOLPAN 1 0 1 -1
      SOFFS 0 0
      PLAYRATE 1 1 0 -1 0 0.0025
      CHANMODE 0
      GUID {905466B3-BEC9-425C-BE3E-123223DD274D}
      <SOURCE MIDI
        HASDATA 1 960 QN
        CCINTERP 32
        POOLEDEVTS {710AD571-95ED-41CE-92DE-68C5635C535B}
        E 0 90 26 28
        E 3 90 2d 42
        E 474 80 26 00
        E 3 80 2d 00
        E 0 90 26 28
        E 477 80 26 00
        E 3 90 29 28
        E 240 80 29 00
        E 0 90 2b 1b
        E 240 80 2b 00
        E 0 90 32 15
        E 480 80 32 00
        E 0 90 32 0e
        E 480 80 32 00
        E 0 90 2b 1f
        E 240 80 2b 00
        E 0 90 29 28
        E 240 80 29 00
        E 0 90 26 1d
        E 960 80 26 00
        E 0 90 29 28
        E 240 80 29 00
        E 0 90 2b 28
        E 240 80 2b 00
        E 0 90 32 28
        E 960 80 32 00
        E 0 90 29 28
        E 480 80 29 00
        E 0 90 26 28
        E 480 80 26 00
        E 240 90 26 50
        E 240 80 26 00
        E 0 90 29 28
        E 240 80 29 00
        E 0 90 2b 28
        E 240 80 2b 00
        E 0 90 32 66
        E 960 80 32 00
        E 0 90 29 28
        E 480 80 29 00
        E 0 90 2b 3e
        E 432 80 2b 00
        E 48 90 2b 0d
        E 0 90 5d 33
        E 240 80 2b 00
        E 0 80 5d 00
        E 0 90 5e 33
        E 0 90 2b 0d
        E 240 80 5e 00
        E 0 80 2b 00
        E 0 90 2b 0d
        E 0 90 5d 30
        E 240 80 2b 00
        E 0 80 5d 00
        E 0 90 5e 30
        E 0 90 2b 0d
        E 240 80 5e 00
        E 0 80 2b 00
        E 0 90 29 38
        E 0 90 30 38
        E 446 80 29 00
        E 0 80 30 00
        E 34 90 29 38
        E 0 90 30 38
        E 446 80 29 00
        E 0 80 30 00
        E 34 90 29 38
        E 0 90 30 38
        E 432 80 29 00
        E 0 80 30 00
        e 48 90 26 28
        e 3 90 2d 42
        e 474 80 26 00
        e 3 80 2d 00
        e 0 90 26 28
        e 477 80 26 00
        e 3 90 29 28
        e 240 80 29 00
        e 0 90 2b 1b
        e 240 80 2b 00
        e 0 90 32 15
        e 480 80 32 00
        e 0 90 32 0e
        e 480 80 32 00
        e 0 90 2b 1f
        e 240 80 2b 00
        e 0 90 29 28
        e 240 80 29 00
        e 0 90 26 1d
        e 960 80 26 00
        e 0 90 29 28
        e 240 80 29 00
        e 0 90 2b 28
        e 240 80 2b 00
        e 0 90 32 28
        e 960 80 32 00
        e 0 90 29 28
        e 480 80 29 00
        e 0 90 26 28
        e 480 80 26 00
        e 240 90 26 50
        e 240 80 26 00
        e 0 90 29 28
        e 240 80 29 00
        e 0 90 2b 28
        e 240 80 2b 00
        e 0 90 32 66
        e 960 80 32 00
        e 0 90 29 28
        e 480 80 29 00
        e 0 90 2b 3e
        e 432 80 2b 00
        e 48 90 2b 0d
        e 0 90 5d 33
        e 240 80 2b 00
        e 0 80 5d 00
        e 0 90 5e 33
        e 0 90 2b 0d
        e 240 80 5e 00
        e 0 80 2b 00
        e 0 90 2b 0d
        e 0 90 5d 30
        e 240 80 2b 00
        e 0 80 5d 00
        e 0 90 5e 30
        e 0 90 2b 0d
        e 240 80 5e 00
        e 0 80 2b 00
        e 0 90 29 38
        e 0 90 30 38
        e 446 80 29 00
        e 0 80 30 00
        e 34 90 29 38
        e 0 90 30 38
        e 446 80 29 00
        e 0 80 30 00
        e 34 90 29 38
        e 0 90 30 38
        e 432 80 29 00
        e 0 80 30 00
        E 23088 b0 7b 00
        CCINTERP 32
        CHASE_CC_TAKEOFFS 1
        GUID {8EEDF463-5C0F-41BC-9E94-C6AB18FBA013}
        IGNTEMPO 0 120 4 4
        SRCCOLOR 1577
        VELLANE 128 133 0
        VELLANE -2 108 108
        CFGEDITVIEW 98655.926595 0.012629 0 8 0 -1 0 0 0 0.5
        KEYSNAP 0
        TRACKSEL 252
        EVTFILTER 0 -1 -1 -1 -1 0 0 0 0 -1 -1 -1 -1 0 -1 0 -1 -1
        CFGEDIT 1 1 0 1 1 1 1 1 1 1 1 2 225 0 1672 739 0 1 0 0 0 0 0 1 0 0 0 0 1 64
      >
    >
    <ITEM
      POSITION 77.33333333333299
      SNAPOFFS 0
      LENGTH 32
      LOOP 1
      ALLTAKES 0
      FADEIN 1 0 0 1 0 0 0
      FADEOUT 1 0 0 1 0 0 0
      MUTE 0 0
      SEL 0
      IGUID {1D119A2E-75CF-4AA0-9859-18A4F7222BF4}
      IID 759
      NAME G1-5
      VOLPAN 1 0 1 -1
      SOFFS 0 0
      PLAYRATE 1 1 0 -1 0 0.0025
      CHANMODE 0
      GUID {101C614F-8F94-4F8F-86FC-11218732F30C}
      <SOURCE MIDI
        HASDATA 1 960 QN
        CCINTERP 32
        POOLEDEVTS {C46585AE-65E9-4749-B908-CCA17A5C8667}
        E 0 90 18 7f
        E 0 90 26 28
        E 480 80 26 00
        E 124 80 18 00
        E 116 90 26 28
        E 240 80 26 00
        E 0 90 29 28
        E 240 80 29 00
        E 0 90 2b 28
        E 240 80 2b 00
        E 0 90 32 28
        E 960 80 32 00
        E 0 90 29 28
        E 480 80 29 00
        E 0 90 26 28
        E 480 80 26 00
        E 240 90 26 28
        E 240 80 26 00
        E 0 90 29 28
        E 240 80 29 00
        E 0 90 2b 28
        E 240 80 2b 00
        E 0 90 32 28
        E 960 80 32 00
        E 0 90 29 28
        E 480 80 29 00
        E 0 90 26 28
        E 480 80 26 00
        E 240 90 26 28
        E 240 80 26 00
        E 0 90 29 28
        E 240 80 29 00
        E 0 90 2b 28
        E 240 80 2b 00
        E 0 90 32 28
        E 960 80 32 00
        E 0 90 29 28
        E 480 80 29 00
        E 0 90 26 28
        E 480 80 26 00
        E 240 90 26 28
        E 240 80 26 00
        E 0 90 29 28
        E 240 80 29 00
        E 0 90 2b 28
        E 240 80 2b 00
        E 0 90 32 28
        E 960 80 32 00
        E 0 90 29 28
        E 480 80 29 00
        E 0 90 18 7f
        E 0 90 26 28
        E 480 80 26 00
        E 124 80 18 00
        E 116 90 26 28
        E 240 80 26 00
        E 0 90 29 28
        E 240 80 29 00
        E 0 90 2b 28
        E 240 80 2b 00
        E 0 90 32 28
        E 960 80 32 00
        E 0 90 29 28
        E 480 80 29 00
        E 0 90 26 28
        E 480 80 26 00
        E 240 90 26 28
        E 240 80 26 00
        E 0 90 29 28
        E 240 80 29 00
        E 0 90 2b 28
        E 240 80 2b 00
        E 0 90 32 28
        E 960 80 32 00
        E 0 90 29 28
        E 480 80 29 00
        E 0 90 26 28
        E 480 80 26 00
        E 240 90 26 28
        E 240 80 26 00
        E 0 90 29 28
        E 240 80 29 00
        E 0 90 2b 28
        E 240 80 2b 00
        E 0 90 32 28
        E 960 80 32 00
        E 0 90 29 28
        E 480 80 29 00
        E 0 90 26 28
        E 480 80 26 00
        E 240 90 26 28
        E 240 80 26 00
        E 0 90 29 28
        E 240 80 29 00
        E 0 90 2b 28
        E 240 80 2b 00
        E 0 90 32 28
        E 960 80 32 00
        E 0 90 29 28
        E 480 80 29 00
        E 0 90 18 7f
        E 0 90 26 28
        E 480 80 26 00
        E 124 80 18 00
        E 116 90 26 28
        E 240 80 26 00
        E 0 90 29 28
        E 240 80 29 00
        E 0 90 2b 28
        E 240 80 2b 00
        E 0 90 32 28
        E 960 80 32 00
        E 0 90 29 28
        E 480 80 29 00
        E 0 90 26 28
        E 480 80 26 00
        E 240 90 26 28
        E 240 80 26 00
        E 0 90 29 28
        E 240 80 29 00
        E 0 90 2b 28
        E 240 80 2b 00
        E 0 90 32 28
        E 960 80 32 00
        E 0 90 29 28
        E 480 80 29 00
        E 0 90 26 28
        E 480 80 26 00
        E 240 90 26 28
        E 240 80 26 00
        E 0 90 29 28
        E 240 80 29 00
        E 0 90 2b 28
        E 240 80 2b 00
        E 0 90 32 28
        E 960 80 32 00
        E 0 90 29 28
        E 480 80 29 00
        E 0 90 26 28
        E 480 80 26 00
        E 240 90 26 28
        E 240 80 26 00
        E 0 90 29 28
        E 240 80 29 00
        E 0 90 2b 28
        E 240 80 2b 00
        E 0 90 32 28
        E 960 80 32 00
        E 0 90 29 28
        E 480 80 29 00
        E 0 90 18 7f
        E 0 90 26 28
        E 480 80 26 00
        E 124 80 18 00
        E 116 90 26 28
        E 240 80 26 00
        E 0 90 29 28
        E 240 80 29 00
        E 0 90 2b 28
        E 240 80 2b 00
        E 0 90 32 28
        E 960 80 32 00
        E 0 90 29 28
        E 480 80 29 00
        E 0 90 26 28
        E 480 80 26 00
        E 240 90 26 28
        E 240 80 26 00
        E 0 90 29 28
        E 240 80 29 00
        E 0 90 2b 28
        E 240 80 2b 00
        E 0 90 32 28
        E 960 80 32 00
        E 0 90 29 28
        E 480 80 29 00
        E 0 90 26 28
        E 480 80 26 00
        E 240 90 26 28
        E 240 80 26 00
        E 0 90 29 28
        E 240 80 29 00
        E 0 90 2b 28
        E 240 80 2b 00
        E 0 90 32 28
        E 960 80 32 00
        E 0 90 29 28
        E 480 80 29 00
        E 0 90 26 28
        E 480 80 26 00
        E 240 90 26 28
        E 240 80 26 00
        E 0 90 29 28
        E 240 80 29 00
        E 0 90 2b 28
        E 240 80 2b 00
        E 0 90 32 28
        E 960 80 32 00
        E 0 90 29 28
        E 480 80 29 00
        E 0 b0 7b 00
        CCINTERP 32
        CHASE_CC_TAKEOFFS 1
        GUID {ED0FB312-3911-4668-8D0A-FAD04EE21B66}
        IGNTEMPO 0 120 4 4
        SRCCOLOR 1587
        VELLANE 128 133 0
        VELLANE -2 108 108
        CFGEDITVIEW 75615.926595 0.012629 0 8 0 -1 0 0 0 0.5
        KEYSNAP 0
        TRACKSEL 252
        EVTFILTER 0 -1 -1 -1 -1 0 0 0 0 -1 -1 -1 -1 0 -1 0 -1 -1
        CFGEDIT 1 1 0 1 1 1 1 1 1 1 1 2 225 0 1672 739 0 1 0 0 0 0 0 1 0 0 0 0 1 64
      >
    >
    <ITEM
      POSITION 109.33333333333267
      SNAPOFFS 0
      LENGTH 21.3333332617142
      LOOP 1
      ALLTAKES 0
      FADEIN 1 0 0 1 0 0 0
      FADEOUT 1 0 0 1 0 0 0
      MUTE 0 0
      SEL 0
      IGUID {4203244F-58D1-4CE2-8D4F-6C308E638D64}
      IID 572
      NAME G1-6
      VOLPAN 1 0 1 -1
      SOFFS 0 0
      PLAYRATE 1 1 0 -1 0 0.0025
      CHANMODE 0
      GUID {AFCCF847-EDFB-4925-9DC6-4CB97CC0C5FC}
      <SOURCE MIDI
        HASDATA 1 960 QN
        CCINTERP 32
        POOLEDEVTS {02B66B48-215A-4A51-9509-D7E896B7BDBA}
        e 0 90 18 7f
        e 0 90 26 28
        e 360 80 18 00
        e 120 80 26 00
        e 240 90 26 28
        e 240 80 26 00
        e 0 90 29 28
        e 240 80 29 00
        e 0 90 2b 28
        e 240 80 2b 00
        e 0 90 32 28
        e 480 80 32 00
        e 0 90 26 28
        e 480 80 26 00
        e 240 90 26 28
        e 240 80 26 00
        e 0 90 29 28
        e 240 80 29 00
        e 0 90 2b 28
        e 240 80 2b 00
        e 0 90 32 28
        e 480 80 32 00
        e 0 90 26 28
        e 480 80 26 00
        e 240 90 26 28
        e 240 80 26 00
        e 0 90 29 28
        e 240 80 29 00
        e 0 90 2b 28
        e 240 80 2b 00
        e 0 90 32 28
        e 480 80 32 00
        e 0 90 26 28
        e 480 80 26 00
        e 240 90 26 28
        e 240 80 26 00
        e 0 90 29 28
        e 240 80 29 00
        e 0 90 2b 28
        e 240 80 2b 00
        e 0 90 32 28
        e 480 80 32 00
        e 0 90 26 28
        e 480 80 26 00
        e 240 90 26 28
        e 240 80 26 00
        e 0 90 29 28
        e 240 80 29 00
        e 0 90 2b 28
        e 240 80 2b 00
        e 0 90 32 28
        e 480 80 32 00
        e 0 90 26 28
        e 480 80 26 00
        e 240 90 26 28
        e 240 80 26 00
        e 0 90 29 28
        e 240 80 29 00
        e 0 90 2b 28
        e 240 80 2b 00
        e 0 90 32 28
        e 480 80 32 00
        e 0 90 26 28
        e 480 80 26 00
        e 240 90 26 28
        e 240 80 26 00
        e 0 90 29 28
        e 240 80 29 00
        e 0 90 2b 28
        e 240 80 2b 00
        e 0 90 32 28
        e 480 80 32 00
        e 0 90 26 28
        e 480 80 26 00
        e 240 90 26 28
        e 240 80 26 00
        e 0 90 29 28
        e 240 80 29 00
        e 0 90 2b 28
        e 240 80 2b 00
        e 0 90 32 28
        e 480 80 32 00
        e 0 90 26 28
        e 480 80 26 00
        e 240 90 26 28
        e 240 80 26 00
        e 0 90 29 28
        e 240 80 29 00
        e 0 90 2b 28
        e 240 80 2b 00
        e 0 90 32 28
        e 480 80 32 00
        e 0 90 26 28
        e 480 80 26 00
        e 240 90 26 28
        e 240 80 26 00
        e 0 90 29 28
        e 240 80 29 00
        e 0 90 2b 28
        e 240 80 2b 00
        e 0 90 32 28
        e 480 80 32 00
        e 0 90 26 28
        e 480 80 26 00
        e 240 90 26 28
        e 240 80 26 00
        e 0 90 29 28
        e 240 80 29 00
        e 0 90 2b 28
        e 240 80 2b 00
        e 0 90 32 28
        e 480 80 32 00
        e 0 90 26 28
        e 480 80 26 00
        e 240 90 26 28
        e 240 80 26 00
        e 0 90 29 28
        e 240 80 29 00
        e 0 90 2b 28
        e 240 80 2b 00
        e 0 90 32 28
        e 480 80 32 00
        e 0 90 18 7f
        e 0 90 26 28
        e 360 80 18 00
        e 120 80 26 00
        e 240 90 26 28
        e 240 80 26 00
        e 0 90 29 28
        e 240 80 29 00
        e 0 90 2b 28
        e 240 80 2b 00
        e 0 90 32 28
        e 480 80 32 00
        e 0 90 26 28
        e 480 80 26 00
        e 240 90 26 28
        e 240 80 26 00
        e 0 90 29 28
        e 240 80 29 00
        e 0 90 2b 28
        e 240 80 2b 00
        e 0 90 32 28
        e 480 80 32 00
        e 0 90 26 28
        e 480 80 26 00
        e 240 90 26 28
        e 240 80 26 00
        e 0 90 29 28
        e 240 80 29 00
        e 0 90 2b 28
        e 240 80 2b 00
        e 0 90 32 28
        e 480 80 32 00
        e 0 90 26 28
        e 480 80 26 00
        e 240 90 26 28
        e 240 80 26 00
        e 0 90 29 28
        e 240 80 29 00
        e 0 90 2b 28
        e 240 80 2b 00
        e 0 90 32 28
        e 480 80 32 00
        E 0 b0 7b 00
        CCINTERP 32
        CHASE_CC_TAKEOFFS 1
        GUID {3682BAF8-1E2A-4609-B238-E3A333E7C314}
        IGNTEMPO 0 120 4 4
        SRCCOLOR 1417
        VELLANE 128 133 0
        VELLANE -2 108 108
        CFGEDITVIEW 29535.926595 0.012629 0 8 0 -1 0 0 0 0.5
        KEYSNAP 0
        TRACKSEL 252
        EVTFILTER 0 -1 -1 -1 -1 0 0 0 0 -1 -1 -1 -1 0 -1 0 -1 -1
        CFGEDIT 1 1 0 1 1 1 1 1 1 1 1 2 225 0 1672 739 0 1 0 0 0 0 0 1 0 0 0 0 1 64
      >
    >
    <ITEM
      POSITION 130.66666659504688
      SNAPOFFS 0
      LENGTH 21.33333340495278
      LOOP 0
      ALLTAKES 0
      FADEIN 1 0 0 1 0 0 0
      FADEOUT 1 0 0 1 0 0 0
      MUTE 0 0
      SEL 0
      IGUID {9AD6CAF6-35F8-4FD9-8511-E9BED427A205}
      IID 765
      NAME G1-7
      VOLPAN 1 0 1 -1
      SOFFS 0 0
      PLAYRATE 1 1 0 -1 0 0.0025
      CHANMODE 0
      GUID {60994212-CB43-4159-9EE3-98F31EF469B7}
      <SOURCE MIDI
        HASDATA 1 960 QN
        CCINTERP 32
        POOLEDEVTS {9DF27439-F834-46F8-A6CF-45AFAB83C3D6}
        E 0 90 26 28
        E 480 80 26 00
        E 240 90 26 28
        E 240 80 26 00
        E 0 90 29 28
        E 240 80 29 00
        E 0 90 2b 28
        E 240 80 2b 00
        E 0 90 32 28
        E 480 80 32 00
        E 0 90 26 28
        E 480 80 26 00
        E 240 90 26 28
        E 240 80 26 00
        E 0 90 29 28
        E 240 80 29 00
        E 0 90 2b 28
        E 240 80 2b 00
        E 0 90 32 28
        E 480 80 32 00
        E 0 90 26 28
        E 480 80 26 00
        E 240 90 26 28
        E 240 80 26 00
        E 0 90 29 28
        E 240 80 29 00
        E 0 90 2b 28
        E 240 80 2b 00
        E 0 90 32 28
        E 480 80 32 00
        E 0 90 26 28
        E 480 80 26 00
        E 240 90 26 28
        E 240 80 26 00
        E 0 90 29 28
        E 240 80 29 00
        E 0 90 2b 28
        E 240 80 2b 00
        E 0 90 32 28
        E 480 80 32 00
        E 0 90 26 28
        E 480 80 26 00
        E 240 90 26 28
        E 240 80 26 00
        E 0 90 29 28
        E 240 80 29 00
        E 0 90 2b 28
        E 240 80 2b 00
        E 0 90 32 28
        E 480 80 32 00
        E 0 90 26 28
        E 480 80 26 00
        E 240 90 26 28
        E 240 80 26 00
        E 0 90 29 28
        E 240 80 29 00
        E 0 90 2b 28
        E 240 80 2b 00
        E 0 90 32 28
        E 480 80 32 00
        E 0 90 26 28
        E 480 80 26 00
        E 240 90 26 28
        E 240 80 26 00
        E 0 90 29 28
        E 240 80 29 00
        E 0 90 2b 28
        E 240 80 2b 00
        E 0 90 32 28
        E 480 80 32 00
        E 0 90 26 28
        E 480 80 26 00
        E 240 90 26 28
        E 240 80 26 00
        E 0 90 29 28
        E 240 80 29 00
        E 0 90 2b 28
        E 240 80 2b 00
        E 0 90 32 28
        E 480 80 32 00
        e 0 90 26 28
        e 480 80 26 00
        e 240 90 26 28
        e 240 80 26 00
        e 0 90 29 28
        e 240 80 29 00
        e 0 90 2b 28
        e 240 80 2b 00
        e 0 90 32 28
        e 480 80 32 00
        e 0 90 26 28
        e 480 80 26 00
        e 240 90 26 28
        e 240 80 26 00
        e 0 90 29 28
        e 240 80 29 00
        e 0 90 2b 28
        e 240 80 2b 00
        e 0 90 32 28
        e 480 80 32 00
        e 0 90 26 28
        e 480 80 26 00
        e 240 90 26 28
        e 240 80 26 00
        e 0 90 29 28
        e 240 80 29 00
        e 0 90 2b 28
        e 240 80 2b 00
        e 0 90 32 28
        e 480 80 32 00
        e 0 90 26 28
        e 480 80 26 00
        e 240 90 26 28
        e 240 80 26 00
        e 0 90 29 28
        e 240 80 29 00
        e 0 90 2b 28
        e 240 80 2b 00
        e 0 90 32 28
        e 480 80 32 00
        e 0 90 26 28
        e 480 80 26 00
        e 240 90 26 28
        e 240 80 26 00
        e 0 90 29 28
        e 240 80 29 00
        e 0 90 2b 28
        e 240 80 2b 00
        e 0 90 32 28
        e 480 80 32 00
        e 0 90 26 28
        e 480 80 26 00
        e 240 90 26 28
        e 240 80 26 00
        e 0 90 29 28
        e 240 80 29 00
        e 0 90 2b 28
        e 240 80 2b 00
        e 0 90 32 28
        e 480 80 32 00
        e 0 90 26 28
        e 480 80 26 00
        e 240 90 26 28
        e 240 80 26 00
        e 0 90 29 28
        e 240 80 29 00
        e 0 90 2b 28
        e 240 80 2b 00
        e 0 90 32 28
        e 480 80 32 00
        e 0 90 26 28
        e 480 80 26 00
        e 240 90 26 28
        e 240 80 26 00
        e 0 90 29 28
        e 240 80 29 00
        e 0 90 2b 28
        e 240 80 2b 00
        e 0 90 32 28
        e 480 80 32 00
        E 0 b0 7b 00
        CCINTERP 32
        CHASE_CC_TAKEOFFS 1
        GUID {AC12EDD8-4975-4917-A023-0AC05F542C56}
        IGNTEMPO 0 120 4 4
        SRCCOLOR 1669
        VELLANE 128 133 0
        VELLANE -2 108 108
        CFGEDITVIEW -1184.073302 0.012629 0 8 0 -1 0 0 0 0.5
        KEYSNAP 0
        TRACKSEL 252
        EVTFILTER 0 -1 -1 -1 -1 0 0 0 0 -1 -1 -1 -1 0 -1 0 -1 -1
        CFGEDIT 1 1 0 1 1 1 1 1 1 1 1 2 225 0 1672 739 0 1 0 0 0 0 0 1 0 0 0 0 1 64
      >
    >
    <ITEM
      POSITION 151.99999999999955
      SNAPOFFS 0
      LENGTH 21.33333340495255
      LOOP 0
      ALLTAKES 0
      FADEIN 1 0 0 1 0 0 0
      FADEOUT 1 0 0 1 0 0 0
      MUTE 0 0
      SEL 0
      IGUID {957D45CC-3149-40B0-ADD0-239CDECCDA66}
      IID 579
      NAME G1-8
      VOLPAN 1 0 1 -1
      SOFFS 0 0
      PLAYRATE 1 1 0 -1 0 0.0025
      CHANMODE 0
      GUID {1B9CACFB-0763-460B-8BAF-154146F9D737}
      <SOURCE MIDI
        HASDATA 1 960 QN
        CCINTERP 32
        POOLEDEVTS {E1018C4C-707D-4490-BB46-FD5474912060}
        E 0 90 26 28
        E 480 80 26 00
        E 240 90 26 28
        E 240 80 26 00
        E 0 90 29 28
        E 240 80 29 00
        E 0 90 2b 28
        E 240 80 2b 00
        E 0 90 32 28
        E 480 80 32 00
        E 0 90 26 28
        E 480 80 26 00
        E 240 90 26 28
        E 240 80 26 00
        E 0 90 29 28
        E 240 80 29 00
        E 0 90 2b 28
        E 240 80 2b 00
        E 0 90 32 28
        E 480 80 32 00
        E 0 90 26 28
        E 480 80 26 00
        E 240 90 26 28
        E 240 80 26 00
        E 0 90 29 28
        E 240 80 29 00
        E 0 90 2b 28
        E 240 80 2b 00
        E 0 90 32 28
        E 480 80 32 00
        E 0 90 26 28
        E 480 80 26 00
        E 240 90 26 28
        E 240 80 26 00
        E 0 90 29 28
        E 240 80 29 00
        E 0 90 2b 28
        E 240 80 2b 00
        E 0 90 32 28
        E 480 80 32 00
        E 0 90 26 28
        E 480 80 26 00
        E 240 90 26 28
        E 240 80 26 00
        E 0 90 29 28
        E 240 80 29 00
        E 0 90 2b 28
        E 240 80 2b 00
        E 0 90 32 28
        E 480 80 32 00
        E 0 90 26 28
        E 480 80 26 00
        E 240 90 26 28
        E 240 80 26 00
        E 0 90 29 28
        E 240 80 29 00
        E 0 90 2b 28
        E 240 80 2b 00
        E 0 90 32 28
        E 480 80 32 00
        E 0 90 26 28
        E 480 80 26 00
        E 240 90 26 28
        E 240 80 26 00
        E 0 90 29 28
        E 240 80 29 00
        E 0 90 2b 28
        E 240 80 2b 00
        E 0 90 32 28
        E 480 80 32 00
        E 0 90 26 28
        E 480 80 26 00
        E 240 90 26 28
        E 240 80 26 00
        E 0 90 29 28
        E 240 80 29 00
        E 0 90 2b 28
        E 240 80 2b 00
        E 0 90 32 28
        E 480 80 32 00
        e 0 90 26 28
        e 480 80 26 00
        e 240 90 26 28
        e 240 80 26 00
        e 0 90 29 28
        e 240 80 29 00
        e 0 90 2b 28
        e 240 80 2b 00
        e 0 90 32 28
        e 480 80 32 00
        e 0 90 26 28
        e 480 80 26 00
        e 240 90 26 28
        e 240 80 26 00
        e 0 90 29 28
        e 240 80 29 00
        e 0 90 2b 28
        e 240 80 2b 00
        e 0 90 32 28
        e 480 80 32 00
        e 0 90 26 28
        e 480 80 26 00
        e 240 90 26 28
        e 240 80 26 00
        e 0 90 29 28
        e 240 80 29 00
        e 0 90 2b 28
        e 240 80 2b 00
        e 0 90 32 28
        e 480 80 32 00
        e 0 90 26 28
        e 480 80 26 00
        e 240 90 26 28
        e 240 80 26 00
        e 0 90 29 28
        e 240 80 29 00
        e 0 90 2b 28
        e 240 80 2b 00
        e 0 90 32 28
        e 480 80 32 00
        e 0 90 26 28
        e 480 80 26 00
        e 240 90 26 28
        e 240 80 26 00
        e 0 90 29 28
        e 240 80 29 00
        e 0 90 2b 28
        e 240 80 2b 00
        e 0 90 32 28
        e 480 80 32 00
        e 0 90 26 28
        e 480 80 26 00
        e 240 90 26 28
        e 240 80 26 00
        e 0 90 29 28
        e 240 80 29 00
        e 0 90 2b 28
        e 240 80 2b 00
        e 0 90 32 28
        e 480 80 32 00
        e 0 90 26 28
        e 480 80 26 00
        e 240 90 26 28
        e 240 80 26 00
        e 0 90 29 28
        e 240 80 29 00
        e 0 90 2b 28
        e 240 80 2b 00
        e 0 90 32 28
        e 480 80 32 00
        e 0 90 26 28
        e 480 80 26 00
        e 240 90 26 28
        e 240 80 26 00
        e 0 90 29 28
        e 240 80 29 00
        e 0 90 2b 28
        e 240 80 2b 00
        e 0 90 32 28
        e 480 80 32 00
        E 0 b0 7b 00
        CCINTERP 32
        CHASE_CC_TAKEOFFS 1
        GUID {660674ED-2AEA-45EB-9A47-23BAB01E7816}
        IGNTEMPO 0 120 4 4
        SRCCOLOR 1786
        VELLANE 128 133 0
        VELLANE -2 108 108
        CFGEDITVIEW -31904.073405 0.012629 0 8 0 -1 0 0 0 0.5
        KEYSNAP 0
        TRACKSEL 252
        EVTFILTER 0 -1 -1 -1 -1 0 0 0 0 -1 -1 -1 -1 0 -1 0 -1 -1
        CFGEDIT 1 1 0 1 1 1 1 1 1 1 1 2 225 0 1672 739 0 1 0 0 0 0 0 1 0 0 0 0 1 64
      >
    >
    <ITEM
      POSITION 173.3333334049521
      SNAPOFFS 0
      LENGTH 32.00000000000452
      LOOP 0
      ALLTAKES 0
      FADEIN 1 0 0 1 0 0 0
      FADEOUT 1 0 0 1 0 0 0
      MUTE 0 0
      SEL 0
      IGUID {8C92FC03-09F6-4C85-AB0D-756A67F22B0F}
      IID 704
      NAME G1-9
      VOLPAN 1 0 1 -1
      SOFFS 0 0
      PLAYRATE 1 1 0 -1 0 0.0025
      CHANMODE 0
      GUID {87C7AE7A-D5A5-4A14-9DAB-D33FBB32CC1E}
      <SOURCE MIDI
        HASDATA 1 960 QN
        CCINTERP 32
        POOLEDEVTS {76DC2A6D-7F1E-4C98-B1F0-B59267562DB0}
        e 0 90 26 6a
        e 960 80 26 00
        e 0 90 32 6a
        e 960 80 32 00
        e 0 90 29 3e
        e 240 80 29 00
        e 0 90 2b 54
        e 216 80 2b 00
        e 24 90 32 6c
        e 240 80 32 00
        e 0 90 26 59
        e 240 80 26 00
        e 0 90 2b 5f
        e 480 80 2b 00
        e 0 90 29 4b
        e 480 80 29 00
        e 0 90 26 6a
        e 960 80 26 00
        e 0 90 32 6a
        e 960 80 32 00
        e 0 90 29 3e
        e 240 80 29 00
        e 0 90 2b 34
        e 240 80 2b 00
        e 0 90 32 50
        e 240 80 32 00
        e 0 90 26 59
        e 240 80 26 00
        e 0 90 2b 5f
        e 480 80 2b 00
        e 0 90 29 4b
        e 480 80 29 00
        e 0 90 26 6a
        e 960 80 26 00
        e 0 90 32 6a
        e 960 80 32 00
        e 0 90 29 3e
        e 240 80 29 00
        e 0 90 2b 54
        e 216 80 2b 00
        e 24 90 32 6c
        e 240 80 32 00
        e 0 90 26 59
        e 240 80 26 00
        e 0 90 2b 5f
        e 480 80 2b 00
        e 0 90 29 4b
        e 480 80 29 00
        e 0 90 26 6a
        e 960 80 26 00
        e 0 90 32 6a
        e 960 80 32 00
        e 0 90 29 3e
        e 240 80 29 00
        e 0 90 2b 34
        e 240 80 2b 00
        e 0 90 32 50
        e 240 80 32 00
        e 0 90 26 59
        e 240 80 26 00
        e 0 90 2b 5f
        e 480 80 2b 00
        e 0 90 29 4b
        e 480 80 29 00
        e 0 90 26 6a
        e 960 80 26 00
        e 0 90 32 6a
        e 960 80 32 00
        e 0 90 29 3e
        e 240 80 29 00
        e 0 90 2b 54
        e 216 80 2b 00
        e 24 90 32 6c
        e 240 80 32 00
        e 0 90 26 59
        e 240 80 26 00
        e 0 90 2b 5f
        e 480 80 2b 00
        e 0 90 29 4b
        e 480 80 29 00
        e 0 90 26 6a
        e 960 80 26 00
        e 0 90 32 6a
        e 960 80 32 00
        e 0 90 29 3e
        e 240 80 29 00
        e 0 90 2b 34
        e 240 80 2b 00
        e 0 90 32 50
        e 240 80 32 00
        e 0 90 26 59
        e 240 80 26 00
        e 0 90 2b 5f
        e 480 80 2b 00
        e 0 90 29 4b
        e 480 80 29 00
        e 0 90 26 6a
        e 960 80 26 00
        e 0 90 32 6a
        e 960 80 32 00
        e 0 90 29 3e
        e 240 80 29 00
        e 0 90 2b 54
        e 216 80 2b 00
        e 24 90 32 6c
        e 240 80 32 00
        e 0 90 26 59
        e 240 80 26 00
        e 0 90 2b 5f
        e 480 80 2b 00
        e 0 90 29 4b
        e 480 80 29 00
        e 0 90 26 6a
        e 960 80 26 00
        e 0 90 32 6a
        e 960 80 32 00
        e 0 90 29 3e
        e 240 80 29 00
        e 0 90 2b 34
        e 240 80 2b 00
        e 0 90 32 50
        e 240 80 32 00
        e 0 90 26 59
        e 240 80 26 00
        e 0 90 2b 5f
        e 480 80 2b 00
        e 0 90 29 4b
        e 480 80 29 00
        e 0 90 26 6a
        e 960 80 26 00
        e 0 90 32 6a
        e 960 80 32 00
        e 0 90 29 3e
        e 240 80 29 00
        e 0 90 2b 54
        e 216 80 2b 00
        e 24 90 32 6c
        e 240 80 32 00
        e 0 90 26 59
        e 240 80 26 00
        e 0 90 2b 5f
        e 480 80 2b 00
        e 0 90 29 4b
        e 480 80 29 00
        e 0 90 26 6a
        e 960 80 26 00
        e 0 90 32 6a
        e 960 80 32 00
        e 0 90 29 3e
        e 240 80 29 00
        e 0 90 2b 34
        e 240 80 2b 00
        e 0 90 32 50
        e 240 80 32 00
        e 0 90 26 59
        e 240 80 26 00
        e 0 90 2b 5f
        e 480 80 2b 00
        e 0 90 29 4b
        e 480 80 29 00
        e 0 90 26 6a
        e 960 80 26 00
        e 0 90 32 6a
        e 960 80 32 00
        e 0 90 29 3e
        e 240 80 29 00
        e 0 90 2b 54
        e 216 80 2b 00
        e 24 90 32 6c
        e 240 80 32 00
        e 0 90 26 59
        e 240 80 26 00
        e 0 90 2b 5f
        e 480 80 2b 00
        e 0 90 29 4b
        e 480 80 29 00
        e 0 90 26 6a
        e 960 80 26 00
        e 0 90 32 6a
        e 960 80 32 00
        e 0 90 29 3e
        e 240 80 29 00
        e 0 90 2b 34
        e 240 80 2b 00
        e 0 90 32 50
        e 240 80 32 00
        e 0 90 26 59
        e 240 80 26 00
        e 0 90 2b 5f
        e 480 80 2b 00
        e 0 90 29 4b
        e 480 80 29 00
        E 0 b0 7b 00
        CCINTERP 32
        CHASE_CC_TAKEOFFS 1
        GUID {E4A48A19-CA91-4479-BD9C-71CF970A8BC4}
        IGNTEMPO 0 120 4 4
        SRCCOLOR 1221
        VELLANE 128 133 0
        VELLANE -2 108 108
        CFGEDITVIEW -62624.073508 0.012629 0 8 0 -1 0 0 0 0.5
        KEYSNAP 0
        TRACKSEL 252
        EVTFILTER 0 -1 -1 -1 -1 0 0 0 0 -1 -1 -1 -1 0 -1 0 -1 -1
        CFGEDIT 1 1 0 1 1 1 1 1 1 1 1 2 225 0 1672 739 0 1 0 0 0 0 0 1 0 0 0 0 1 64
      >
    >
  >
  <TRACK {C5A76906-2A5E-4345-820A-8F0D2C0A0E8A}
    NAME Midi-G4
    PEAKCOL 25166079
    BEAT -1
    AUTOMODE 0
    VOLPAN 1.39288064923293 0 -1 -1 1
    MUTESOLO 0 0 0
    IPHASE 0
    PLAYOFFS 0 1
    ISBUS 0 0
    BUSCOMP 0 0 0 0 0
    SHOWINMIX 0 0.6667 0.5 1 0.5 0 0 0
    FREEMODE 0
    SEL 0
    REC 0 4128 1 7 0 0 0
    VU 2
    MIDICTL -1 1
    TRACKHEIGHT 0 0 0 0 0 0
    INQ 0 0 0 0.5 100 0 0 100
    NCHAN 2
    FX 1
    TRACKID {C5A76906-2A5E-4345-820A-8F0D2C0A0E8A}
    PERF 0
    MIDIOUT -1
    <MIDINOTENAMES
      -1 0 -- 0 0
      -1 1 -- 0 1
      -1 2 -- 0 2
      -1 3 -- 0 3
      -1 4 -- 0 4
      -1 5 -- 0 5
      -1 6 -- 0 6
      -1 7 -- 0 7
      -1 8 -- 0 8
      -1 9 -- 0 9
      -1 10 -- 0 10
      -1 11 -- 0 11
      -1 12 -- 0 12
      -1 13 -- 0 13
      -1 14 -- 0 14
      -1 15 -- 0 15
      -1 16 -- 0 16
      -1 17 -- 0 17
      -1 18 -- 0 18
      -1 19 -- 0 19
      -1 20 -- 0 20
      -1 21 -- 0 21
      -1 22 -- 0 22
      -1 23 -- 0 23
      -1 24 Sustain 0 24
      -1 25 "Natural Harm" 0 25
      -1 26 "Palm Mute" 0 26
      -1 27 "Slide In&Out" 0 27
      -1 28 "Legato Slide" 0 28
      -1 29 HO/PO 0 29
      -1 30 "Slide Gtr" 0 30
      -1 31 "Force 6" 0 31
      -1 32 "Force 5" 0 32
      -1 33 "Force 4" 0 33
      -1 34 "Force 3" 0 34
      -1 35 "Force 2" 0 35
      -1 36 "Force 1" 0 36
      -1 37 "Capo Force" 0 37
      -1 38 D1 0 38
      -1 39 D#1 0 39
      -1 40 E1 0 40
      -1 41 F1 0 41
      -1 42 F#1 0 42
      -1 43 G1 0 43
      -1 44 G#1 0 44
      -1 45 A1 0 45
      -1 46 A#1 0 46
      -1 47 B1 0 47
      -1 48 C2 0 48
      -1 49 C#2 0 49
      -1 50 D2 0 50
      -1 51 D#2 0 51
      -1 52 E2 0 52
      -1 53 F2 0 53
      -1 54 F#2 0 54
      -1 55 G2 0 55
      -1 56 G#2 0 56
      -1 57 A2 0 57
      -1 58 A#2 0 58
      -1 59 B2 0 59
      -1 60 C3 0 60
      -1 61 C#3 0 61
      -1 62 D3 0 62
      -1 63 D#3 0 63
      -1 64 E3 0 64
      -1 65 F3 0 65
      -1 66 F#3 0 66
      -1 67 G3 0 67
      -1 68 G#3 0 68
      -1 69 A3 0 69
      -1 70 A#3 0 70
      -1 71 B3 0 71
      -1 72 C4 0 72
      -1 73 C#4 0 73
      -1 74 D4 0 74
      -1 75 D#4 0 75
      -1 76 E4 0 76
      -1 77 F4 0 77
      -1 78 F#4 0 78
      -1 79 G4 0 79
      -1 80 G#4 0 80
      -1 81 A4 0 81
      -1 82 A#4 0 82
      -1 83 B4 0 83
      -1 84 C5 0 84
      -1 85 C#5 0 85
      -1 86 D5 0 86
      -1 89 Scratch 0 89
      -1 90 Slap 0 90
      -1 91 Press 0 91
      -1 92 "Stroke Muting" 0 92
      -1 93 "Downstroke 1" 0 93
      -1 94 "Upstroke 1" 0 94
      -1 95 "Downstroke 2" 0 95
      -1 96 "Upstroke 2" 0 96
      -1 98 "Poly Repeater 1" 0 98
      -1 99 "Auto Legato Mode" 0 99
      -1 100 "Poly Repeater 2" 0 100
      -1 101 "Pick Scrape" 0 101
      -1 104 "Open String Toggle" 0 104
    >
    MAINSEND 1 0
    <FXCHAIN
      WNDRECT 86 52 655 408
      SHOW 0
      LASTSEL 0
      DOCKED 0
    >
    <ITEM
      POSITION 2.66666666666667
      SNAPOFFS 0
      LENGTH 10.66666666666667
      LOOP 0
      ALLTAKES 0
      FADEIN 1 0 0 1 0 0 0
      FADEOUT 1 0 0 1 0 0 0
      MUTE 0 0
      SEL 0
      IGUID {28FFBFC4-740D-43D9-950A-B4011597D822}
      IID 642
      NAME G4-1
      VOLPAN 1 0 1 -1
      SOFFS 0 0
      PLAYRATE 1 1 0 -1 0 0.0025
      CHANMODE 0
      GUID {68560E39-6BFA-4469-A000-937B2938678B}
      <SOURCE MIDI
        HASDATA 1 960 QN
        CCINTERP 32
        POOLEDEVTS {D94F26EF-44B2-4423-B2E3-959A0D4717AF}
        E 0 e0 2f 35
        ENV 2 0 0
        E 0 90 18 65
        E 0 90 4c 39
        E 65 e0 59 41 -65
        ENV 2 0 0
        E 71 e0 30 35 -136
        ENV 2 0 0
        E 76 e0 64 41 -212
        ENV 2 0 0
        E 82 e0 32 35 -294
        ENV 2 0 0
        E 87 e0 71 41 -381
        ENV 2 0 0
        E 39 80 18 00
        E 54 e0 33 35 -474
        ENV 2 0 0
        E 99 e0 00 42 -573
        ENV 2 0 0
        E 104 e0 35 35 -677
        ENV 2 0 0
        E 109 e0 10 42 -786
        ENV 2 0 0
        E 115 e0 37 35 -901
        ENV 2 0 0
        E 121 e0 22 42 -1022
        ENV 2 0 0
        E 126 e0 39 35 -1148
        ENV 2 0 0
        E 132 e0 36 42 -1280
        ENV 2 0 0
        E 138 e0 3b 35 -1418
        ENV 2 0 0
        E 142 e0 4c 42 -1560
        ENV 2 0 0
        E 149 e0 3e 35 -1709
        ENV 2 0 0
        E 154 e0 63 42 -1863
        ENV 2 0 0
        E 159 e0 40 35 -2022
        ENV 2 0 0
        E 165 e0 7c 42 -2187
        ENV 2 0 0
        E 171 e0 43 35 -2358
        ENV 2 0 0
        E 176 e0 17 43 -2534
        ENV 2 0 0
        E 182 e0 46 35 -2716
        ENV 2 0 0
        E 187 e0 33 43 -2903
        ENV 2 0 0
        E 193 e0 4a 35 -3096
        ENV 2 0 0
        E 198 e0 51 43 -3294
        ENV 2 0 0
        E 204 e0 4d 35 -3498
        ENV 2 0 0
        E 210 e0 71 43 -3708
        ENV 2 0 0
        E 215 e0 51 35 -3923
        ENV 2 0 0
        E 220 e0 12 44 -4143
        ENV 2 0 0
        E 227 e0 54 35 -4370
        ENV 2 0 0
        E 231 e0 35 44 -4601
        ENV 2 0 0
        E 237 e0 58 35 -4838
        ENV 2 0 0
        E 243 e0 5a 44 -5081
        ENV 2 0 0
        E 248 e0 5d 35 -5329
        ENV 2 0 0
        E 254 e0 01 45 -5583
        ENV 2 0 0
        E 260 e0 61 35 -5843
        ENV 2 0 0
        E 265 e0 29 45 -6108
        ENV 2 0 0
        E 270 e0 66 35 -6378
        ENV 2 0 0
        E 276 e0 53 45 -6654
        ENV 2 0 0
        E 282 e0 6a 35 -6936
        ENV 2 0 0
        E 287 e0 7f 45 -7223
        ENV 2 0 0
        E 293 e0 6f 35 -7516
        ENV 2 0 0
        E 164 80 4c 00
        e 0 90 34 7f
        E 134 e0 2c 46 -7814
        ENV 2 0 0
        E 304 e0 74 35 -8118
        ENV 2 0 0
        E 309 e0 5b 46 -8427
        ENV 2 0 0
        E 315 e0 7a 35 -8742
        ENV 2 0 0
        E 321 e0 0c 47 -9063
        ENV 2 0 0
        E 326 e0 7f 35 -9389
        ENV 2 0 0
        E 331 e0 3e 47 -9720
        ENV 2 0 0
        E 338 e0 05 36 -10058
        ENV 2 0 0
        E 342 e0 73 47 -10400
        ENV 2 0 0
        E 348 e0 0b 36 -10748
        ENV 2 0 0
        E 354 e0 29 48 -11102
        ENV 2 0 0
        E 360 e0 11 36 -11462
        ENV 2 0 0
        Em 58 90 4c 71
        e 306 e0 60 48 -11826
        ENV 2 0 0
        e 371 e0 17 36 -12197
        ENV 2 0 0
        e 376 e0 1a 49 -12573
        ENV 2 0 0
        e 381 e0 1e 36 -12954
        ENV 2 0 0
        e 387 e0 55 49 -13341
        ENV 2 0 0
        e 393 e0 24 36 -13734
        ENV 2 0 0
        e 398 e0 11 4a -14132
        ENV 2 0 0
        e 404 e0 2b 36 -14536
        ENV 2 0 0
        e 409 e0 50 4a -14945
        ENV 2 0 0
        e 414 e0 32 36 -15359
        ENV 2 0 0
        Em 1 80 4c 00
        e 5760 80 34 00
        E 0 b0 7b 00
        CCINTERP 32
        CHASE_CC_TAKEOFFS 1
        GUID {43FAF1D9-CAC4-4779-8809-4FAB66AEE9DC}
        IGNTEMPO 0 120 4 4
        SRCCOLOR 936
        VELLANE 128 133 0
        VELLANE -2 108 108
        CFGEDITVIEW 183135.926595 0.012629 0 8 0 -1 0 0 0 0.5
        KEYSNAP 0
        TRACKSEL 252
        EVTFILTER 0 -1 -1 -1 -1 0 0 0 0 -1 -1 -1 -1 0 -1 0 -1 -1
        CFGEDIT 1 1 0 1 1 1 1 1 1 1 1 2 225 0 1672 739 0 1 0 0 0 0 0 1 0 0 0 0 1 64
      >
    >
    <ITEM
      POSITION 29.33333333333332
      SNAPOFFS 0
      LENGTH 31.99999999999988
      LOOP 1
      ALLTAKES 0
      FADEIN 1 0 0 1 0 0 0
      FADEOUT 1 0 0 1 0 0 0
      MUTE 0 0
      SEL 0
      IGUID {089A954E-E7C4-45A9-AB73-8E4CE6B8B7F7}
      IID 696
      NAME G4-3
      VOLPAN 1 0 1 -1
      SOFFS 0 0
      PLAYRATE 1 1 0 -1 0 0.0025
      CHANMODE 0
      GUID {9341329D-A0EE-419E-AA2E-32D48CEF757F}
      <SOURCE MIDI
        HASDATA 1 960 QN
        CCINTERP 32
        POOLEDEVTS {BC113724-4EE5-413E-8AB5-07860DF56A9C}
        E 0 e0 14 3b
        ENV 2 0 0
        E 0 90 18 7f
        E 0 90 4a 6e
        E 150 e0 79 42
        ENV 2 0 0
        E 186 e0 24 3a
        ENV 2 0 0
        E 180 e0 2a 43
        ENV 2 0 0
        E 175 e0 76 39
        ENV 2 0 0
        E 33 80 18 00
        E 134 e0 57 43
        ENV 2 0 0
        E 162 e0 4b 39
        ENV 2 0 0
        E 156 e0 00 44
        ENV 2 0 0
        E 149 e0 22 39
        ENV 2 0 0
        E 143 e0 27 44
        ENV 2 0 0
        E 137 e0 7e 38
        ENV 2 0 0
        E 130 e0 4a 44
        ENV 2 0 0
        E 125 e0 5c 38
        ENV 2 0 0
        E 118 e0 6a 44
        ENV 2 0 0
        E 112 e0 3e 38
        ENV 2 0 0
        E 106 e0 06 45
        ENV 2 0 0
        E 100 e0 23 38
        ENV 2 0 0
        E 93 e0 20 45
        ENV 2 0 0
        E 87 e0 0b 38
        ENV 2 0 0
        E 81 e0 36 45
        ENV 2 0 0
        E 75 e0 77 37
        ENV 2 0 0
        E 69 e0 49 45
        ENV 2 0 0
        E 62 e0 65 37
        ENV 2 0 0
        E 57 e0 58 45
        ENV 2 0 0
        E 50 e0 57 37
        ENV 2 0 0
        E 10 e0 14 3b
        ENV 2 0 0
        E 0 80 4a 00
        E 0 90 48 6e
        E 150 e0 79 42
        ENV 2 0 0
        E 186 e0 24 3a
        ENV 2 0 0
        E 180 e0 2a 43
        ENV 2 0 0
        E 175 e0 76 39
        ENV 2 0 0
        E 167 e0 57 43
        ENV 2 0 0
        E 162 e0 4b 39
        ENV 2 0 0
        E 156 e0 00 44
        ENV 2 0 0
        E 149 e0 22 39
        ENV 2 0 0
        E 143 e0 27 44
        ENV 2 0 0
        E 137 e0 7e 38
        ENV 2 0 0
        E 130 e0 4a 44
        ENV 2 0 0
        E 125 e0 5c 38
        ENV 2 0 0
        E 118 e0 6a 44
        ENV 2 0 0
        E 112 e0 3e 38
        ENV 2 0 0
        E 106 e0 06 45
        ENV 2 0 0
        E 100 e0 23 38
        ENV 2 0 0
        E 93 e0 20 45
        ENV 2 0 0
        E 87 e0 0b 38
        ENV 2 0 0
        E 81 e0 36 45
        ENV 2 0 0
        E 75 e0 77 37
        ENV 2 0 0
        E 69 e0 49 45
        ENV 2 0 0
        E 62 e0 65 37
        ENV 2 0 0
        E 57 e0 58 45
        ENV 2 0 0
        E 50 e0 57 37
        ENV 2 0 0
        E 10 e0 14 3b
        ENV 2 0 0
        E 0 80 48 00
        E 0 90 43 6e
        E 150 e0 79 42
        ENV 2 0 0
        E 186 e0 24 3a
        ENV 2 0 0
        E 180 e0 2a 43
        ENV 2 0 0
        E 175 e0 76 39
        ENV 2 0 0
        E 167 e0 57 43
        ENV 2 0 0
        E 162 e0 4b 39
        ENV 2 0 0
        E 156 e0 00 44
        ENV 2 0 0
        E 149 e0 22 39
        ENV 2 0 0
        E 143 e0 27 44
        ENV 2 0 0
        E 137 e0 7e 38
        ENV 2 0 0
        E 130 e0 4a 44
        ENV 2 0 0
        E 125 e0 5c 38
        ENV 2 0 0
        E 118 e0 6a 44
        ENV 2 0 0
        E 112 e0 3e 38
        ENV 2 0 0
        E 106 e0 06 45
        ENV 2 0 0
        E 100 e0 23 38
        ENV 2 0 0
        E 93 e0 20 45
        ENV 2 0 0
        E 87 e0 0b 38
        ENV 2 0 0
        E 81 e0 36 45
        ENV 2 0 0
        E 75 e0 77 37
        ENV 2 0 0
        E 69 e0 49 45
        ENV 2 0 0
        E 62 e0 65 37
        ENV 2 0 0
        E 57 e0 58 45
        ENV 2 0 0
        E 50 e0 57 37
        ENV 2 0 0
        E 10 e0 14 3b
        ENV 2 0 0
        E 0 80 43 00
        E 0 90 41 6e
        E 150 e0 79 42
        ENV 2 0 0
        E 186 e0 24 3a
        ENV 2 0 0
        E 180 e0 2a 43
        ENV 2 0 0
        E 175 e0 76 39
        ENV 2 0 0
        E 167 e0 57 43
        ENV 2 0 0
        E 162 e0 4b 39
        ENV 2 0 0
        E 156 e0 00 44
        ENV 2 0 0
        E 149 e0 22 39
        ENV 2 0 0
        E 143 e0 27 44
        ENV 2 0 0
        E 137 e0 7e 38
        ENV 2 0 0
        E 130 e0 4a 44
        ENV 2 0 0
        E 125 e0 5c 38
        ENV 2 0 0
        E 118 e0 6a 44
        ENV 2 0 0
        E 112 e0 3e 38
        ENV 2 0 0
        E 106 e0 06 45
        ENV 2 0 0
        E 100 e0 23 38
        ENV 2 0 0
        E 93 e0 20 45
        ENV 2 0 0
        E 87 e0 0b 38
        ENV 2 0 0
        E 81 e0 36 45
        ENV 2 0 0
        E 75 e0 77 37
        ENV 2 0 0
        E 69 e0 49 45
        ENV 2 0 0
        E 62 e0 65 37
        ENV 2 0 0
        E 57 e0 58 45
        ENV 2 0 0
        E 50 e0 57 37
        ENV 2 0 0
        E 10 80 41 00
        E 0 90 4a 6e
        E 858 e0 57 43
        ENV 2 0 0
        E 162 e0 4b 39
        ENV 2 0 0
        E 156 e0 00 44
        ENV 2 0 0
        E 149 e0 22 39
        ENV 2 0 0
        E 143 e0 27 44
        ENV 2 0 0
        E 137 e0 7e 38
        ENV 2 0 0
        E 130 e0 4a 44
        ENV 2 0 0
        E 125 e0 5c 38
        ENV 2 0 0
        E 118 e0 6a 44
        ENV 2 0 0
        E 112 e0 3e 38
        ENV 2 0 0
        E 106 e0 06 45
        ENV 2 0 0
        E 100 e0 23 38
        ENV 2 0 0
        E 93 e0 20 45
        ENV 2 0 0
        E 87 e0 0b 38
        ENV 2 0 0
        E 81 e0 36 45
        ENV 2 0 0
        E 75 e0 77 37
        ENV 2 0 0
        E 69 e0 49 45
        ENV 2 0 0
        E 62 e0 65 37
        ENV 2 0 0
        E 57 e0 58 45
        ENV 2 0 0
        E 50 e0 57 37
        ENV 2 0 0
        E 10 e0 14 3b
        ENV 2 0 0
        E 0 80 4a 00
        E 0 90 48 6e
        E 150 e0 79 42
        ENV 2 0 0
        E 186 e0 24 3a
        ENV 2 0 0
        E 180 e0 2a 43
        ENV 2 0 0
        E 175 e0 76 39
        ENV 2 0 0
        E 167 e0 57 43
        ENV 2 0 0
        E 162 e0 4b 39
        ENV 2 0 0
        E 156 e0 00 44
        ENV 2 0 0
        E 149 e0 22 39
        ENV 2 0 0
        E 143 e0 27 44
        ENV 2 0 0
        E 137 e0 7e 38
        ENV 2 0 0
        E 130 e0 4a 44
        ENV 2 0 0
        E 125 e0 5c 38
        ENV 2 0 0
        E 118 e0 6a 44
        ENV 2 0 0
        E 112 e0 3e 38
        ENV 2 0 0
        E 106 e0 06 45
        ENV 2 0 0
        E 100 e0 23 38
        ENV 2 0 0
        E 93 e0 20 45
        ENV 2 0 0
        E 87 e0 0b 38
        ENV 2 0 0
        E 81 e0 36 45
        ENV 2 0 0
        E 75 e0 77 37
        ENV 2 0 0
        E 69 e0 49 45
        ENV 2 0 0
        E 62 e0 65 37
        ENV 2 0 0
        E 57 e0 58 45
        ENV 2 0 0
        E 50 e0 57 37
        ENV 2 0 0
        E 10 e0 14 3b
        ENV 2 0 0
        E 0 80 48 00
        E 0 90 43 6e
        E 150 e0 79 42
        ENV 2 0 0
        E 186 e0 24 3a
        ENV 2 0 0
        E 180 e0 2a 43
        ENV 2 0 0
        E 175 e0 76 39
        ENV 2 0 0
        E 167 e0 57 43
        ENV 2 0 0
        E 162 e0 4b 39
        ENV 2 0 0
        E 156 e0 00 44
        ENV 2 0 0
        E 149 e0 22 39
        ENV 2 0 0
        E 143 e0 27 44
        ENV 2 0 0
        E 137 e0 7e 38
        ENV 2 0 0
        E 130 e0 4a 44
        ENV 2 0 0
        E 125 e0 5c 38
        ENV 2 0 0
        E 118 e0 6a 44
        ENV 2 0 0
        E 112 e0 3e 38
        ENV 2 0 0
        E 106 e0 06 45
        ENV 2 0 0
        E 100 e0 23 38
        ENV 2 0 0
        E 93 e0 20 45
        ENV 2 0 0
        E 87 e0 0b 38
        ENV 2 0 0
        E 81 e0 36 45
        ENV 2 0 0
        E 75 e0 77 37
        ENV 2 0 0
        E 69 e0 49 45
        ENV 2 0 0
        E 62 e0 65 37
        ENV 2 0 0
        E 57 e0 58 45
        ENV 2 0 0
        E 50 e0 57 37
        ENV 2 0 0
        E 10 e0 14 3b
        ENV 2 0 0
        E 0 80 43 00
        E 0 90 41 6e
        E 150 e0 79 42
        ENV 2 0 0
        E 186 e0 24 3a
        ENV 2 0 0
        E 180 e0 2a 43
        ENV 2 0 0
        E 175 e0 76 39
        ENV 2 0 0
        E 167 e0 57 43
        ENV 2 0 0
        E 162 e0 4b 39
        ENV 2 0 0
        E 156 e0 00 44
        ENV 2 0 0
        E 149 e0 22 39
        ENV 2 0 0
        E 143 e0 27 44
        ENV 2 0 0
        E 137 e0 7e 38
        ENV 2 0 0
        E 130 e0 4a 44
        ENV 2 0 0
        E 125 e0 5c 38
        ENV 2 0 0
        E 118 e0 6a 44
        ENV 2 0 0
        E 112 e0 3e 38
        ENV 2 0 0
        E 106 e0 06 45
        ENV 2 0 0
        E 100 e0 23 38
        ENV 2 0 0
        E 93 e0 20 45
        ENV 2 0 0
        E 87 e0 0b 38
        ENV 2 0 0
        E 81 e0 36 45
        ENV 2 0 0
        E 75 e0 77 37
        ENV 2 0 0
        E 69 e0 49 45
        ENV 2 0 0
        E 62 e0 65 37
        ENV 2 0 0
        E 57 e0 58 45
        ENV 2 0 0
        E 50 e0 57 37
        E 10 80 41 00
        E 0 90 4a 6e
        E 858 e0 57 43
        ENV 2 0 0
        E 162 e0 4b 39
        ENV 2 0 0
        E 156 e0 00 44
        ENV 2 0 0
        E 149 e0 22 39
        ENV 2 0 0
        E 143 e0 27 44
        ENV 2 0 0
        E 137 e0 7e 38
        ENV 2 0 0
        E 130 e0 4a 44
        ENV 2 0 0
        E 125 e0 5c 38
        ENV 2 0 0
        E 118 e0 6a 44
        ENV 2 0 0
        E 112 e0 3e 38
        ENV 2 0 0
        E 106 e0 06 45
        ENV 2 0 0
        E 100 e0 23 38
        ENV 2 0 0
        E 93 e0 20 45
        ENV 2 0 0
        E 87 e0 0b 38
        ENV 2 0 0
        E 81 e0 36 45
        ENV 2 0 0
        E 75 e0 77 37
        ENV 2 0 0
        E 69 e0 49 45
        ENV 2 0 0
        E 62 e0 65 37
        ENV 2 0 0
        E 57 e0 58 45
        ENV 2 0 0
        E 50 e0 57 37
        ENV 2 0 0
        E 10 e0 14 3b
        ENV 2 0 0
        E 0 80 4a 00
        E 0 90 48 6e
        E 150 e0 79 42
        ENV 2 0 0
        E 186 e0 24 3a
        ENV 2 0 0
        E 180 e0 2a 43
        ENV 2 0 0
        E 175 e0 76 39
        ENV 2 0 0
        E 167 e0 57 43
        ENV 2 0 0
        E 162 e0 4b 39
        ENV 2 0 0
        E 156 e0 00 44
        ENV 2 0 0
        E 149 e0 22 39
        ENV 2 0 0
        E 143 e0 27 44
        ENV 2 0 0
        E 137 e0 7e 38
        ENV 2 0 0
        E 130 e0 4a 44
        ENV 2 0 0
        E 125 e0 5c 38
        ENV 2 0 0
        E 118 e0 6a 44
        ENV 2 0 0
        E 112 e0 3e 38
        ENV 2 0 0
        E 106 e0 06 45
        ENV 2 0 0
        E 100 e0 23 38
        ENV 2 0 0
        E 93 e0 20 45
        ENV 2 0 0
        E 87 e0 0b 38
        ENV 2 0 0
        E 81 e0 36 45
        ENV 2 0 0
        E 75 e0 77 37
        ENV 2 0 0
        E 69 e0 49 45
        ENV 2 0 0
        E 62 e0 65 37
        ENV 2 0 0
        E 57 e0 58 45
        ENV 2 0 0
        E 50 e0 57 37
        ENV 2 0 0
        E 10 e0 14 3b
        ENV 2 0 0
        E 0 80 48 00
        E 0 90 43 6e
        E 150 e0 79 42
        ENV 2 0 0
        E 186 e0 24 3a
        ENV 2 0 0
        E 180 e0 2a 43
        ENV 2 0 0
        E 175 e0 76 39
        ENV 2 0 0
        E 167 e0 57 43
        ENV 2 0 0
        E 162 e0 4b 39
        ENV 2 0 0
        E 156 e0 00 44
        ENV 2 0 0
        E 149 e0 22 39
        ENV 2 0 0
        E 143 e0 27 44
        ENV 2 0 0
        E 137 e0 7e 38
        ENV 2 0 0
        E 130 e0 4a 44
        ENV 2 0 0
        E 125 e0 5c 38
        ENV 2 0 0
        E 118 e0 6a 44
        ENV 2 0 0
        E 112 e0 3e 38
        ENV 2 0 0
        E 106 e0 06 45
        ENV 2 0 0
        E 100 e0 23 38
        ENV 2 0 0
        E 93 e0 20 45
        ENV 2 0 0
        E 87 e0 0b 38
        ENV 2 0 0
        E 81 e0 36 45
        ENV 2 0 0
        E 75 e0 77 37
        ENV 2 0 0
        E 69 e0 49 45
        ENV 2 0 0
        E 62 e0 65 37
        ENV 2 0 0
        E 57 e0 58 45
        ENV 2 0 0
        E 50 e0 57 37
        ENV 2 0 0
        E 10 e0 14 3b
        ENV 2 0 0
        E 0 80 43 00
        E 0 90 41 6e
        E 150 e0 79 42
        ENV 2 0 0
        E 186 e0 24 3a
        ENV 2 0 0
        E 180 e0 2a 43
        ENV 2 0 0
        E 175 e0 76 39
        ENV 2 0 0
        E 167 e0 57 43
        ENV 2 0 0
        E 162 e0 4b 39
        ENV 2 0 0
        E 156 e0 00 44
        ENV 2 0 0
        E 149 e0 22 39
        ENV 2 0 0
        E 143 e0 27 44
        ENV 2 0 0
        E 137 e0 7e 38
        ENV 2 0 0
        E 130 e0 4a 44
        ENV 2 0 0
        E 125 e0 5c 38
        ENV 2 0 0
        E 118 e0 6a 44
        ENV 2 0 0
        E 112 e0 3e 38
        ENV 2 0 0
        E 106 e0 06 45
        ENV 2 0 0
        E 100 e0 23 38
        ENV 2 0 0
        E 93 e0 20 45
        ENV 2 0 0
        E 87 e0 0b 38
        ENV 2 0 0
        E 81 e0 36 45
        ENV 2 0 0
        E 75 e0 77 37
        ENV 2 0 0
        E 69 e0 49 45
        ENV 2 0 0
        E 62 e0 65 37
        ENV 2 0 0
        E 57 e0 58 45
        ENV 2 0 0
        E 50 e0 57 37
        ENV 2 0 0
        E 10 80 41 00
        E 0 90 4a 6e
        E 858 e0 57 43
        ENV 2 0 0
        E 162 e0 4b 39
        ENV 2 0 0
        E 156 e0 00 44
        ENV 2 0 0
        E 149 e0 22 39
        ENV 2 0 0
        E 143 e0 27 44
        ENV 2 0 0
        E 137 e0 7e 38
        ENV 2 0 0
        E 130 e0 4a 44
        ENV 2 0 0
        E 125 e0 5c 38
        ENV 2 0 0
        E 118 e0 6a 44
        ENV 2 0 0
        E 112 e0 3e 38
        ENV 2 0 0
        E 106 e0 06 45
        ENV 2 0 0
        E 100 e0 23 38
        ENV 2 0 0
        E 93 e0 20 45
        ENV 2 0 0
        E 87 e0 0b 38
        ENV 2 0 0
        E 81 e0 36 45
        ENV 2 0 0
        E 75 e0 77 37
        ENV 2 0 0
        E 69 e0 49 45
        ENV 2 0 0
        E 62 e0 65 37
        ENV 2 0 0
        E 57 e0 58 45
        ENV 2 0 0
        E 50 e0 57 37
        ENV 2 0 0
        E 10 e0 14 3b
        ENV 2 0 0
        E 0 80 4a 00
        E 0 90 48 6e
        E 150 e0 79 42
        ENV 2 0 0
        E 186 e0 24 3a
        ENV 2 0 0
        E 180 e0 2a 43
        ENV 2 0 0
        E 175 e0 76 39
        ENV 2 0 0
        E 167 e0 57 43
        ENV 2 0 0
        E 162 e0 4b 39
        ENV 2 0 0
        E 156 e0 00 44
        ENV 2 0 0
        E 149 e0 22 39
        ENV 2 0 0
        E 143 e0 27 44
        ENV 2 0 0
        E 137 e0 7e 38
        ENV 2 0 0
        E 130 e0 4a 44
        ENV 2 0 0
        E 125 e0 5c 38
        ENV 2 0 0
        E 118 e0 6a 44
        ENV 2 0 0
        E 112 e0 3e 38
        ENV 2 0 0
        E 106 e0 06 45
        ENV 2 0 0
        E 100 e0 23 38
        ENV 2 0 0
        E 93 e0 20 45
        ENV 2 0 0
        E 87 e0 0b 38
        ENV 2 0 0
        E 81 e0 36 45
        ENV 2 0 0
        E 75 e0 77 37
        ENV 2 0 0
        E 69 e0 49 45
        ENV 2 0 0
        E 62 e0 65 37
        ENV 2 0 0
        E 57 e0 58 45
        ENV 2 0 0
        E 50 e0 57 37
        ENV 2 0 0
        e 10 e0 14 3b
        ENV 2 0 0
        E 0 80 48 00
        e 0 90 43 6e
        e 150 e0 79 42
        ENV 2 0 0
        e 186 e0 24 3a
        ENV 2 0 0
        e 180 e0 2a 43
        ENV 2 0 0
        e 175 e0 76 39
        ENV 2 0 0
        e 167 e0 57 43
        ENV 2 0 0
        e 162 e0 4b 39
        ENV 2 0 0
        e 156 e0 00 44
        ENV 2 0 0
        e 149 e0 22 39
        ENV 2 0 0
        e 143 e0 27 44
        ENV 2 0 0
        e 137 e0 7e 38
        ENV 2 0 0
        e 130 e0 4a 44
        ENV 2 0 0
        e 125 e0 5c 38
        ENV 2 0 0
        e 118 e0 6a 44
        ENV 2 0 0
        e 112 e0 3e 38
        ENV 2 0 0
        e 106 e0 06 45
        ENV 2 0 0
        e 100 e0 23 38
        ENV 2 0 0
        e 93 e0 20 45
        ENV 2 0 0
        e 87 e0 0b 38
        ENV 2 0 0
        e 81 e0 36 45
        ENV 2 0 0
        e 323 e0 25 49
        ENV 5 2 0.33
        e 2879 e0 7f 7f
        ENV 5 0 0
        e 1 e0 00 40
        ENV 5 0 0
        e 0 80 43 00
        E 0 b0 7b 00
        CCINTERP 32
        CHASE_CC_TAKEOFFS 1
        GUID {DD31A408-0E6F-497B-8938-45177B76BAF0}
        IGNTEMPO 0 120 4 4
        SRCCOLOR 1208
        VELLANE 128 133 0
        VELLANE -2 108 108
        CFGEDITVIEW 144735.926595 0.012629 0 8 0 -1 0 0 0 0.5
        KEYSNAP 0
        TRACKSEL 252
        EVTFILTER 0 -1 -1 -1 -1 0 0 0 0 -1 -1 -1 -1 0 -1 0 -1 -1
        CFGEDIT 1 1 0 1 1 1 1 1 1 1 1 2 225 0 1672 739 0 1 0 0 0 0 0 1 0 0 0 0 1 64
      >
    >
    <ITEM
      POSITION 61.3333333333332
      SNAPOFFS 0
      LENGTH 15.99999999999979
      LOOP 1
      ALLTAKES 0
      FADEIN 1 0 0 1 0 0 0
      FADEOUT 1 0 0 1 0 0 0
      MUTE 0 0
      SEL 0
      IGUID {1A75CC8A-DBB0-4D06-A718-0B77B9F7134F}
      IID 755
      NAME G4-4
      VOLPAN 1 0 1 -1
      SOFFS 0 0
      PLAYRATE 1 1 0 -1 0 0.0025
      CHANMODE 0
      GUID {54D0FFF2-6012-4F4A-AD83-212047C7E744}
      <SOURCE MIDI
        HASDATA 1 960 QN
        CCINTERP 32
        POOLEDEVTS {9EFCB04D-BE48-47D6-8A7F-14207708F4E5}
        E 0 e0 7f 7f
        ENV 2 0 0
        E 0 90 43 1b
        E 2760 90 37 7f
        E 114 e0 00 40
        ENV 2 0 0
        E 6 e0 3d 34
        ENV 2 0 0
        E 0 80 43 00
        E 0 90 43 1b
        E 171 e0 41 4b -3051
        ENV 2 0 0
        E 169 e0 3d 34 -3220
        ENV 2 0 0
        E 168 e0 41 4b -3388
        ENV 2 0 0
        E 166 e0 3d 34 -3554
        ENV 2 0 0
        E 164 e0 41 4b -3718
        ENV 2 0 0
        E 163 e0 3d 34 -3881
        ENV 2 0 0
        E 162 e0 41 4b -4043
        ENV 2 0 0
        E 160 e0 3d 34 -4203
        ENV 2 0 0
        E 158 e0 41 4b -4361
        ENV 2 0 0
        E 157 e0 3d 34 -4518
        ENV 2 0 0
        E 155 e0 41 4b -4673
        ENV 2 0 0
        E 154 e0 3d 34 -4827
        ENV 2 0 0
        E 152 e0 41 4b -4979
        ENV 2 0 0
        E 150 e0 3d 34 -5129
        ENV 2 0 0
        E 149 e0 41 4b -5278
        ENV 2 0 0
        E 147 e0 3d 34 -5425
        ENV 2 0 0
        E 146 e0 41 4b -5571
        ENV 2 0 0
        E 144 e0 3d 34 -5715
        ENV 2 0 0
        E 143 e0 41 4b -5858
        ENV 2 0 0
        E 141 e0 3d 34 -5999
        ENV 2 0 0
        E 140 e0 41 4b -6139
        ENV 2 0 0
        E 138 e0 3d 34 -6277
        ENV 2 0 0
        E 323 e0 00 40
        ENV 2 0 0
        E 2040 80 37 00
        E 0 80 43 00
        E 0 90 43 1b
        E 0 90 37 7f
        E 2880 e0 7f 7f
        ENV 2 0 0
        E 0 80 43 00
        E 0 90 4a 69
        E 120 e0 00 40
        ENV 2 0 0
        E 120 80 37 00
        E 2040 e0 00 40
        ENV 2 0 0
        E 120 e0 35 31
        ENV 2 0 0
        E 120 e0 02 4b
        ENV 2 0 0
        E 120 e0 35 31
        ENV 2 0 0
        E 120 e0 02 4b
        ENV 2 0 0
        E 120 e0 35 31
        ENV 2 0 0
        E 120 e0 02 4b
        ENV 2 0 0
        E 120 e0 35 31
        ENV 2 0 0
        E 120 e0 02 4b
        ENV 2 0 0
        E 120 e0 35 31
        ENV 2 0 0
        E 120 e0 02 4b
        ENV 2 0 0
        E 120 e0 35 31
        ENV 2 0 0
        E 120 e0 02 4b
        ENV 2 0 0
        E 120 e0 35 31
        ENV 2 0 0
        E 120 e0 02 4b
        ENV 2 0 0
        E 120 e0 35 31
        ENV 2 0 0
        E 120 e0 02 4b
        ENV 2 0 0
        E 120 e0 35 31
        ENV 2 0 0
        E 120 e0 02 4b
        ENV 2 0 0
        E 120 e0 35 31
        ENV 2 0 0
        E 120 e0 02 4b
        ENV 2 0 0
        E 120 e0 35 31
        ENV 2 0 0
        E 120 e0 02 4b
        ENV 2 0 0
        E 120 e0 35 31
        ENV 2 0 0
        E 120 e0 02 4b
        ENV 2 0 0
        E 120 e0 35 31
        ENV 2 0 0
        E 120 e0 02 4b
        ENV 2 0 0
        E 120 e0 35 31
        ENV 2 0 0
        E 120 e0 02 4b
        ENV 2 0 0
        E 120 e0 35 31
        ENV 2 0 0
        E 120 e0 02 4b
        ENV 2 0 0
        E 120 e0 35 31
        ENV 2 0 0
        E 120 e0 02 4b
        ENV 2 0 0
        E 120 e0 35 31
        ENV 2 0 0
        E 120 e0 02 4b
        ENV 2 0 0
        E 120 e0 35 31
        ENV 2 0 0
        E 120 e0 02 4b
        ENV 2 0 0
        E 120 e0 35 31
        ENV 2 0 0
        E 120 e0 02 4b
        ENV 2 0 0
        E 120 e0 35 31
        ENV 2 0 0
        E 120 e0 02 4b
        ENV 2 0 0
        E 120 e0 35 31
        ENV 2 0 0
        E 120 e0 02 4b
        ENV 2 0 0
        E 120 e0 35 31
        ENV 2 0 0
        E 120 e0 02 4b
        ENV 2 0 0
        E 120 e0 35 31
        ENV 2 0 0
        E 120 e0 02 4b
        ENV 2 0 0
        E 120 e0 35 31
        ENV 2 0 0
        E 120 e0 02 4b
        ENV 2 0 0
        E 120 e0 35 31
        ENV 2 0 0
        E 120 e0 02 4b
        ENV 2 0 0
        E 120 e0 35 31
        ENV 2 0 0
        E 120 e0 02 4b
        ENV 2 0 0
        e 120 e0 35 31
        ENV 2 0 0
        e 0 90 3e 7f
        e 120 e0 02 4b
        ENV 2 0 0
        e 120 e0 35 31
        ENV 2 0 0
        e 120 e0 02 4b
        ENV 2 0 0
        e 120 e0 35 31
        ENV 2 0 0
        e 120 e0 02 4b
        ENV 2 0 0
        e 120 e0 35 31
        ENV 2 0 0
        e 120 e0 02 4b
        ENV 2 0 0
        e 120 e0 35 31
        ENV 2 0 0
        e 120 e0 02 4b
        ENV 2 0 0
        e 120 e0 35 31
        ENV 2 0 0
        e 120 e0 02 4b
        ENV 2 0 0
        e 120 e0 35 31
        ENV 2 0 0
        e 120 e0 02 4b
        ENV 2 0 0
        e 120 e0 35 31
        ENV 2 0 0
        e 120 e0 02 4b
        ENV 2 0 0
        e 120 e0 35 31
        ENV 2 0 0
        e 120 e0 02 4b
        ENV 2 0 0
        e 120 e0 35 31
        ENV 2 0 0
        e 120 e0 02 4b
        ENV 2 0 0
        e 120 e0 35 31
        ENV 2 0 0
        e 120 e0 02 4b
        ENV 2 0 0
        e 120 e0 35 31
        ENV 2 0 0
        e 120 e0 02 4b
        ENV 2 0 0
        e 119 e0 35 31
        ENV 2 0 0
        e 1 80 3e 00
        E 98 e0 45 4c
        ENV 2 0 0
        E 22 80 4a 00
        E 119 e0 3d 34
        ENV 2 0 0
        E 140 e0 41 4b
        ENV 2 0 0
        E 138 e0 3d 34
        ENV 2 0 0
        E 136 e0 41 4b
        ENV 2 0 0
        E 135 e0 3d 34
        ENV 2 0 0
        E 133 e0 41 4b
        ENV 2 0 0
        E 132 e0 3d 34
        ENV 2 0 0
        E 130 e0 41 4b
        ENV 2 0 0
        E 129 e0 3d 34
        ENV 2 0 0
        E 127 e0 41 4b
        ENV 2 0 0
        E 125 e0 3d 34
        ENV 2 0 0
        E 124 e0 41 4b
        ENV 2 0 0
        E 123 e0 3d 34
        ENV 2 0 0
        E 120 e0 41 4b
        ENV 2 0 0
        E 120 e0 3d 34
        ENV 2 0 0
        E 117 e0 41 4b
        ENV 2 0 0
        E 116 e0 3d 34
        ENV 2 0 0
        E 115 e0 41 4b
        ENV 2 0 0
        E 20641 b0 7b 00
        CCINTERP 32
        CHASE_CC_TAKEOFFS 1
        GUID {CB98B1CF-BEC8-474F-82CF-0C4E151EC0E3}
        IGNTEMPO 0 120 4 4
        SRCCOLOR 1583
        VELLANE 7 133 0
        VELLANE 128 133 0
        VELLANE -2 108 108
        CFGEDITVIEW -883.318439 0.044796 0 24 0 -1 0 0 0 0.5
        KEYSNAP 0
        TRACKSEL 252
        EVTFILTER 0 -1 -1 -1 -1 0 0 0 0 -1 -1 -1 -1 0 -1 0 -1 -1
        CFGEDIT 1 1 0 1 1 1 1 1 1 1 1 0.125 225 0 1672 739 0 1 0 0 0 0 0 1 0 0 0 0 1 64
      >
    >
    <ITEM
      POSITION 77.33333333333299
      SNAPOFFS 0
      LENGTH 32
      LOOP 1
      ALLTAKES 0
      FADEIN 1 0 0 1 0 0 0
      FADEOUT 1 0 0 1 0 0 0
      MUTE 0 0
      SEL 0
      IGUID {1F06730B-CE6E-4572-BEA4-B8BE8BB386AC}
      IID 762
      NAME G4-5
      VOLPAN 1 0 1 -1
      SOFFS 0 0
      PLAYRATE 1 1 0 -1 0 0.0025
      CHANMODE 0
      GUID {7A861ADC-D38A-43CB-A1F7-89F775AC7A38}
      <SOURCE MIDI
        HASDATA 1 960 QN
        CCINTERP 32
        POOLEDEVTS {663B8F42-2A0F-4729-8FB8-1FEA1549F776}
        E 0 e0 14 3b
        ENV 2 0 0
        E 0 90 18 7f
        E 0 90 4a 6e
        E 150 e0 79 42
        ENV 2 0 0
        E 186 e0 24 3a
        ENV 2 0 0
        E 180 e0 2a 43
        ENV 2 0 0
        E 175 e0 76 39
        ENV 2 0 0
        E 33 80 18 00
        E 134 e0 57 43
        ENV 2 0 0
        E 162 e0 4b 39
        ENV 2 0 0
        E 156 e0 00 44
        ENV 2 0 0
        E 149 e0 22 39
        ENV 2 0 0
        E 143 e0 27 44
        ENV 2 0 0
        E 137 e0 7e 38
        ENV 2 0 0
        E 130 e0 4a 44
        ENV 2 0 0
        E 125 e0 5c 38
        ENV 2 0 0
        E 118 e0 6a 44
        ENV 2 0 0
        E 112 e0 3e 38
        ENV 2 0 0
        E 106 e0 06 45
        ENV 2 0 0
        E 100 e0 23 38
        ENV 2 0 0
        E 93 e0 20 45
        ENV 2 0 0
        E 87 e0 0b 38
        ENV 2 0 0
        E 81 e0 36 45
        ENV 2 0 0
        E 75 e0 77 37
        ENV 2 0 0
        E 69 e0 49 45
        ENV 2 0 0
        E 62 e0 65 37
        ENV 2 0 0
        E 57 e0 58 45
        ENV 2 0 0
        E 50 e0 57 37
        ENV 2 0 0
        E 10 e0 14 3b
        ENV 2 0 0
        E 0 80 4a 00
        E 0 90 48 6e
        E 150 e0 79 42
        ENV 2 0 0
        E 186 e0 24 3a
        ENV 2 0 0
        E 180 e0 2a 43
        ENV 2 0 0
        E 175 e0 76 39
        ENV 2 0 0
        E 167 e0 57 43
        ENV 2 0 0
        E 162 e0 4b 39
        ENV 2 0 0
        E 156 e0 00 44
        ENV 2 0 0
        E 149 e0 22 39
        ENV 2 0 0
        E 143 e0 27 44
        ENV 2 0 0
        E 137 e0 7e 38
        ENV 2 0 0
        E 130 e0 4a 44
        ENV 2 0 0
        E 125 e0 5c 38
        ENV 2 0 0
        E 118 e0 6a 44
        ENV 2 0 0
        E 112 e0 3e 38
        ENV 2 0 0
        E 106 e0 06 45
        ENV 2 0 0
        E 100 e0 23 38
        ENV 2 0 0
        E 93 e0 20 45
        ENV 2 0 0
        E 87 e0 0b 38
        ENV 2 0 0
        E 81 e0 36 45
        ENV 2 0 0
        E 75 e0 77 37
        ENV 2 0 0
        E 69 e0 49 45
        ENV 2 0 0
        E 62 e0 65 37
        ENV 2 0 0
        E 57 e0 58 45
        ENV 2 0 0
        E 50 e0 57 37
        ENV 2 0 0
        E 10 e0 14 3b
        ENV 2 0 0
        E 0 80 48 00
        E 0 90 43 6e
        E 150 e0 79 42
        ENV 2 0 0
        E 186 e0 24 3a
        ENV 2 0 0
        E 180 e0 2a 43
        ENV 2 0 0
        E 175 e0 76 39
        ENV 2 0 0
        E 167 e0 57 43
        ENV 2 0 0
        E 162 e0 4b 39
        ENV 2 0 0
        E 156 e0 00 44
        ENV 2 0 0
        E 149 e0 22 39
        ENV 2 0 0
        E 143 e0 27 44
        ENV 2 0 0
        E 137 e0 7e 38
        ENV 2 0 0
        E 130 e0 4a 44
        ENV 2 0 0
        E 125 e0 5c 38
        ENV 2 0 0
        E 118 e0 6a 44
        ENV 2 0 0
        E 112 e0 3e 38
        ENV 2 0 0
        E 106 e0 06 45
        ENV 2 0 0
        E 100 e0 23 38
        ENV 2 0 0
        E 93 e0 20 45
        ENV 2 0 0
        E 87 e0 0b 38
        ENV 2 0 0
        E 81 e0 36 45
        ENV 2 0 0
        E 75 e0 77 37
        ENV 2 0 0
        E 69 e0 49 45
        ENV 2 0 0
        E 62 e0 65 37
        ENV 2 0 0
        E 57 e0 58 45
        ENV 2 0 0
        E 50 e0 57 37
        ENV 2 0 0
        E 10 e0 14 3b
        ENV 2 0 0
        E 0 80 43 00
        E 0 90 41 6e
        E 150 e0 79 42
        ENV 2 0 0
        E 186 e0 24 3a
        ENV 2 0 0
        E 180 e0 2a 43
        ENV 2 0 0
        E 175 e0 76 39
        ENV 2 0 0
        E 167 e0 57 43
        ENV 2 0 0
        E 162 e0 4b 39
        ENV 2 0 0
        E 156 e0 00 44
        ENV 2 0 0
        E 149 e0 22 39
        ENV 2 0 0
        E 143 e0 27 44
        ENV 2 0 0
        E 137 e0 7e 38
        ENV 2 0 0
        E 130 e0 4a 44
        ENV 2 0 0
        E 125 e0 5c 38
        ENV 2 0 0
        E 118 e0 6a 44
        ENV 2 0 0
        E 112 e0 3e 38
        ENV 2 0 0
        E 106 e0 06 45
        ENV 2 0 0
        E 100 e0 23 38
        ENV 2 0 0
        E 93 e0 20 45
        ENV 2 0 0
        E 87 e0 0b 38
        ENV 2 0 0
        E 81 e0 36 45
        ENV 2 0 0
        E 75 e0 77 37
        ENV 2 0 0
        E 69 e0 49 45
        ENV 2 0 0
        E 62 e0 65 37
        ENV 2 0 0
        E 57 e0 58 45
        ENV 2 0 0
        E 50 e0 57 37
        ENV 2 0 0
        E 10 80 41 00
        E 0 90 4a 6e
        E 858 e0 57 43
        ENV 2 0 0
        E 162 e0 4b 39
        ENV 2 0 0
        E 156 e0 00 44
        ENV 2 0 0
        E 149 e0 22 39
        ENV 2 0 0
        E 143 e0 27 44
        ENV 2 0 0
        E 137 e0 7e 38
        ENV 2 0 0
        E 130 e0 4a 44
        ENV 2 0 0
        E 125 e0 5c 38
        ENV 2 0 0
        E 118 e0 6a 44
        ENV 2 0 0
        E 112 e0 3e 38
        ENV 2 0 0
        E 106 e0 06 45
        ENV 2 0 0
        E 100 e0 23 38
        ENV 2 0 0
        E 93 e0 20 45
        ENV 2 0 0
        E 87 e0 0b 38
        ENV 2 0 0
        E 81 e0 36 45
        ENV 2 0 0
        E 75 e0 77 37
        ENV 2 0 0
        E 69 e0 49 45
        ENV 2 0 0
        E 62 e0 65 37
        ENV 2 0 0
        E 57 e0 58 45
        ENV 2 0 0
        E 50 e0 57 37
        ENV 2 0 0
        E 10 e0 14 3b
        ENV 2 0 0
        E 0 80 4a 00
        E 0 90 48 6e
        E 150 e0 79 42
        ENV 2 0 0
        E 186 e0 24 3a
        ENV 2 0 0
        E 180 e0 2a 43
        ENV 2 0 0
        E 175 e0 76 39
        ENV 2 0 0
        E 167 e0 57 43
        ENV 2 0 0
        E 162 e0 4b 39
        ENV 2 0 0
        E 156 e0 00 44
        ENV 2 0 0
        E 149 e0 22 39
        ENV 2 0 0
        E 143 e0 27 44
        ENV 2 0 0
        E 137 e0 7e 38
        ENV 2 0 0
        E 130 e0 4a 44
        ENV 2 0 0
        E 125 e0 5c 38
        ENV 2 0 0
        E 118 e0 6a 44
        ENV 2 0 0
        E 112 e0 3e 38
        ENV 2 0 0
        E 106 e0 06 45
        ENV 2 0 0
        E 100 e0 23 38
        ENV 2 0 0
        E 93 e0 20 45
        ENV 2 0 0
        E 87 e0 0b 38
        ENV 2 0 0
        E 81 e0 36 45
        ENV 2 0 0
        E 75 e0 77 37
        ENV 2 0 0
        E 69 e0 49 45
        ENV 2 0 0
        E 62 e0 65 37
        ENV 2 0 0
        E 57 e0 58 45
        ENV 2 0 0
        E 50 e0 57 37
        ENV 2 0 0
        E 10 e0 14 3b
        ENV 2 0 0
        E 0 80 48 00
        E 0 90 43 6e
        E 150 e0 79 42
        ENV 2 0 0
        E 186 e0 24 3a
        ENV 2 0 0
        E 180 e0 2a 43
        ENV 2 0 0
        E 175 e0 76 39
        ENV 2 0 0
        E 167 e0 57 43
        ENV 2 0 0
        E 162 e0 4b 39
        ENV 2 0 0
        E 156 e0 00 44
        ENV 2 0 0
        E 149 e0 22 39
        ENV 2 0 0
        E 143 e0 27 44
        ENV 2 0 0
        E 137 e0 7e 38
        ENV 2 0 0
        E 130 e0 4a 44
        ENV 2 0 0
        E 125 e0 5c 38
        ENV 2 0 0
        E 118 e0 6a 44
        ENV 2 0 0
        E 112 e0 3e 38
        ENV 2 0 0
        E 106 e0 06 45
        ENV 2 0 0
        E 100 e0 23 38
        ENV 2 0 0
        E 93 e0 20 45
        ENV 2 0 0
        E 87 e0 0b 38
        ENV 2 0 0
        E 81 e0 36 45
        ENV 2 0 0
        E 75 e0 77 37
        ENV 2 0 0
        E 69 e0 49 45
        ENV 2 0 0
        E 62 e0 65 37
        ENV 2 0 0
        E 57 e0 58 45
        ENV 2 0 0
        E 50 e0 57 37
        ENV 2 0 0
        E 10 e0 14 3b
        ENV 2 0 0
        E 0 80 43 00
        E 0 90 41 6e
        E 150 e0 79 42
        ENV 2 0 0
        E 186 e0 24 3a
        ENV 2 0 0
        E 180 e0 2a 43
        ENV 2 0 0
        E 175 e0 76 39
        ENV 2 0 0
        E 167 e0 57 43
        ENV 2 0 0
        E 162 e0 4b 39
        ENV 2 0 0
        E 156 e0 00 44
        ENV 2 0 0
        E 149 e0 22 39
        ENV 2 0 0
        E 143 e0 27 44
        ENV 2 0 0
        E 137 e0 7e 38
        ENV 2 0 0
        E 130 e0 4a 44
        ENV 2 0 0
        E 125 e0 5c 38
        ENV 2 0 0
        E 118 e0 6a 44
        ENV 2 0 0
        E 112 e0 3e 38
        ENV 2 0 0
        E 106 e0 06 45
        ENV 2 0 0
        E 100 e0 23 38
        ENV 2 0 0
        E 93 e0 20 45
        ENV 2 0 0
        E 87 e0 0b 38
        ENV 2 0 0
        E 81 e0 36 45
        ENV 2 0 0
        E 75 e0 77 37
        ENV 2 0 0
        E 69 e0 49 45
        ENV 2 0 0
        E 62 e0 65 37
        ENV 2 0 0
        E 57 e0 58 45
        ENV 2 0 0
        E 50 e0 57 37
        E 10 80 41 00
        e 0 90 4a 6e
        e 858 e0 57 43
        ENV 2 0 0
        e 162 e0 4b 39
        ENV 2 0 0
        e 156 e0 00 44
        ENV 2 0 0
        e 149 e0 22 39
        ENV 2 0 0
        e 143 e0 27 44
        ENV 2 0 0
        e 137 e0 7e 38
        ENV 2 0 0
        e 130 e0 4a 44
        ENV 2 0 0
        e 125 e0 5c 38
        ENV 2 0 0
        e 118 e0 6a 44
        ENV 2 0 0
        e 112 e0 3e 38
        ENV 2 0 0
        e 106 e0 06 45
        ENV 2 0 0
        e 100 e0 23 38
        ENV 2 0 0
        e 93 e0 20 45
        ENV 2 0 0
        e 87 e0 0b 38
        ENV 2 0 0
        e 81 e0 36 45
        ENV 2 0 0
        e 75 e0 77 37
        ENV 2 0 0
        e 69 e0 49 45
        ENV 2 0 0
        e 62 e0 65 37
        ENV 2 0 0
        e 57 e0 58 45
        ENV 2 0 0
        e 50 e0 57 37
        ENV 2 0 0
        e 10 e0 14 3b
        ENV 2 0 0
        e 0 80 4a 00
        e 0 90 48 6e
        e 150 e0 79 42
        ENV 2 0 0
        e 186 e0 24 3a
        ENV 2 0 0
        e 180 e0 2a 43
        ENV 2 0 0
        e 175 e0 76 39
        ENV 2 0 0
        e 167 e0 57 43
        ENV 2 0 0
        e 162 e0 4b 39
        ENV 2 0 0
        e 156 e0 00 44
        ENV 2 0 0
        e 149 e0 22 39
        ENV 2 0 0
        e 143 e0 27 44
        ENV 2 0 0
        e 137 e0 7e 38
        ENV 2 0 0
        e 130 e0 4a 44
        ENV 2 0 0
        e 125 e0 5c 38
        ENV 2 0 0
        e 118 e0 6a 44
        ENV 2 0 0
        e 112 e0 3e 38
        ENV 2 0 0
        e 106 e0 06 45
        ENV 2 0 0
        e 100 e0 23 38
        ENV 2 0 0
        e 93 e0 20 45
        ENV 2 0 0
        e 87 e0 0b 38
        ENV 2 0 0
        e 81 e0 36 45
        ENV 2 0 0
        e 75 e0 77 37
        ENV 2 0 0
        e 69 e0 49 45
        ENV 2 0 0
        e 62 e0 65 37
        ENV 2 0 0
        e 57 e0 58 45
        ENV 2 0 0
        e 50 e0 57 37
        ENV 2 0 0
        e 10 e0 14 3b
        ENV 2 0 0
        e 0 80 48 00
        e 0 90 43 6e
        e 150 e0 79 42
        ENV 2 0 0
        e 186 e0 24 3a
        ENV 2 0 0
        e 180 e0 2a 43
        ENV 2 0 0
        e 175 e0 76 39
        ENV 2 0 0
        e 167 e0 57 43
        ENV 2 0 0
        e 162 e0 4b 39
        ENV 2 0 0
        e 156 e0 00 44
        ENV 2 0 0
        e 149 e0 22 39
        ENV 2 0 0
        e 143 e0 27 44
        ENV 2 0 0
        e 137 e0 7e 38
        ENV 2 0 0
        e 130 e0 4a 44
        ENV 2 0 0
        e 125 e0 5c 38
        ENV 2 0 0
        e 118 e0 6a 44
        ENV 2 0 0
        e 112 e0 3e 38
        ENV 2 0 0
        e 106 e0 06 45
        ENV 2 0 0
        e 100 e0 23 38
        ENV 2 0 0
        e 93 e0 20 45
        ENV 2 0 0
        e 87 e0 0b 38
        ENV 2 0 0
        e 81 e0 36 45
        ENV 2 0 0
        e 75 e0 77 37
        ENV 2 0 0
        e 69 e0 49 45
        ENV 2 0 0
        e 62 e0 65 37
        ENV 2 0 0
        e 57 e0 58 45
        ENV 2 0 0
        e 50 e0 57 37
        ENV 2 0 0
        e 10 e0 14 3b
        ENV 2 0 0
        e 0 80 43 00
        e 0 90 41 6e
        e 150 e0 79 42
        ENV 2 0 0
        e 186 e0 24 3a
        ENV 2 0 0
        e 180 e0 2a 43
        ENV 2 0 0
        e 175 e0 76 39
        ENV 2 0 0
        e 167 e0 57 43
        ENV 2 0 0
        e 162 e0 4b 39
        ENV 2 0 0
        e 156 e0 00 44
        ENV 2 0 0
        e 149 e0 22 39
        ENV 2 0 0
        e 143 e0 27 44
        ENV 2 0 0
        e 137 e0 7e 38
        ENV 2 0 0
        e 130 e0 4a 44
        ENV 2 0 0
        e 125 e0 5c 38
        ENV 2 0 0
        e 118 e0 6a 44
        ENV 2 0 0
        e 112 e0 3e 38
        ENV 2 0 0
        e 106 e0 06 45
        ENV 2 0 0
        e 100 e0 23 38
        ENV 2 0 0
        e 93 e0 20 45
        ENV 2 0 0
        e 87 e0 0b 38
        ENV 2 0 0
        e 81 e0 36 45
        ENV 2 0 0
        e 75 e0 77 37
        ENV 2 0 0
        e 69 e0 49 45
        ENV 2 0 0
        e 62 e0 65 37
        ENV 2 0 0
        e 57 e0 58 45
        ENV 2 0 0
        e 50 e0 57 37
        ENV 2 0 0
        e 10 80 41 00
        E 0 90 4a 6e
        E 858 e0 57 43
        ENV 2 0 0
        E 162 e0 4b 39
        ENV 2 0 0
        E 156 e0 00 44
        ENV 2 0 0
        E 149 e0 22 39
        ENV 2 0 0
        E 143 e0 27 44
        ENV 2 0 0
        E 137 e0 7e 38
        ENV 2 0 0
        E 130 e0 4a 44
        ENV 2 0 0
        E 125 e0 5c 38
        ENV 2 0 0
        E 118 e0 6a 44
        ENV 2 0 0
        E 112 e0 3e 38
        ENV 2 0 0
        E 106 e0 06 45
        ENV 2 0 0
        E 100 e0 23 38
        ENV 2 0 0
        E 93 e0 20 45
        ENV 2 0 0
        E 87 e0 0b 38
        ENV 2 0 0
        E 81 e0 36 45
        ENV 2 0 0
        E 75 e0 77 37
        ENV 2 0 0
        E 69 e0 49 45
        ENV 2 0 0
        E 62 e0 65 37
        ENV 2 0 0
        E 57 e0 58 45
        ENV 2 0 0
        E 50 e0 57 37
        ENV 2 0 0
        E 10 e0 14 3b
        ENV 2 0 0
        E 0 80 4a 00
        E 0 90 48 6e
        E 150 e0 79 42
        ENV 2 0 0
        E 186 e0 24 3a
        ENV 2 0 0
        E 180 e0 2a 43
        ENV 2 0 0
        E 175 e0 76 39
        ENV 2 0 0
        E 167 e0 57 43
        ENV 2 0 0
        E 162 e0 4b 39
        ENV 2 0 0
        E 156 e0 00 44
        ENV 2 0 0
        E 149 e0 22 39
        ENV 2 0 0
        E 143 e0 27 44
        ENV 2 0 0
        E 137 e0 7e 38
        ENV 2 0 0
        E 130 e0 4a 44
        ENV 2 0 0
        E 125 e0 5c 38
        ENV 2 0 0
        E 118 e0 6a 44
        ENV 2 0 0
        E 112 e0 3e 38
        ENV 2 0 0
        E 106 e0 06 45
        ENV 2 0 0
        E 100 e0 23 38
        ENV 2 0 0
        E 93 e0 20 45
        ENV 2 0 0
        E 87 e0 0b 38
        ENV 2 0 0
        E 81 e0 36 45
        ENV 2 0 0
        E 75 e0 77 37
        ENV 2 0 0
        E 69 e0 49 45
        ENV 2 0 0
        E 62 e0 65 37
        ENV 2 0 0
        E 57 e0 58 45
        ENV 2 0 0
        E 50 e0 57 37
        ENV 2 0 0
        E 10 e0 14 3b
        ENV 2 0 0
        E 0 80 48 00
        E 0 90 43 6e
        E 150 e0 79 42
        ENV 2 0 0
        E 186 e0 24 3a
        ENV 2 0 0
        E 180 e0 2a 43
        ENV 2 0 0
        E 175 e0 76 39
        ENV 2 0 0
        E 167 e0 57 43
        ENV 2 0 0
        E 162 e0 4b 39
        ENV 2 0 0
        E 156 e0 00 44
        ENV 2 0 0
        E 149 e0 22 39
        ENV 2 0 0
        E 143 e0 27 44
        ENV 2 0 0
        E 137 e0 7e 38
        ENV 2 0 0
        E 130 e0 4a 44
        ENV 2 0 0
        E 125 e0 5c 38
        ENV 2 0 0
        E 118 e0 6a 44
        ENV 2 0 0
        E 112 e0 3e 38
        ENV 2 0 0
        E 106 e0 06 45
        ENV 2 0 0
        E 100 e0 23 38
        ENV 2 0 0
        E 93 e0 20 45
        ENV 2 0 0
        E 87 e0 0b 38
        ENV 2 0 0
        E 81 e0 36 45
        ENV 2 0 0
        E 323 e0 25 49
        ENV 5 2 0.33
        E 2879 e0 7f 7f
        ENV 5 0 0
        E 1 e0 00 40
        ENV 5 0 0
        E 0 80 43 00
        E 0 b0 7b 00
        CCINTERP 32
        CHASE_CC_TAKEOFFS 1
        GUID {3EAD3BB6-8D7D-4334-A22A-96A4E7F3DC7C}
        IGNTEMPO 0 120 4 4
        SRCCOLOR 1590
        VELLANE 128 133 0
        VELLANE -2 108 108
        CFGEDITVIEW 75615.926595 0.012629 0 8 0 -1 0 0 0 0.5
        KEYSNAP 0
        TRACKSEL 252
        EVTFILTER 0 -1 -1 -1 -1 0 0 0 0 -1 -1 -1 -1 0 -1 0 -1 -1
        CFGEDIT 1 1 0 1 1 1 1 1 1 1 1 2 225 0 1672 739 0 1 0 0 0 0 0 1 0 0 0 0 1 64
      >
    >
    <ITEM
      POSITION 109.33333333333267
      SNAPOFFS 0
      LENGTH 21.33333326171389
      LOOP 0
      ALLTAKES 0
      FADEIN 1 0 0 1 0 0 0
      FADEOUT 1 0 0 1 0 0 0
      MUTE 0 0
      SEL 0
      IGUID {E164E60F-7FF7-45CA-B05A-527962DA28DF}
      IID 575
      NAME G4-6
      VOLPAN 1 0 1 -1
      SOFFS 0 0
      PLAYRATE 1 0 0 -1 0 0.0025
      CHANMODE 0
      GUID {E1CF19F5-0FBA-4AB3-A86D-1860B8D27E72}
      <SOURCE MIDI
        HASDATA 1 960 QN
        CCINTERP 32
        POOLEDEVTS {0F1EF64E-3D47-4848-BF4C-09059309412F}
        e 23040 90 4a 28
        e 480 80 4a 00
        e 0 90 32 28
        e 240 80 32 00
        e 0 90 45 28
        e 480 80 45 00
        e 0 90 40 28
        e 240 80 40 00
        e 0 90 3e 16
        e 480 80 3e 00
        e 0 90 48 28
        e 720 80 48 00
        e 0 90 3e 28
        e 240 80 3e 00
        e 0 90 45 28
        e 240 80 45 00
        e 0 90 40 28
        e 240 80 40 00
        e 9 90 4a 42
        e 443 80 4a 00
        e 32 90 45 01
        e 956 80 45 00
        e 0 90 3e 42
        e 240 80 3e 00
        e 0 90 47 28
        e 240 80 47 00
        e 0 90 40 28
        e 240 80 40 00
        e 0 90 3e 28
        e 240 80 3e 00
        e 0 90 42 28
        e 0 90 42 28
        e 240 80 42 00
        e 0 90 32 28
        e 10 80 42 00
        e 230 90 44 0d
        e 10 80 32 00
        e 224 80 44 00
        e 6 90 48 28
        e 240 80 48 00
        e 0 90 40 7f
        e 240 80 40 00
        e 0 90 45 13
        e 240 80 45 00
        e 0 90 47 7f
        em 0 90 45 2a
        e 240 80 47 00
        em 0 80 45 00
        e 0 90 32 13
        e 240 80 32 00
        E 0 b0 7b 00
        CCINTERP 32
        CHASE_CC_TAKEOFFS 1
        GUID {60631DE8-D88F-48A7-8437-E47A37ED5660}
        IGNTEMPO 0 120 4 4
        SRCCOLOR 1911
        VELLANE 167 285 0
        VELLANE -2 108 108
        CFGEDITVIEW -46080 0.016819 0 30 0 -1 0 0 0 0.5
        KEYSNAP 0
        TRACKSEL 252
        EVTFILTER 0 -1 -1 -1 -1 0 0 0 0 -1 -1 -1 -1 0 -1 0 -1 -1
        CFGEDIT 1 1 0 1 1 1 1 1 1 1 1 0.125 -1550 0 -103 739 0 1 0 0 0 0 0 1 0 0 0 0 1 64
      >
    >
    <ITEM
      POSITION 130.66666659504688
      SNAPOFFS 0
      LENGTH 21.33333340495278
      LOOP 0
      ALLTAKES 0
      FADEIN 1 0 0 1 0 0 0
      FADEOUT 1 0 0 1 0 0 0
      MUTE 0 0
      SEL 0
      IGUID {89D0215F-6D8E-4685-B854-7EF67D25F1B1}
      IID 768
      NAME G4-7
      VOLPAN 1 0 1 -1
      SOFFS 0 0
      PLAYRATE 1 1 0 -1 0 0.0025
      CHANMODE 0
      GUID {C1A79523-3B33-4518-9154-42950376259B}
      <SOURCE MIDI
        HASDATA 1 960 QN
        CCINTERP 32
        POOLEDEVTS {1B17AEC1-F871-43C3-9B63-477564169E40}
        e 0 90 45 28
        E 0 90 18 41
        E 240 80 18 00
        e 240 80 45 00
        e 0 90 3e 60
        e 240 80 3e 00
        e 0 90 4c 28
        e 480 80 4c 00
        e 0 90 42 28
        e 240 80 42 00
        e 0 90 4a 28
        e 480 80 4a 00
        e 0 90 4e 13
        e 480 80 4e 00
        e 0 90 32 09
        e 480 80 32 00
        e 0 90 48 19
        e 240 80 48 00
        e 0 90 40 28
        e 240 80 40 00
        e 0 90 51 28
        e 240 80 51 00
        e 0 90 42 28
        e 240 80 42 00
        e 0 90 56 07
        e 1200 80 56 00
        e 0 90 34 2d
        e 240 80 34 00
        e 0 90 4e 28
        e 240 80 4e 00
        e 0 90 45 28
        E 0 90 1b 5a
        e 240 80 45 00
        e 0 90 51 1c
        E 120 80 1b 00
        e 120 80 51 00
        em 0 90 34 28
        e 0 90 32 28
        e 240 80 32 00
        e 0 90 53 28
        em 2 80 34 00
        e 232 80 53 00
        e 6 90 4e 25
        e 240 80 4e 00
        e 0 90 4c 16
        e 240 80 4c 00
        e 0 90 4a 23
        e 240 80 4a 00
        e 0 90 48 28
        e 240 80 48 00
        e 0 90 32 23
        e 240 80 32 00
        e 14 90 51 14
        e 946 80 51 00
        e 0 90 32 0c
        e 240 80 32 00
        e 0 90 45 7f
        e 480 80 45 00
        e 0 90 34 28
        e 240 80 34 00
        e 0 90 53 19
        e 960 90 3e 01
        e 240 80 53 00
        e 0 80 3e 00
        e 0 90 42 28
        e 240 80 42 00
        Em 0 90 1c 5a
        e 0 90 47 3c
        e 240 80 47 00
        e 0 90 4c 22
        e 234 80 4c 00
        e 6 90 3e 22
        Em 480 80 1c 00
        e 0 80 3e 00
        e 0 90 4a 01
        E 960 90 1b 5a
        em 240 90 42 50
        e 240 80 4a 00
        E 0 80 1b 00
        em 0 80 42 00
        e 0 90 32 50
        E 120 90 18 41
        e 120 80 32 00
        e 0 90 4a 50
        e 240 80 4a 00
        e 0 90 40 1c
        E 120 80 18 00
        e 120 80 40 00
        e 0 90 56 24
        e 240 80 56 00
        e 0 90 34 50
        e 240 80 34 00
        e 0 90 4a 50
        e 240 80 4a 00
        e 0 90 32 50
        e 240 80 32 00
        e 0 90 47 50
        e 239 90 32 01
        e 1 80 47 00
        em 0 90 36 1f
        em 0 90 40 01
        em 0 90 44 08
        em 240 80 36 00
        em 0 80 40 00
        em 0 80 44 00
        e 239 80 32 00
        e 1 90 4a 01
        e 225 90 56 08
        e 15 80 4a 00
        e 225 80 56 00
        e 5 90 36 01
        e 240 80 36 00
        e 1 90 42 08
        e 240 80 42 00
        e 7 90 56 08
        e 216 90 34 01
        e 24 80 56 00
        e 216 80 34 00
        e 9 90 4a 08
        e 240 80 4a 00
        e 23 90 56 01
        e 240 80 56 00
        e 9 90 32 01
        E 225 90 1b 5a
        e 5 90 47 08
        e 10 80 32 00
        e 224 90 48 07
        e 6 80 47 00
        e 211 90 51 05
        e 23 80 48 00
        E 1 80 1b 00
        e 240 80 51 00
        e 15 90 4e 01
        e 240 80 4e 00
        e 9 90 4c 01
        E 576 90 1b 5a
        e 360 90 48 01
        e 24 80 4c 00
        E 96 80 1b 00
        e 360 80 48 00
        e 0 90 42 08
        e 240 80 42 00
        e 0 90 4e 08
        e 240 80 4e 00
        e 0 90 32 01
        E 0 90 1b 5a
        e 240 80 32 00
        e 0 90 4a 08
        E 240 80 1b 00
        e 0 80 4a 00
        e 0 90 4c 01
        e 240 80 4c 00
        e 0 90 32 01
        e 240 80 32 00
        e 0 90 48 08
        e 240 80 48 00
        e 0 90 3e 08
        e 240 80 3e 00
        e 0 90 45 08
        e 240 80 45 00
        e 0 90 42 01
        e 240 80 42 00
        e 0 90 3e 01
        e 240 80 3e 00
        e 0 90 40 01
        e 240 80 40 00
        e 0 90 4a 08
        e 240 80 4a 00
        e 0 90 3e 01
        e 240 80 3e 00
        e 0 90 48 08
        e 240 80 48 00
        e 0 90 40 01
        e 240 80 40 00
        e 0 90 56 08
        e 240 80 56 00
        e 0 90 34 01
        em 240 90 4c 08
        e 240 80 34 00
        em 0 80 4c 00
        e 0 90 36 01
        e 240 80 36 00
        e 0 90 4e 08
        e 240 80 4e 00
        e 0 90 40 01
        e 240 80 40 00
        e 0 90 51 08
        e 240 80 51 00
        e 0 90 32 01
        e 240 80 32 00
        e 0 90 53 08
        e 240 80 53 00
        e 0 90 40 01
        e 240 80 40 00
        e 0 90 32 01
        e 240 80 32 00
        e 0 90 56 18
        e 3840 80 56 00
        E 0 b0 7b 00
        CCINTERP 32
        CHASE_CC_TAKEOFFS 1
        GUID {489443A3-5D30-4E9B-BE68-2D3A253F89B9}
        IGNTEMPO 0 120 4 4
        SRCCOLOR 1672
        VELLANE 128 133 0
        VELLANE -2 108 108
        CFGEDITVIEW -2435.963238 0.016601 36 15 0 -1 0 0 0 0.5
        KEYSNAP 0
        TRACKSEL 252
        EVTFILTER 0 -1 -1 -1 -1 0 0 0 0 -1 -1 -1 -1 0 -1 0 -1 -1
        CFGEDIT 1 1 0 1 1 1 1 1 1 1 1 0.125 209 -12 1656 727 0 0 0 0 0 0 0 1 0 0 0 0 1 64
      >
    >
    <ITEM
      POSITION 151.99999999999955
      SNAPOFFS 0
      LENGTH 21.33333340495255
      LOOP 0
      ALLTAKES 0
      FADEIN 1 0 0 1 0 0 0
      FADEOUT 1 0 0 1 0 0 0
      MUTE 0 0
      SEL 0
      IGUID {7171B4FB-6918-40A9-B625-DCFD92FECD98}
      IID 582
      NAME G4-8
      VOLPAN 1 0 1 -1
      SOFFS 0 0
      PLAYRATE 1 1 0 -1 0 0.0025
      CHANMODE 0
      GUID {8CC4A6CC-8A25-4C8F-A027-8C94BE9C1F5F}
      <SOURCE MIDI
        HASDATA 1 960 QN
        CCINTERP 32
        POOLEDEVTS {1C5AD777-4629-4A28-9DA5-3C86F4E38123}
        e 0 90 32 2c
        em 113 90 45 25
        e 7 80 32 00
        e 0 90 42 27
        em 113 80 45 00
        e 7 80 42 00
        e 0 90 47 22
        e 115 90 4a 19
        e 5 80 47 00
        e 115 80 4a 00
        e 5 90 4c 21
        e 120 80 4c 00
        e 1 90 4e 2b
        e 119 90 51 0a
        e 1 80 4e 00
        e 119 80 51 00
        e 4 90 53 29
        e 120 80 53 00
        e 13 90 56 17
        e 111 90 54 21
        e 9 80 56 00
        e 111 80 54 00
        e 9 90 53 19
        e 103 80 53 00
        e 0 90 4e 21
        e 107 80 4e 00
        e 17 90 4c 1e
        e 107 80 4c 00
        e 9 90 4e 24
        e 120 80 4e 00
        e 13 90 51 26
        e 107 80 51 00
        e 0 90 56 2a
        e 103 80 56 00
        e 23 90 56 12
        e 86 80 56 00
        e 35 90 56 42
        e 220 90 53 29
        e 13 80 56 00
        e 107 80 53 00
        e 13 90 56 17
        e 111 90 54 21
        e 9 80 56 00
        e 111 80 54 00
        e 9 90 53 19
        e 103 80 53 00
        e 17 90 51 19
        e 103 80 51 00
        e 17 90 54 2a
        e 120 80 54 00
        e 0 90 56 12
        e 120 80 56 00
        e 7 90 54 42
        e 353 80 54 00
        e 0 90 53 17
        e 111 90 54 21
        e 9 80 53 00
        e 111 80 54 00
        e 9 90 53 19
        e 103 80 53 00
        e 17 90 4e 01
        e 960 80 4e 00
        e 0 90 53 17
        e 111 90 54 21
        e 9 80 53 00
        e 111 80 54 00
        e 9 90 53 19
        e 103 80 53 00
        e 137 90 51 17
        e 80 80 51 00
        e 31 90 53 21
        e 80 80 53 00
        e 49 90 51 19
        e 63 80 51 00
        e 177 90 4c 01
        e 480 80 4c 00
        e 0 90 51 01
        e 120 80 51 00
        e 0 90 54 1f
        e 120 80 54 00
        e 0 90 51 1c
        e 120 80 51 00
        e 6 90 53 29
        e 114 90 51 21
        e 6 80 53 00
        e 114 80 51 00
        e 0 90 4e 26
        e 120 80 4e 00
        e 10 90 42 1c
        e 110 90 4c 24
        e 10 80 42 00
        e 110 80 4c 00
        e 17 90 53 24
        e 94 80 53 00
        e 9 90 4a 22
        e 120 80 4a 00
        e 8 90 47 1a
        e 104 80 47 00
        e 8 90 45 1e
        e 120 80 45 00
        e 0 90 32 21
        e 960 80 32 00
        e 0 90 53 21
        e 240 80 53 00
        e 0 90 54 21
        e 240 80 54 00
        e 0 90 53 21
        e 240 80 53 00
        e 0 90 54 21
        e 0 90 48 21
        e 240 80 54 00
        e 0 80 48 00
        e 0 90 56 21
        e 960 80 56 00
        e 0 90 51 21
        e 960 80 51 00
        e 0 90 54 21
        e 960 80 54 00
        e 0 90 53 21
        e 240 80 53 00
        e 240 90 51 21
        e 240 80 51 00
        e 240 90 4f 21
        e 960 80 4f 00
        e 0 90 4c 36
        e 960 80 4c 00
        e 0 90 4e 06
        e 3840 80 4e 00
        e 0 90 4c 21
        e 3840 80 4c 00
        e 0 90 4a 09
        e 3840 90 56 01
        e 2880 80 4a 00
        e 0 90 4a 7f
        e 960 80 56 00
        e 0 80 4a 00
        E 0 b0 7b 00
        CCINTERP 32
        CHASE_CC_TAKEOFFS 1
        GUID {02C5999B-0FB6-48E0-8FB3-7C46326EB3E1}
        IGNTEMPO 0 120 4 4
        SRCCOLOR 1789
        VELLANE 128 133 0
        VELLANE -2 108 108
        CFGEDITVIEW -1330.028711 0.02983 43 15 0 -1 0 0 0 0.5
        KEYSNAP 0
        TRACKSEL 252
        EVTFILTER 0 -1 -1 -1 -1 0 0 0 0 -1 -1 -1 -1 0 -1 0 -1 -1
        CFGEDIT 1 1 0 1 1 1 1 1 1 1 1 0.125 209 -12 1656 727 0 0 0 0 0 0 0 1 0 0 0 0 1 64
      >
    >
    <ITEM
      POSITION 173.3333334049521
      SNAPOFFS 0
      LENGTH 32.00000000000452
      LOOP 0
      ALLTAKES 0
      FADEIN 1 0 0 1 0 0 0
      FADEOUT 1 0 0 1 0 0 0
      MUTE 0 0
      SEL 0
      IGUID {625665F1-EF9F-492F-AF90-53BFA1637B19}
      IID 570
      NAME G4-9
      VOLPAN 1 0 1 -1
      SOFFS 0 0
      PLAYRATE 1 1 0 -1 0 0.0025
      CHANMODE 0
      GUID {6EC340CD-6C5C-44C6-A29E-D7EF919613A4}
      <SOURCE MIDI
        HASDATA 1 960 QN
        CCINTERP 32
        POOLEDEVTS {E6E3E40F-A459-4A4D-A0CF-DCAD57FF43AF}
        E 0 e0 56 41
        ENV 2 0 0
        E 134 90 2d 7f
        E 3946 e0 63 42
        ENV 2 0 0
        E 120 e0 56 47 -4200
        ENV 2 0 0
        E 120 e0 28 38 -4320
        ENV 2 0 0
        E 120 e0 56 47 -4440
        ENV 2 0 0
        E 120 e0 28 38 -4560
        ENV 2 0 0
        E 120 e0 56 47 -4680
        ENV 2 0 0
        E 120 e0 28 38 -4800
        ENV 2 0 0
        E 120 e0 56 47 -4920
        ENV 2 0 0
        E 120 e0 28 38 -5040
        ENV 2 0 0
        E 120 e0 56 47 -5160
        ENV 2 0 0
        E 120 e0 28 38 -5280
        ENV 2 0 0
        E 120 e0 56 47 -5400
        ENV 2 0 0
        E 120 e0 28 38 -5520
        ENV 2 0 0
        E 120 e0 56 47 -5640
        ENV 2 0 0
        E 120 e0 28 38 -5760
        ENV 2 0 0
        E 120 e0 56 47 -5880
        ENV 2 0 0
        E 120 e0 28 38 -6000
        ENV 2 0 0
        E 120 e0 56 47 -6120
        ENV 2 0 0
        E 120 e0 28 38 -6240
        ENV 2 0 0
        E 120 e0 56 47 -6360
        ENV 2 0 0
        E 120 e0 28 38 -6480
        ENV 2 0 0
        E 120 e0 56 47 -6600
        ENV 2 0 0
        E 120 e0 28 38 -6720
        ENV 2 0 0
        E 120 e0 56 47 -6840
        ENV 2 0 0
        E 120 e0 28 38 -6960
        ENV 2 0 0
        E 720 e0 58 6e
        ENV 2 0 0
        E 0 80 2d 00
        E 28 90 48 78
        E 92 e0 00 40
        ENV 2 0 0
        E 124 e0 62 3a
        ENV 2 0 0
        E 119 e0 34 4b
        ENV 2 0 0
        E 118 e0 62 3a
        ENV 2 0 0
        E 119 e0 34 4b
        ENV 2 0 0
        E 118 e0 62 3a
        ENV 2 0 0
        E 119 e0 34 4b
        ENV 2 0 0
        E 120 e0 62 3a
        ENV 2 0 0
        E 3 e0 0c 43
        ENV 2 0 0
        E 118 e0 62 3a
        ENV 2 0 0
        E 117 e0 34 4b
        ENV 2 0 0
        E 118 e0 62 3a
        ENV 2 0 0
        E 119 e0 34 4b
        ENV 2 0 0
        E 118 e0 62 3a
        ENV 2 0 0
        E 119 e0 34 4b
        ENV 2 0 0
        E 118 e0 62 3a
        ENV 2 0 0
        E 119 e0 34 4b
        ENV 2 0 0
        E 120 e0 62 3a
        ENV 5 2 0.2266
        E 218 e0 6f 49
        ENV 5 2 0.2188
        E 119 e0 64 38
        ENV 2 0 0
        E 154 e0 44 4b
        ENV 2 0 0
        E 107 e0 56 37
        ENV 2 0 0
        E 120 e0 28 48
        ENV 2 0 0
        E 120 e0 56 37
        ENV 2 0 0
        E 120 e0 28 48
        ENV 2 0 0
        E 120 e0 56 37
        ENV 2 0 0
        E 121 e0 28 48
        ENV 2 0 0
        E 121 e0 56 37
        ENV 5 2 0.2578
        E 262 e0 49 48
        ENV 2 0 0
        E 232 e0 34 4b
        ENV 2 0 0
        E 118 e0 62 3a
        ENV 2 0 0
        E 119 e0 34 4b
        ENV 2 0 0
        E 120 e0 62 3a
        ENV 5 2 0.2266
        E 218 e0 6f 49
        ENV 5 2 0.2188
        E 119 e0 64 38
        ENV 2 0 0
        E 154 e0 44 4b
        ENV 2 0 0
        E 107 e0 56 37
        ENV 2 0 0
        E 120 e0 28 48
        ENV 2 0 0
        E 120 e0 56 37
        ENV 2 0 0
        E 120 e0 28 48
        ENV 2 0 0
        E 120 e0 56 37
        ENV 2 0 0
        E 121 e0 28 48
        ENV 2 0 0
        E 121 e0 56 37
        ENV 5 2 0.2578
        E 224 e0 5e 49
        ENV 2 0 0
        E 118 e0 0c 39
        ENV 2 0 0
        E 119 e0 5e 49
        ENV 2 0 0
        E 120 e0 0c 39
        ENV 5 2 0.2266
        E 218 e0 19 48
        ENV 5 2 0.2188
        E 119 e0 0e 37
        ENV 2 0 0
        E 1245 e0 55 6a
        ENV 5 2 0.2598
        E 0 90 4a 20
        E 27 e0 00 40
        ENV 2 0 0
        E 62 80 48 00
        E 498 e0 00 40
        ENV 2 0 0
        E 160 e0 28 48
        ENV 2 0 0
        E 121 e0 56 37
        ENV 2 0 0
        E 122 e0 28 48
        ENV 2 0 0
        E 121 e0 56 37
        ENV 2 0 0
        E 122 e0 28 48
        ENV 2 0 0
        E 123 e0 56 37
        ENV 2 0 0
        E 122 e0 28 48
        ENV 2 0 0
        E 122 e0 56 37
        ENV 2 0 0
        E 123 e0 28 48
        ENV 2 0 0
        E 123 e0 56 37
        ENV 2 0 0
        E 123 e0 28 48
        ENV 2 0 0
        E 123 e0 56 37
        ENV 2 0 0
        E 124 e0 28 48
        ENV 2 0 0
        E 123 e0 56 37
        ENV 2 0 0
        E 124 e0 28 48
        ENV 2 0 0
        E 124 e0 56 37
        ENV 2 0 0
        E 125 e0 28 48
        ENV 2 0 0
        E 48 e0 14 43
        ENV 2 0 0
        E 76 e0 56 37
        ENV 2 0 0
        E 66 e0 56 37
        ENV 2 0 0
        E 59 e0 28 48
        ENV 2 0 0
        E 62 e0 28 48
        ENV 2 0 0
        E 121 e0 56 37
        ENV 2 0 0
        E 120 e0 28 48
        ENV 2 0 0
        E 121 e0 56 37
        ENV 2 0 0
        E 122 e0 28 48
        ENV 2 0 0
        E 121 e0 56 37
        ENV 2 0 0
        E 177 e0 00 40
        ENV 2 0 0
        E 35 e0 00 40
        ENV 2 0 0
        E 160 e0 28 48
        ENV 2 0 0
        E 121 e0 56 37
        ENV 2 0 0
        E 122 e0 28 48
        ENV 2 0 0
        E 121 e0 56 37
        ENV 2 0 0
        E 122 e0 28 48
        ENV 2 0 0
        E 123 e0 56 37
        ENV 2 0 0
        E 122 e0 28 48
        ENV 2 0 0
        E 122 e0 56 37
        ENV 2 0 0
        E 123 e0 28 48
        ENV 2 0 0
        E 123 e0 56 37
        ENV 2 0 0
        E 123 e0 28 48
        ENV 2 0 0
        E 123 e0 56 37
        ENV 2 0 0
        E 124 e0 28 48
        ENV 2 0 0
        E 123 e0 56 37
        ENV 2 0 0
        E 124 e0 28 48
        ENV 2 0 0
        E 124 e0 56 37
        ENV 2 0 0
        E 125 e0 28 48
        ENV 2 0 0
        E 48 e0 14 43
        ENV 2 0 0
        E 76 e0 56 37
        ENV 2 0 0
        E 66 e0 56 37
        ENV 2 0 0
        E 59 e0 28 48
        ENV 2 0 0
        E 62 e0 28 48
        ENV 2 0 0
        E 121 e0 56 37
        ENV 2 0 0
        E 120 e0 28 48
        ENV 2 0 0
        E 121 e0 56 37
        ENV 2 0 0
        E 122 e0 28 48
        ENV 2 0 0
        E 121 e0 56 37
        ENV 2 0 0
        E 799 80 4a 00
        E 0 90 4a 72
        E 636 e0 00 40
        ENV 2 0 0
        E 84 90 32 7f
        Em 0 90 60 0b
        Em 120 80 60 00
        Em 0 90 5f 0b
        Em 45 e0 3d 47
        ENV 2 0 0
        Em 75 80 5f 00
        Em 0 90 60 0b
        Em 48 e0 6b 36
        ENV 2 0 0
        Em 72 80 60 00
        Em 0 90 5f 0b
        Em 52 e0 3d 47
        ENV 2 0 0
        Em 68 80 5f 00
        Em 0 90 60 0b
        Em 55 e0 6b 36
        ENV 2 0 0
        Em 65 80 60 00
        E 0 90 5f 0b
        E 59 e0 3d 47
        ENV 2 0 0
        E 61 80 5f 00
        E 0 90 60 0b
        E 63 e0 6b 36
        ENV 2 0 0
        E 57 80 60 00
        E 0 90 5f 0b
        Em 68 e0 3d 47
        ENV 2 0 0
        E 52 80 5f 00
        E 0 90 60 0b
        Em 72 e0 6b 36
        ENV 2 0 0
        E 48 80 60 00
        E 0 90 5f 0b
        Em 77 e0 3d 47
        ENV 2 0 0
        E 43 80 5f 00
        E 0 90 60 0b
        E 116 e0 6b 36
        ENV 2 0 0
        E 4 80 60 00
        E 0 90 5f 0b
        E 119 e0 3d 47
        ENV 2 0 0
        E 1 80 5f 00
        E 0 90 60 0b
        E 120 80 60 00
        E 0 90 5f 0b
        E 2 e0 6b 36
        ENV 2 0 0
        E 118 80 5f 00
        E 0 90 60 0b
        E 6 e0 3d 47
        ENV 2 0 0
        E 114 80 60 00
        E 0 90 5f 0b
        E 9 e0 6b 36
        ENV 2 0 0
        E 111 80 5f 00
        E 0 90 60 0b
        E 13 e0 3d 47
        ENV 2 0 0
        E 107 80 60 00
        E 0 90 5f 0b
        E 17 e0 6b 36
        ENV 2 0 0
        E 103 80 5f 00
        E 0 90 60 0b
        Em 22 e0 3d 47
        ENV 2 0 0
        E 98 80 60 00
        E 0 90 5f 0b
        Em 26 e0 6b 36
        ENV 2 0 0
        E 94 80 5f 00
        E 0 90 60 0b
        E 31 e0 6b 36
        ENV 2 0 0
        E 89 80 60 00
        E 0 90 5f 0b
        E 34 e0 3d 47
        ENV 2 0 0
        E 86 80 5f 00
        E 0 90 60 0b
        E 37 e0 6b 36
        ENV 2 0 0
        E 83 80 60 00
        E 0 90 5f 0b
        E 41 e0 3d 47
        ENV 2 0 0
        E 79 80 5f 00
        E 0 90 60 0b
        E 44 e0 6b 36
        ENV 2 0 0
        E 76 80 60 00
        E 0 90 5f 0b
        E 48 e0 3d 47
        ENV 2 0 0
        E 72 80 5f 00
        E 0 90 60 0b
        e 52 e0 6b 36
        ENV 2 0 0
        E 68 80 60 00
        E 0 90 5f 0b
        em 57 e0 3d 47
        ENV 2 0 0
        E 63 80 5f 00
        E 0 90 60 0b
        em 61 e0 6b 36
        ENV 2 0 0
        E 59 80 60 00
        E 0 90 5f 0b
        e 66 e0 6b 36
        ENV 2 0 0
        E 54 80 5f 00
        E 0 90 60 0b
        e 69 e0 3d 47
        ENV 2 0 0
        E 51 80 60 00
        E 0 90 5f 0b
        e 72 e0 6b 36
        ENV 2 0 0
        E 48 80 5f 00
        E 0 90 60 0b
        e 76 e0 3d 47
        ENV 2 0 0
        E 44 80 60 00
        E 0 90 5f 0b
        e 79 e0 6b 36
        ENV 2 0 0
        E 41 80 5f 00
        E 0 90 60 0b
        e 83 e0 3d 47
        ENV 2 0 0
        E 37 80 60 00
        E 0 90 5f 0b
        e 87 e0 6b 36
        ENV 2 0 0
        E 33 80 5f 00
        E 0 90 60 0b
        em 92 e0 3d 47
        ENV 2 0 0
        E 28 80 60 00
        E 0 90 5f 0b
        em 96 e0 6b 36
        ENV 2 0 0
        E 24 80 5f 00
        E 0 90 60 0b
        e 101 e0 6b 36
        ENV 2 0 0
        E 19 80 60 00
        E 0 90 5f 0b
        e 104 e0 3d 47
        ENV 2 0 0
        E 16 80 5f 00
        E 0 90 60 0b
        e 107 e0 6b 36
        ENV 2 0 0
        E 13 80 60 00
        E 0 90 5f 0b
        e 111 e0 3d 47
        ENV 2 0 0
        E 9 80 5f 00
        E 0 90 60 0b
        e 114 e0 6b 36
        ENV 2 0 0
        E 6 80 60 00
        E 0 90 5f 0b
        e 118 e0 3d 47
        ENV 2 0 0
        E 2 80 5f 00
        E 0 90 60 0b
        E 120 80 60 00
        E 0 90 5f 0b
        e 2 e0 6b 36
        ENV 2 0 0
        E 118 80 5f 00
        E 0 90 60 0b
        em 7 e0 3d 47
        ENV 2 0 0
        E 113 80 60 00
        E 0 90 5f 0b
        em 11 e0 6b 36
        ENV 2 0 0
        E 109 80 5f 00
        E 0 90 60 0b
        em 16 e0 3d 47
        ENV 2 0 0
        E 104 80 60 00
        E 0 90 5f 0b
        E 120 80 5f 00
        E 0 90 60 0b
        E 120 80 4a 00
        E 0 80 60 00
        e 0 90 4a 7f
        E 0 90 5f 0b
        E 120 80 5f 00
        E 0 90 60 0b
        E 120 80 60 00
        E 0 90 5f 0b
        E 120 80 5f 00
        E 0 90 60 0b
        E 120 80 60 00
        E 0 90 5f 0b
        E 120 80 5f 00
        E 0 90 60 0b
        E 120 80 60 00
        E 0 90 5f 0b
        e 120 80 4a 00
        E 0 80 5f 00
        E 0 90 3e 13
        E 120 80 32 00
        E 5640 e0 6b 33 -36480
        ENV 2 0 0
        E 146 e0 13 4c -36626
        ENV 2 0 0
        E 152 e0 6b 33 -36778
        ENV 2 0 0
        E 156 e0 13 4c -36934
        ENV 2 0 0
        E 161 e0 6b 33 -37095
        ENV 2 0 0
        E 166 e0 13 4c -37261
        ENV 2 0 0
        E 170 e0 6b 33 -37431
        ENV 2 0 0
        E 176 e0 13 4c -37607
        ENV 2 0 0
        E 181 e0 6b 33 -37788
        ENV 2 0 0
        E 185 e0 13 4c -37973
        ENV 2 0 0
        E 190 e0 6b 33 -38163
        ENV 2 0 0
        E 195 e0 13 4c -38358
        ENV 2 0 0
        E 200 e0 6b 33 -38558
        ENV 2 0 0
        E 205 e0 13 4c -38763
        ENV 2 0 0
        E 209 e0 6b 33 -38972
        ENV 2 0 0
        E 215 e0 13 4c -39187
        ENV 2 0 0
        E 219 e0 6b 33 -39406
        ENV 2 0 0
        E 224 e0 13 4c -39630
        ENV 2 0 0
        E 229 e0 6b 33 -39859
        ENV 2 0 0
        E 234 e0 13 4c -40093
        ENV 2 0 0
        E 239 e0 6b 33 -40332
        ENV 2 0 0
        E 244 e0 13 4c -40576
        ENV 2 0 0
        E 248 e0 6b 33 -40824
        ENV 2 0 0
        E 254 e0 13 4c -41078
        ENV 2 0 0
        E 258 e0 6b 33 -41336
        ENV 2 0 0
        E 263 e0 13 4c -41599
        ENV 2 0 0
        E 268 e0 6b 33 -41867
        ENV 2 0 0
        E 273 e0 13 4c -42140
        ENV 2 0 0
        E 277 e0 6b 33 -42417
        ENV 2 0 0
        E 283 e0 13 4c -42700
        ENV 2 0 0
        E 287 e0 6b 33 -42987
        ENV 2 0 0
        E 293 e0 13 4c -43280
        ENV 2 0 0
        E 297 e0 6b 33 -43577
        ENV 2 0 0
        E 302 e0 13 4c -43879
        ENV 2 0 0
        E 307 e0 6b 33 -44186
        ENV 2 0 0
        E 311 e0 13 4c -44497
        ENV 2 0 0
        E 317 e0 6b 33 -44814
        ENV 2 0 0
        E 321 e0 13 4c -45135
        ENV 2 0 0
        E 326 e0 6b 33 -45461
        ENV 2 0 0
        E 332 e0 13 4c -45793
        ENV 2 0 0
        E 166 e0 11 3d -45959
        ENV 2 0 0
        E 121 80 3e 00
        E 0 b0 7b 00
        CCINTERP 32
        CHASE_CC_TAKEOFFS 1
        GUID {77885A71-9F02-4684-8FBF-D48B1BB0BA7E}
        IGNTEMPO 0 120 4 4
        SRCCOLOR 1254
        VELLANE 128 162 0
        VELLANE -2 108 108
        CFGEDITVIEW -2131.447616 0.018698 0 20 0 -1 0 0 0 0.5
        KEYSNAP 0
        TRACKSEL 252
        EVTFILTER 0 -1 -1 -1 -1 0 0 0 0 -1 -1 -1 -1 0 -1 0 -1 -1
        CFGEDIT 1 1 0 1 1 1 1 1 1 1 1 0.125 243 104 1674 1011 0 1 0 0 0 0 0 0 0 0 0 0 1 64
      >
    >
  >
  <TRACK {C23645F3-78A4-46EE-A88D-10593DE212C6}
    NAME Midi-G5
    PEAKCOL 25166079
    BEAT -1
    AUTOMODE 0
    VOLPAN 1.39288064923293 0 -1 -1 1
    MUTESOLO 0 0 0
    IPHASE 0
    PLAYOFFS 0 1
    ISBUS 2 -2
    BUSCOMP 0 0 0 0 0
    SHOWINMIX 0 0.6667 0.5 1 0.5 0 0 0
    FREEMODE 0
    SEL 0
    REC 0 4128 1 7 0 0 0
    VU 2
    MIDICTL -1 1
    TRACKHEIGHT 0 0 0 0 0 0
    INQ 0 0 0 0.5 100 0 0 100
    NCHAN 2
    FX 1
    TRACKID {C23645F3-78A4-46EE-A88D-10593DE212C6}
    PERF 0
    MIDIOUT -1
    <MIDINOTENAMES
      -1 0 -- 0 0
      -1 1 -- 0 1
      -1 2 -- 0 2
      -1 3 -- 0 3
      -1 4 -- 0 4
      -1 5 -- 0 5
      -1 6 -- 0 6
      -1 7 -- 0 7
      -1 8 -- 0 8
      -1 9 -- 0 9
      -1 10 -- 0 10
      -1 11 -- 0 11
      -1 12 -- 0 12
      -1 13 -- 0 13
      -1 14 -- 0 14
      -1 15 -- 0 15
      -1 16 -- 0 16
      -1 17 -- 0 17
      -1 18 -- 0 18
      -1 19 -- 0 19
      -1 20 -- 0 20
      -1 21 -- 0 21
      -1 22 -- 0 22
      -1 23 -- 0 23
      -1 24 Sustain 0 24
      -1 25 "Natural Harm" 0 25
      -1 26 "Palm Mute" 0 26
      -1 27 "Slide In&Out" 0 27
      -1 28 "Legato Slide" 0 28
      -1 29 HO/PO 0 29
      -1 30 "Slide Gtr" 0 30
      -1 31 "Force 6" 0 31
      -1 32 "Force 5" 0 32
      -1 33 "Force 4" 0 33
      -1 34 "Force 3" 0 34
      -1 35 "Force 2" 0 35
      -1 36 "Force 1" 0 36
      -1 37 "Capo Force" 0 37
      -1 38 D1 0 38
      -1 39 D#1 0 39
      -1 40 E1 0 40
      -1 41 F1 0 41
      -1 42 F#1 0 42
      -1 43 G1 0 43
      -1 44 G#1 0 44
      -1 45 A1 0 45
      -1 46 A#1 0 46
      -1 47 B1 0 47
      -1 48 C2 0 48
      -1 49 C#2 0 49
      -1 50 D2 0 50
      -1 51 D#2 0 51
      -1 52 E2 0 52
      -1 53 F2 0 53
      -1 54 F#2 0 54
      -1 55 G2 0 55
      -1 56 G#2 0 56
      -1 57 A2 0 57
      -1 58 A#2 0 58
      -1 59 B2 0 59
      -1 60 C3 0 60
      -1 61 C#3 0 61
      -1 62 D3 0 62
      -1 63 D#3 0 63
      -1 64 E3 0 64
      -1 65 F3 0 65
      -1 66 F#3 0 66
      -1 67 G3 0 67
      -1 68 G#3 0 68
      -1 69 A3 0 69
      -1 70 A#3 0 70
      -1 71 B3 0 71
      -1 72 C4 0 72
      -1 73 C#4 0 73
      -1 74 D4 0 74
      -1 75 D#4 0 75
      -1 76 E4 0 76
      -1 77 F4 0 77
      -1 78 F#4 0 78
      -1 79 G4 0 79
      -1 80 G#4 0 80
      -1 81 A4 0 81
      -1 82 A#4 0 82
      -1 83 B4 0 83
      -1 84 C5 0 84
      -1 85 C#5 0 85
      -1 86 D5 0 86
      -1 89 Scratch 0 89
      -1 90 Slap 0 90
      -1 91 Press 0 91
      -1 92 "Stroke Muting" 0 92
      -1 93 "Downstroke 1" 0 93
      -1 94 "Upstroke 1" 0 94
      -1 95 "Downstroke 2" 0 95
      -1 96 "Upstroke 2" 0 96
      -1 98 "Poly Repeater 1" 0 98
      -1 99 "Auto Legato Mode" 0 99
      -1 100 "Poly Repeater 2" 0 100
      -1 101 "Pick Scrape" 0 101
      -1 104 "Open String Toggle" 0 104
    >
    MAINSEND 1 0
    <FXCHAIN
      SHOW 0
      LASTSEL 0
      DOCKED 0
    >
    <ITEM
      POSITION 2.66666666666666
      SNAPOFFS 0
      LENGTH 10.66666666666666
      LOOP 0
      ALLTAKES 0
      FADEIN 1 0 0 1 0 0 0
      FADEOUT 1 0 0 1 0 0 0
      MUTE 0 0
      SEL 0
      IGUID {0BD45EBE-64B2-4430-A137-17556E27914F}
      IID 844
      NAME G5-1
      VOLPAN 1 0 1 -1
      SOFFS 0 0
      PLAYRATE 1 1 0 -1 0 0.0025
      CHANMODE 0
      GUID {30A0D25A-C1C5-4A21-89A7-5E118E31F38C}
      <SOURCE MIDI
        HASDATA 1 960 QN
        CCINTERP 32
        POOLEDEVTS {E21E3DE9-24E3-42AD-9825-FEC2DBBA1623}
        E 0 e0 2f 35
        ENV 2 0 0
        E 0 90 18 65
        E 65 e0 59 41 -65
        ENV 2 0 0
        E 71 e0 30 35 -136
        ENV 2 0 0
        E 76 e0 64 41 -212
        ENV 2 0 0
        E 82 e0 32 35 -294
        ENV 2 0 0
        E 87 e0 71 41 -381
        ENV 2 0 0
        E 39 80 18 00
        E 54 e0 33 35 -474
        ENV 2 0 0
        E 99 e0 00 42 -573
        ENV 2 0 0
        E 104 e0 35 35 -677
        ENV 2 0 0
        E 109 e0 10 42 -786
        ENV 2 0 0
        E 115 e0 37 35 -901
        ENV 2 0 0
        E 121 e0 22 42 -1022
        ENV 2 0 0
        E 126 e0 39 35 -1148
        ENV 2 0 0
        E 132 e0 36 42 -1280
        ENV 2 0 0
        E 138 e0 3b 35 -1418
        ENV 2 0 0
        E 142 e0 4c 42 -1560
        ENV 2 0 0
        E 149 e0 3e 35 -1709
        ENV 2 0 0
        E 154 e0 63 42 -1863
        ENV 2 0 0
        E 159 e0 40 35 -2022
        ENV 2 0 0
        E 165 e0 7c 42 -2187
        ENV 2 0 0
        E 171 e0 43 35 -2358
        ENV 2 0 0
        E 176 e0 17 43 -2534
        ENV 2 0 0
        E 182 e0 46 35 -2716
        ENV 2 0 0
        E 187 e0 33 43 -2903
        ENV 2 0 0
        E 193 e0 4a 35 -3096
        ENV 2 0 0
        E 198 e0 51 43 -3294
        ENV 2 0 0
        E 204 e0 4d 35 -3498
        ENV 2 0 0
        E 210 e0 71 43 -3708
        ENV 2 0 0
        E 132 90 4c 39
        E 83 e0 51 35 -3923
        ENV 2 0 0
        E 220 e0 12 44 -4143
        ENV 2 0 0
        E 227 e0 54 35 -4370
        ENV 2 0 0
        E 231 e0 35 44 -4601
        ENV 2 0 0
        E 237 e0 58 35 -4838
        ENV 2 0 0
        E 243 e0 5a 44 -5081
        ENV 2 0 0
        E 248 e0 5d 35 -5329
        ENV 2 0 0
        E 254 e0 01 45 -5583
        ENV 2 0 0
        E 260 e0 61 35 -5843
        ENV 2 0 0
        E 265 e0 29 45 -6108
        ENV 2 0 0
        E 270 e0 66 35 -6378
        ENV 2 0 0
        E 276 e0 53 45 -6654
        ENV 2 0 0
        E 282 e0 6a 35 -6936
        ENV 2 0 0
        E 287 e0 7f 45 -7223
        ENV 2 0 0
        E 293 e0 6f 35 -7516
        ENV 2 0 0
        e 298 e0 2c 46 -7814
        ENV 2 0 0
        e 304 e0 74 35 -8118
        ENV 2 0 0
        e 309 e0 5b 46 -8427
        ENV 2 0 0
        e 315 e0 7a 35 -8742
        ENV 2 0 0
        e 321 e0 0c 47 -9063
        ENV 2 0 0
        e 326 e0 7f 35 -9389
        ENV 2 0 0
        e 331 e0 3e 47 -9720
        ENV 2 0 0
        e 338 e0 05 36 -10058
        ENV 2 0 0
        e 342 e0 73 47 -10400
        ENV 2 0 0
        e 348 e0 0b 36 -10748
        ENV 2 0 0
        e 354 e0 29 48 -11102
        ENV 2 0 0
        e 360 e0 11 36 -11462
        ENV 2 0 0
        E 58 80 4c 00
        e 0 90 34 7f
        Em 0 90 4c 71
        e 306 e0 60 48 -11826
        ENV 2 0 0
        e 371 e0 17 36 -12197
        ENV 2 0 0
        e 376 e0 1a 49 -12573
        ENV 2 0 0
        e 381 e0 1e 36 -12954
        ENV 2 0 0
        e 387 e0 55 49 -13341
        ENV 2 0 0
        e 393 e0 24 36 -13734
        ENV 2 0 0
        e 398 e0 11 4a -14132
        ENV 2 0 0
        e 404 e0 2b 36 -14536
        ENV 2 0 0
        e 409 e0 50 4a -14945
        ENV 2 0 0
        e 414 e0 32 36 -15359
        ENV 2 0 0
        Em 1 80 4c 00
        e 5760 80 34 00
        E 0 b0 7b 00
        CCINTERP 32
        CHASE_CC_TAKEOFFS 1
        GUID {07CC7BC6-FCD7-439F-AFEF-7B5987E10CEB}
        IGNTEMPO 0 120 4 4
        SRCCOLOR 1761
        VELLANE 128 133 0
        VELLANE -2 108 108
        CFGEDITVIEW 183135.926595 0.012629 0 8 0 -1 0 0 0 0.5
        KEYSNAP 0
        TRACKSEL 252
        EVTFILTER 0 -1 -1 -1 -1 0 0 0 0 -1 -1 -1 -1 0 -1 0 -1 -1
        CFGEDIT 1 1 0 1 1 1 1 1 1 1 1 2 225 0 1672 739 0 1 0 0 0 0 0 1 0 0 0 0 1 64
      >
    >
    <ITEM
      POSITION 29.333333333333
      SNAPOFFS 0
      LENGTH 31.99999999999988
      LOOP 1
      ALLTAKES 0
      FADEIN 1 0 0 1 0 0 0
      FADEOUT 1 0 0 1 0 0 0
      MUTE 0 0
      SEL 0
      IGUID {01B73279-B770-4E68-892C-A94BD0F7CC7C}
      IID 845
      NAME G5-3
      VOLPAN 1 0 1 -1
      SOFFS 0 0
      PLAYRATE 1 1 0 -1 0 0.0025
      CHANMODE 0
      GUID {52088B21-CC93-4DB0-A1CB-97D43077FE45}
      <SOURCE MIDI
        HASDATA 1 960 QN
        CCINTERP 32
        POOLEDEVTS {58B515E6-6B16-46CB-BBA1-712108D2757D}
        e 0 e0 14 3b
        ENV 2 0 0
        E 0 90 18 7f
        e 5 90 4a 66
        e 145 e0 79 42
        ENV 2 0 0
        e 186 e0 24 3a
        ENV 2 0 0
        e 180 e0 2a 43
        ENV 2 0 0
        e 175 e0 76 39
        ENV 2 0 0
        E 33 80 18 00
        e 134 e0 57 43
        ENV 2 0 0
        e 162 e0 4b 39
        ENV 2 0 0
        e 156 e0 00 44
        ENV 2 0 0
        e 149 e0 22 39
        ENV 2 0 0
        e 143 e0 27 44
        ENV 2 0 0
        e 137 e0 7e 38
        ENV 2 0 0
        e 130 e0 4a 44
        ENV 2 0 0
        e 125 e0 5c 38
        ENV 2 0 0
        e 118 e0 6a 44
        ENV 2 0 0
        e 112 e0 3e 38
        ENV 2 0 0
        e 106 e0 06 45
        ENV 2 0 0
        e 100 e0 23 38
        ENV 2 0 0
        e 93 e0 20 45
        ENV 2 0 0
        e 87 e0 0b 38
        ENV 2 0 0
        e 81 e0 36 45
        ENV 2 0 0
        e 75 e0 77 37
        ENV 2 0 0
        e 69 e0 49 45
        ENV 2 0 0
        e 62 e0 65 37
        ENV 2 0 0
        e 57 e0 58 45
        ENV 2 0 0
        e 50 e0 57 37
        ENV 2 0 0
        e 10 e0 14 3b
        ENV 2 0 0
        e 5 80 4a 00
        e 1 90 48 6d
        e 144 e0 79 42
        ENV 2 0 0
        e 186 e0 24 3a
        ENV 2 0 0
        e 180 e0 2a 43
        ENV 2 0 0
        e 175 e0 76 39
        ENV 2 0 0
        e 167 e0 57 43
        ENV 2 0 0
        e 162 e0 4b 39
        ENV 2 0 0
        e 156 e0 00 44
        ENV 2 0 0
        e 149 e0 22 39
        ENV 2 0 0
        e 143 e0 27 44
        ENV 2 0 0
        e 137 e0 7e 38
        ENV 2 0 0
        e 130 e0 4a 44
        ENV 2 0 0
        e 125 e0 5c 38
        ENV 2 0 0
        e 118 e0 6a 44
        ENV 2 0 0
        e 112 e0 3e 38
        ENV 2 0 0
        e 106 e0 06 45
        ENV 2 0 0
        e 100 e0 23 38
        ENV 2 0 0
        e 93 e0 20 45
        ENV 2 0 0
        e 87 e0 0b 38
        ENV 2 0 0
        e 81 e0 36 45
        ENV 2 0 0
        e 75 e0 77 37
        ENV 2 0 0
        e 69 e0 49 45
        ENV 2 0 0
        e 62 e0 65 37
        ENV 2 0 0
        e 57 e0 58 45
        ENV 2 0 0
        e 50 e0 57 37
        ENV 2 0 0
        e 10 e0 14 3b
        ENV 2 0 0
        e 6 80 48 00
        e 3 90 43 66
        e 141 e0 79 42
        ENV 2 0 0
        e 186 e0 24 3a
        ENV 2 0 0
        e 180 e0 2a 43
        ENV 2 0 0
        e 175 e0 76 39
        ENV 2 0 0
        e 167 e0 57 43
        ENV 2 0 0
        e 162 e0 4b 39
        ENV 2 0 0
        e 156 e0 00 44
        ENV 2 0 0
        e 149 e0 22 39
        ENV 2 0 0
        e 143 e0 27 44
        ENV 2 0 0
        e 137 e0 7e 38
        ENV 2 0 0
        e 130 e0 4a 44
        ENV 2 0 0
        e 125 e0 5c 38
        ENV 2 0 0
        e 118 e0 6a 44
        ENV 2 0 0
        e 112 e0 3e 38
        ENV 2 0 0
        e 106 e0 06 45
        ENV 2 0 0
        e 100 e0 23 38
        ENV 2 0 0
        e 93 e0 20 45
        ENV 2 0 0
        e 87 e0 0b 38
        ENV 2 0 0
        e 81 e0 36 45
        ENV 2 0 0
        e 75 e0 77 37
        ENV 2 0 0
        e 69 e0 49 45
        ENV 2 0 0
        e 62 e0 65 37
        ENV 2 0 0
        e 57 e0 58 45
        ENV 2 0 0
        e 50 e0 57 37
        ENV 2 0 0
        e 9 90 41 77
        e 1 e0 14 3b
        ENV 2 0 0
        e 9 80 43 00
        e 141 e0 79 42
        ENV 2 0 0
        e 186 e0 24 3a
        ENV 2 0 0
        e 180 e0 2a 43
        ENV 2 0 0
        e 175 e0 76 39
        ENV 2 0 0
        e 167 e0 57 43
        ENV 2 0 0
        e 162 e0 4b 39
        ENV 2 0 0
        e 156 e0 00 44
        ENV 2 0 0
        e 149 e0 22 39
        ENV 2 0 0
        e 143 e0 27 44
        ENV 2 0 0
        e 137 e0 7e 38
        ENV 2 0 0
        e 130 e0 4a 44
        ENV 2 0 0
        e 125 e0 5c 38
        ENV 2 0 0
        e 118 e0 6a 44
        ENV 2 0 0
        e 112 e0 3e 38
        ENV 2 0 0
        e 106 e0 06 45
        ENV 2 0 0
        e 100 e0 23 38
        ENV 2 0 0
        e 93 e0 20 45
        ENV 2 0 0
        e 87 e0 0b 38
        ENV 2 0 0
        e 81 e0 36 45
        ENV 2 0 0
        e 75 e0 77 37
        ENV 2 0 0
        e 69 e0 49 45
        ENV 2 0 0
        e 62 e0 65 37
        ENV 2 0 0
        e 57 e0 58 45
        ENV 2 0 0
        e 50 e0 57 37
        ENV 2 0 0
        e 9 80 41 00
        e 5 90 4a 6e
        e 854 e0 57 43
        ENV 2 0 0
        e 162 e0 4b 39
        ENV 2 0 0
        e 156 e0 00 44
        ENV 2 0 0
        e 149 e0 22 39
        ENV 2 0 0
        e 143 e0 27 44
        ENV 2 0 0
        e 137 e0 7e 38
        ENV 2 0 0
        e 130 e0 4a 44
        ENV 2 0 0
        e 125 e0 5c 38
        ENV 2 0 0
        e 118 e0 6a 44
        ENV 2 0 0
        e 112 e0 3e 38
        ENV 2 0 0
        e 106 e0 06 45
        ENV 2 0 0
        e 100 e0 23 38
        ENV 2 0 0
        e 93 e0 20 45
        ENV 2 0 0
        e 87 e0 0b 38
        ENV 2 0 0
        e 81 e0 36 45
        ENV 2 0 0
        e 75 e0 77 37
        ENV 2 0 0
        e 69 e0 49 45
        ENV 2 0 0
        e 62 e0 65 37
        ENV 2 0 0
        e 57 e0 58 45
        ENV 2 0 0
        e 50 e0 57 37
        ENV 2 0 0
        e 10 e0 14 3b
        ENV 2 0 0
        e 0 90 48 70
        e 4 80 4a 00
        e 146 e0 79 42
        ENV 2 0 0
        e 186 e0 24 3a
        ENV 2 0 0
        e 180 e0 2a 43
        ENV 2 0 0
        e 175 e0 76 39
        ENV 2 0 0
        e 167 e0 57 43
        ENV 2 0 0
        e 162 e0 4b 39
        ENV 2 0 0
        e 156 e0 00 44
        ENV 2 0 0
        e 149 e0 22 39
        ENV 2 0 0
        e 143 e0 27 44
        ENV 2 0 0
        e 137 e0 7e 38
        ENV 2 0 0
        e 130 e0 4a 44
        ENV 2 0 0
        e 125 e0 5c 38
        ENV 2 0 0
        e 118 e0 6a 44
        ENV 2 0 0
        e 112 e0 3e 38
        ENV 2 0 0
        e 106 e0 06 45
        ENV 2 0 0
        e 100 e0 23 38
        ENV 2 0 0
        e 93 e0 20 45
        ENV 2 0 0
        e 87 e0 0b 38
        ENV 2 0 0
        e 81 e0 36 45
        ENV 2 0 0
        e 75 e0 77 37
        ENV 2 0 0
        e 69 e0 49 45
        ENV 2 0 0
        e 62 e0 65 37
        ENV 2 0 0
        e 57 e0 58 45
        ENV 2 0 0
        e 50 e0 57 37
        ENV 2 0 0
        e 10 e0 14 3b
        ENV 2 0 0
        e 0 80 48 00
        e 4 90 43 6e
        e 146 e0 79 42
        ENV 2 0 0
        e 186 e0 24 3a
        ENV 2 0 0
        e 180 e0 2a 43
        ENV 2 0 0
        e 175 e0 76 39
        ENV 2 0 0
        e 167 e0 57 43
        ENV 2 0 0
        e 162 e0 4b 39
        ENV 2 0 0
        e 156 e0 00 44
        ENV 2 0 0
        e 149 e0 22 39
        ENV 2 0 0
        e 143 e0 27 44
        ENV 2 0 0
        e 137 e0 7e 38
        ENV 2 0 0
        e 130 e0 4a 44
        ENV 2 0 0
        e 125 e0 5c 38
        ENV 2 0 0
        e 118 e0 6a 44
        ENV 2 0 0
        e 112 e0 3e 38
        ENV 2 0 0
        e 106 e0 06 45
        ENV 2 0 0
        e 100 e0 23 38
        ENV 2 0 0
        e 93 e0 20 45
        ENV 2 0 0
        e 87 e0 0b 38
        ENV 2 0 0
        e 81 e0 36 45
        ENV 2 0 0
        e 75 e0 77 37
        ENV 2 0 0
        e 69 e0 49 45
        ENV 2 0 0
        e 62 e0 65 37
        ENV 2 0 0
        e 57 e0 58 45
        ENV 2 0 0
        e 50 e0 57 37
        ENV 2 0 0
        e 10 e0 14 3b
        ENV 2 0 0
        e 4 80 43 00
        e 7 90 41 5d
        e 139 e0 79 42
        ENV 2 0 0
        e 186 e0 24 3a
        ENV 2 0 0
        e 180 e0 2a 43
        ENV 2 0 0
        e 175 e0 76 39
        ENV 2 0 0
        e 167 e0 57 43
        ENV 2 0 0
        e 162 e0 4b 39
        ENV 2 0 0
        e 156 e0 00 44
        ENV 2 0 0
        e 149 e0 22 39
        ENV 2 0 0
        e 143 e0 27 44
        ENV 2 0 0
        e 137 e0 7e 38
        ENV 2 0 0
        e 130 e0 4a 44
        ENV 2 0 0
        e 125 e0 5c 38
        ENV 2 0 0
        e 118 e0 6a 44
        ENV 2 0 0
        e 112 e0 3e 38
        ENV 2 0 0
        e 106 e0 06 45
        ENV 2 0 0
        e 100 e0 23 38
        ENV 2 0 0
        e 93 e0 20 45
        ENV 2 0 0
        e 87 e0 0b 38
        ENV 2 0 0
        e 81 e0 36 45
        ENV 2 0 0
        e 75 e0 77 37
        ENV 2 0 0
        e 69 e0 49 45
        ENV 2 0 0
        e 62 e0 65 37
        ENV 2 0 0
        e 57 e0 58 45
        ENV 2 0 0
        e 50 e0 57 37
        e 16 90 4a 6e
        e 5 80 41 00
        e 847 e0 57 43
        ENV 2 0 0
        e 162 e0 4b 39
        ENV 2 0 0
        e 156 e0 00 44
        ENV 2 0 0
        e 149 e0 22 39
        ENV 2 0 0
        e 143 e0 27 44
        ENV 2 0 0
        e 137 e0 7e 38
        ENV 2 0 0
        e 130 e0 4a 44
        ENV 2 0 0
        e 125 e0 5c 38
        ENV 2 0 0
        e 118 e0 6a 44
        ENV 2 0 0
        e 112 e0 3e 38
        ENV 2 0 0
        e 106 e0 06 45
        ENV 2 0 0
        e 100 e0 23 38
        ENV 2 0 0
        e 93 e0 20 45
        ENV 2 0 0
        e 87 e0 0b 38
        ENV 2 0 0
        e 81 e0 36 45
        ENV 2 0 0
        e 75 e0 77 37
        ENV 2 0 0
        e 69 e0 49 45
        ENV 2 0 0
        e 62 e0 65 37
        ENV 2 0 0
        e 57 e0 58 45
        ENV 2 0 0
        e 50 e0 57 37
        ENV 2 0 0
        e 7 90 48 6d
        e 3 e0 14 3b
        ENV 2 0 0
        e 6 80 4a 00
        e 144 e0 79 42
        ENV 2 0 0
        e 186 e0 24 3a
        ENV 2 0 0
        e 180 e0 2a 43
        ENV 2 0 0
        e 175 e0 76 39
        ENV 2 0 0
        e 167 e0 57 43
        ENV 2 0 0
        e 162 e0 4b 39
        ENV 2 0 0
        e 156 e0 00 44
        ENV 2 0 0
        e 149 e0 22 39
        ENV 2 0 0
        e 143 e0 27 44
        ENV 2 0 0
        e 137 e0 7e 38
        ENV 2 0 0
        e 130 e0 4a 44
        ENV 2 0 0
        e 125 e0 5c 38
        ENV 2 0 0
        e 118 e0 6a 44
        ENV 2 0 0
        e 112 e0 3e 38
        ENV 2 0 0
        e 106 e0 06 45
        ENV 2 0 0
        e 100 e0 23 38
        ENV 2 0 0
        e 93 e0 20 45
        ENV 2 0 0
        e 87 e0 0b 38
        ENV 2 0 0
        e 81 e0 36 45
        ENV 2 0 0
        e 75 e0 77 37
        ENV 2 0 0
        e 69 e0 49 45
        ENV 2 0 0
        e 62 e0 65 37
        ENV 2 0 0
        e 57 e0 58 45
        ENV 2 0 0
        e 50 e0 57 37
        ENV 2 0 0
        e 7 80 48 00
        e 0 90 43 72
        e 3 e0 14 3b
        ENV 2 0 0
        e 150 e0 79 42
        ENV 2 0 0
        e 186 e0 24 3a
        ENV 2 0 0
        e 180 e0 2a 43
        ENV 2 0 0
        e 175 e0 76 39
        ENV 2 0 0
        e 167 e0 57 43
        ENV 2 0 0
        e 162 e0 4b 39
        ENV 2 0 0
        e 156 e0 00 44
        ENV 2 0 0
        e 149 e0 22 39
        ENV 2 0 0
        e 143 e0 27 44
        ENV 2 0 0
        e 137 e0 7e 38
        ENV 2 0 0
        e 130 e0 4a 44
        ENV 2 0 0
        e 125 e0 5c 38
        ENV 2 0 0
        e 118 e0 6a 44
        ENV 2 0 0
        e 112 e0 3e 38
        ENV 2 0 0
        e 106 e0 06 45
        ENV 2 0 0
        e 100 e0 23 38
        ENV 2 0 0
        e 93 e0 20 45
        ENV 2 0 0
        e 87 e0 0b 38
        ENV 2 0 0
        e 81 e0 36 45
        ENV 2 0 0
        e 75 e0 77 37
        ENV 2 0 0
        e 69 e0 49 45
        ENV 2 0 0
        e 62 e0 65 37
        ENV 2 0 0
        e 57 e0 58 45
        ENV 2 0 0
        e 50 e0 57 37
        ENV 2 0 0
        e 7 80 43 00
        e 2 90 41 65
        e 1 e0 14 3b
        ENV 2 0 0
        e 150 e0 79 42
        ENV 2 0 0
        e 186 e0 24 3a
        ENV 2 0 0
        e 180 e0 2a 43
        ENV 2 0 0
        e 175 e0 76 39
        ENV 2 0 0
        e 167 e0 57 43
        ENV 2 0 0
        e 162 e0 4b 39
        ENV 2 0 0
        e 156 e0 00 44
        ENV 2 0 0
        e 149 e0 22 39
        ENV 2 0 0
        e 143 e0 27 44
        ENV 2 0 0
        e 137 e0 7e 38
        ENV 2 0 0
        e 130 e0 4a 44
        ENV 2 0 0
        e 125 e0 5c 38
        ENV 2 0 0
        e 118 e0 6a 44
        ENV 2 0 0
        e 112 e0 3e 38
        ENV 2 0 0
        e 106 e0 06 45
        ENV 2 0 0
        e 100 e0 23 38
        ENV 2 0 0
        e 93 e0 20 45
        ENV 2 0 0
        e 87 e0 0b 38
        ENV 2 0 0
        e 81 e0 36 45
        ENV 2 0 0
        e 75 e0 77 37
        ENV 2 0 0
        e 69 e0 49 45
        ENV 2 0 0
        e 62 e0 65 37
        ENV 2 0 0
        e 57 e0 58 45
        ENV 2 0 0
        e 50 e0 57 37
        ENV 2 0 0
        e 9 80 41 00
        e 14 90 4a 62
        e 845 e0 57 43
        ENV 2 0 0
        e 162 e0 4b 39
        ENV 2 0 0
        e 156 e0 00 44
        ENV 2 0 0
        e 149 e0 22 39
        ENV 2 0 0
        e 143 e0 27 44
        ENV 2 0 0
        e 137 e0 7e 38
        ENV 2 0 0
        e 130 e0 4a 44
        ENV 2 0 0
        e 125 e0 5c 38
        ENV 2 0 0
        e 118 e0 6a 44
        ENV 2 0 0
        e 112 e0 3e 38
        ENV 2 0 0
        e 106 e0 06 45
        ENV 2 0 0
        e 100 e0 23 38
        ENV 2 0 0
        e 93 e0 20 45
        ENV 2 0 0
        e 87 e0 0b 38
        ENV 2 0 0
        e 81 e0 36 45
        ENV 2 0 0
        e 75 e0 77 37
        ENV 2 0 0
        e 69 e0 49 45
        ENV 2 0 0
        e 62 e0 65 37
        ENV 2 0 0
        e 57 e0 58 45
        ENV 2 0 0
        e 50 e0 57 37
        ENV 2 0 0
        e 9 90 48 6e
        e 1 e0 14 3b
        ENV 2 0 0
        e 13 80 4a 00
        e 137 e0 79 42
        ENV 2 0 0
        e 186 e0 24 3a
        ENV 2 0 0
        e 180 e0 2a 43
        ENV 2 0 0
        e 175 e0 76 39
        ENV 2 0 0
        e 167 e0 57 43
        ENV 2 0 0
        e 162 e0 4b 39
        ENV 2 0 0
        e 156 e0 00 44
        ENV 2 0 0
        e 149 e0 22 39
        ENV 2 0 0
        e 143 e0 27 44
        ENV 2 0 0
        e 137 e0 7e 38
        ENV 2 0 0
        e 130 e0 4a 44
        ENV 2 0 0
        e 125 e0 5c 38
        ENV 2 0 0
        e 118 e0 6a 44
        ENV 2 0 0
        e 112 e0 3e 38
        ENV 2 0 0
        e 106 e0 06 45
        ENV 2 0 0
        e 100 e0 23 38
        ENV 2 0 0
        e 93 e0 20 45
        ENV 2 0 0
        e 87 e0 0b 38
        ENV 2 0 0
        e 81 e0 36 45
        ENV 2 0 0
        e 75 e0 77 37
        ENV 2 0 0
        e 69 e0 49 45
        ENV 2 0 0
        e 62 e0 65 37
        ENV 2 0 0
        e 57 e0 58 45
        ENV 2 0 0
        e 50 e0 57 37
        ENV 2 0 0
        e 9 80 48 00
        e 0 90 43 6a
        e 1 e0 14 3b
        ENV 2 0 0
        e 150 e0 79 42
        ENV 2 0 0
        e 186 e0 24 3a
        ENV 2 0 0
        e 180 e0 2a 43
        ENV 2 0 0
        e 175 e0 76 39
        ENV 2 0 0
        e 167 e0 57 43
        ENV 2 0 0
        e 162 e0 4b 39
        ENV 2 0 0
        e 156 e0 00 44
        ENV 2 0 0
        e 149 e0 22 39
        ENV 2 0 0
        e 143 e0 27 44
        ENV 2 0 0
        e 137 e0 7e 38
        ENV 2 0 0
        e 130 e0 4a 44
        ENV 2 0 0
        e 125 e0 5c 38
        ENV 2 0 0
        e 118 e0 6a 44
        ENV 2 0 0
        e 112 e0 3e 38
        ENV 2 0 0
        e 106 e0 06 45
        ENV 2 0 0
        e 100 e0 23 38
        ENV 2 0 0
        e 93 e0 20 45
        ENV 2 0 0
        e 87 e0 0b 38
        ENV 2 0 0
        e 81 e0 36 45
        ENV 2 0 0
        e 323 e0 25 49
        ENV 5 2 0.33
        e 2879 e0 7f 7f
        ENV 5 0 0
        e 0 80 43 00
        e 1 e0 00 40
        ENV 5 0 0
        E 0 b0 7b 00
        CCINTERP 32
        CHASE_CC_TAKEOFFS 1
        GUID {D105BA43-C0ED-4652-A866-F5B3D0BF3CAC}
        IGNTEMPO 0 120 4 4
        SRCCOLOR 1762
        VELLANE 167 133 0
        VELLANE -2 108 108
        CFGEDITVIEW -1382.4 0.029829 0 21 0 -1 0 0 0 0.5
        KEYSNAP 0
        TRACKSEL 252
        EVTFILTER 0 -1 -1 -1 -1 0 0 0 0 -1 -1 -1 -1 0 -1 0 -1 -1
        CFGEDIT 1 1 0 1 1 1 1 1 1 1 1 0.125 225 0 1672 739 0 1 0 0 0 0 0 1 0 0 0 0 1 64
      >
    >
    <ITEM
      POSITION 61.28424962761346
      SNAPOFFS 0
      LENGTH 15.99999999999979
      LOOP 1
      ALLTAKES 0
      FADEIN 1 0 0 1 0 0 0
      FADEOUT 1 0 0 1 0 0 0
      MUTE 0 0
      SEL 0
      IGUID {5DD7AE49-38DF-4F95-89F6-14AD62E6CE1A}
      IID 846
      NAME G5-4
      VOLPAN 1 0 1 -1
      SOFFS 0 0
      PLAYRATE 1 1 0 -1 0 0.0025
      CHANMODE 0
      GUID {4AEC0927-E68A-498C-81FB-88C8CAC813BD}
      <SOURCE MIDI
        HASDATA 1 960 QN
        CCINTERP 32
        POOLEDEVTS {670ED06E-3374-47DD-9DCC-B2D584B63710}
        e 71 e0 7b 7e
        ENV 2 0 0
        E 0 90 43 19
        E 240 90 18 60
        E 600 80 18 00
        E 1876 90 37 7f
        E 87 e0 00 40
        ENV 2 0 0
        E 6 e0 3d 34
        ENV 2 0 0
        E 0 80 43 00
        E 8 90 43 1a
        E 163 e0 41 4b -3051
        ENV 2 0 0
        E 169 e0 3d 34 -3220
        ENV 2 0 0
        E 168 e0 41 4b -3388
        ENV 2 0 0
        E 166 e0 3d 34 -3554
        ENV 2 0 0
        E 164 e0 41 4b -3718
        ENV 2 0 0
        E 163 e0 3d 34 -3881
        ENV 2 0 0
        E 162 e0 41 4b -4043
        ENV 2 0 0
        E 160 e0 3d 34 -4203
        ENV 2 0 0
        E 158 e0 41 4b -4361
        ENV 2 0 0
        E 157 e0 3d 34 -4518
        ENV 2 0 0
        E 155 e0 41 4b -4673
        ENV 2 0 0
        E 154 e0 3d 34 -4827
        ENV 2 0 0
        E 152 e0 41 4b -4979
        ENV 2 0 0
        E 150 e0 3d 34 -5129
        ENV 2 0 0
        E 149 e0 41 4b -5278
        ENV 2 0 0
        E 147 e0 3d 34 -5425
        ENV 2 0 0
        E 146 e0 41 4b -5571
        ENV 2 0 0
        E 144 e0 3d 34 -5715
        ENV 2 0 0
        E 143 e0 41 4b -5858
        ENV 2 0 0
        E 141 e0 3d 34 -5999
        ENV 2 0 0
        E 140 e0 41 4b -6139
        ENV 2 0 0
        E 138 e0 3d 34 -6277
        ENV 2 0 0
        E 323 e0 00 40
        ENV 2 0 0
        E 2036 80 43 00
        E 0 90 43 1a
        E 9 80 37 00
        E 0 90 37 7f
        E 2865 90 4a 77
        E 6 80 43 00
        E 4 e0 7f 7f
        ENV 2 0 0
        E 120 e0 00 40
        ENV 2 0 0
        E 125 80 37 00
        E 2035 e0 00 40
        ENV 2 0 0
        E 120 e0 35 31
        ENV 2 0 0
        E 120 e0 02 4b
        ENV 2 0 0
        E 120 e0 35 31
        ENV 2 0 0
        E 120 e0 02 4b
        ENV 2 0 0
        E 120 e0 35 31
        ENV 2 0 0
        E 120 e0 02 4b
        ENV 2 0 0
        E 120 e0 35 31
        ENV 2 0 0
        E 120 e0 02 4b
        ENV 2 0 0
        E 120 e0 35 31
        ENV 2 0 0
        E 120 e0 02 4b
        ENV 2 0 0
        E 120 e0 35 31
        ENV 2 0 0
        E 120 e0 02 4b
        ENV 2 0 0
        E 120 e0 35 31
        ENV 2 0 0
        E 120 e0 02 4b
        ENV 2 0 0
        E 120 e0 35 31
        ENV 2 0 0
        E 120 e0 02 4b
        ENV 2 0 0
        E 120 e0 35 31
        ENV 2 0 0
        E 120 e0 02 4b
        ENV 2 0 0
        E 120 e0 35 31
        ENV 2 0 0
        E 120 e0 02 4b
        ENV 2 0 0
        E 120 e0 35 31
        ENV 2 0 0
        E 120 e0 02 4b
        ENV 2 0 0
        E 120 e0 35 31
        ENV 2 0 0
        E 120 e0 02 4b
        ENV 2 0 0
        E 120 e0 35 31
        ENV 2 0 0
        E 120 e0 02 4b
        ENV 2 0 0
        E 120 e0 35 31
        ENV 2 0 0
        E 120 e0 02 4b
        ENV 2 0 0
        E 120 e0 35 31
        ENV 2 0 0
        E 120 e0 02 4b
        ENV 2 0 0
        E 120 e0 35 31
        ENV 2 0 0
        E 120 e0 02 4b
        ENV 2 0 0
        E 120 e0 35 31
        ENV 2 0 0
        E 120 e0 02 4b
        ENV 2 0 0
        E 120 e0 35 31
        ENV 2 0 0
        E 120 e0 02 4b
        ENV 2 0 0
        E 120 e0 35 31
        ENV 2 0 0
        E 120 e0 02 4b
        ENV 2 0 0
        E 120 e0 35 31
        ENV 2 0 0
        E 120 e0 02 4b
        ENV 2 0 0
        E 120 e0 35 31
        ENV 2 0 0
        E 120 e0 02 4b
        ENV 2 0 0
        E 120 e0 35 31
        ENV 2 0 0
        E 120 e0 02 4b
        ENV 2 0 0
        E 120 e0 35 31
        ENV 2 0 0
        E 120 e0 02 4b
        ENV 2 0 0
        E 120 e0 35 31
        ENV 2 0 0
        E 120 e0 02 4b
        ENV 2 0 0
        E 120 e0 35 31
        ENV 2 0 0
        E 120 e0 02 4b
        ENV 2 0 0
        E 120 e0 35 31
        ENV 2 0 0
        E 120 e0 02 4b
        ENV 2 0 0
        E 100 90 3e 7f
        E 20 e0 35 31
        ENV 2 0 0
        E 120 e0 02 4b
        ENV 2 0 0
        E 120 e0 35 31
        ENV 2 0 0
        E 120 e0 02 4b
        ENV 2 0 0
        E 120 e0 35 31
        ENV 2 0 0
        E 120 e0 02 4b
        ENV 2 0 0
        E 120 e0 35 31
        ENV 2 0 0
        E 120 e0 02 4b
        ENV 2 0 0
        E 120 e0 35 31
        ENV 2 0 0
        E 120 e0 02 4b
        ENV 2 0 0
        E 120 e0 35 31
        ENV 2 0 0
        E 120 e0 02 4b
        ENV 2 0 0
        E 120 e0 35 31
        ENV 2 0 0
        E 120 e0 02 4b
        ENV 2 0 0
        E 120 e0 35 31
        ENV 2 0 0
        E 120 e0 02 4b
        ENV 2 0 0
        E 120 e0 35 31
        ENV 2 0 0
        E 120 e0 02 4b
        ENV 2 0 0
        E 120 e0 35 31
        ENV 2 0 0
        E 120 e0 02 4b
        ENV 2 0 0
        E 120 e0 35 31
        ENV 2 0 0
        E 120 e0 02 4b
        ENV 2 0 0
        E 120 e0 35 31
        ENV 2 0 0
        E 120 e0 02 4b
        ENV 2 0 0
        E 100 80 3e 00
        E 19 e0 35 31
        ENV 2 0 0
        E 99 e0 45 4c
        ENV 2 0 0
        E 12 80 4a 00
        E 129 e0 3d 34
        ENV 2 0 0
        E 140 e0 41 4b
        ENV 2 0 0
        E 138 e0 3d 34
        ENV 2 0 0
        E 136 e0 41 4b
        ENV 2 0 0
        E 135 e0 3d 34
        ENV 2 0 0
        E 133 e0 41 4b
        ENV 2 0 0
        E 132 e0 3d 34
        ENV 2 0 0
        E 130 e0 41 4b
        ENV 2 0 0
        E 129 e0 3d 34
        ENV 2 0 0
        E 127 e0 41 4b
        ENV 2 0 0
        E 125 e0 3d 34
        ENV 2 0 0
        E 124 e0 41 4b
        ENV 2 0 0
        E 123 e0 3d 34
        ENV 2 0 0
        E 120 e0 41 4b
        ENV 2 0 0
        E 120 e0 3d 34
        ENV 2 0 0
        E 117 e0 41 4b
        ENV 2 0 0
        E 116 e0 3d 34
        ENV 2 0 0
        E 115 e0 41 4b
        ENV 2 0 0
        E 20641 b0 7b 00
        CCINTERP 32
        CHASE_CC_TAKEOFFS 1
        GUID {56418F55-D8C1-45A3-A9E9-9FA043836A9C}
        IGNTEMPO 0 120 4 4
        SRCCOLOR 1763
        VELLANE 167 133 0
        VELLANE 128 133 0
        VELLANE -2 108 108
        CFGEDITVIEW 3757.43972 0.443267 53 8 0 -1 0 0 0 0.5
        KEYSNAP 0
        TRACKSEL 252
        EVTFILTER 0 -1 -1 -1 -1 0 0 0 0 -1 -1 -1 -1 0 -1 0 -1 -1
        CFGEDIT 1 1 0 1 1 1 1 1 1 1 1 0.125 225 0 1672 739 0 0 0 0 0 0 0 1 0 0 0 0 1 64
      >
    >
    <ITEM
      POSITION 77.28424962761325
      SNAPOFFS 0
      LENGTH 32
      LOOP 0
      ALLTAKES 0
      FADEIN 1 0 0 1 0 0 0
      FADEOUT 1 0 0 1 0 0 0
      MUTE 0 0
      SEL 0
      IGUID {0F2EAEC7-5FD1-47F4-BD7E-DE0E54076BA7}
      IID 847
      NAME G5-5
      VOLPAN 1 0 1 -1
      SOFFS 0 0
      PLAYRATE 1 1 0 -1 0 0.0025
      CHANMODE 0
      GUID {A0F7B65E-5F58-4AA3-A2EC-FB2E56E79910}
      <SOURCE MIDI
        HASDATA 1 960 QN
        CCINTERP 32
        POOLEDEVTS {3E327381-7EE2-40F5-8CD8-80259B2951BF}
        E 0 e0 14 3b
        ENV 2 0 0
        E 0 90 4a 72
        E 4 90 18 78
        E 146 e0 79 42
        ENV 2 0 0
        E 186 e0 24 3a
        ENV 2 0 0
        E 180 e0 2a 43
        ENV 2 0 0
        E 175 e0 76 39
        ENV 2 0 0
        E 37 80 18 00
        E 130 e0 57 43
        ENV 2 0 0
        E 162 e0 4b 39
        ENV 2 0 0
        E 156 e0 00 44
        ENV 2 0 0
        E 149 e0 22 39
        ENV 2 0 0
        E 143 e0 27 44
        ENV 2 0 0
        E 137 e0 7e 38
        ENV 2 0 0
        E 130 e0 4a 44
        ENV 2 0 0
        E 125 e0 5c 38
        ENV 2 0 0
        E 118 e0 6a 44
        ENV 2 0 0
        E 112 e0 3e 38
        ENV 2 0 0
        E 106 e0 06 45
        ENV 2 0 0
        E 100 e0 23 38
        ENV 2 0 0
        E 93 e0 20 45
        ENV 2 0 0
        E 87 e0 0b 38
        ENV 2 0 0
        E 81 e0 36 45
        ENV 2 0 0
        E 75 e0 77 37
        ENV 2 0 0
        E 69 e0 49 45
        ENV 2 0 0
        E 62 e0 65 37
        ENV 2 0 0
        E 57 e0 58 45
        ENV 2 0 0
        E 46 90 48 6f
        E 4 e0 57 37
        ENV 2 0 0
        E 10 e0 14 3b
        ENV 2 0 0
        E 0 80 4a 00
        E 150 e0 79 42
        ENV 2 0 0
        E 186 e0 24 3a
        ENV 2 0 0
        E 180 e0 2a 43
        ENV 2 0 0
        E 175 e0 76 39
        ENV 2 0 0
        E 167 e0 57 43
        ENV 2 0 0
        E 162 e0 4b 39
        ENV 2 0 0
        E 156 e0 00 44
        ENV 2 0 0
        E 149 e0 22 39
        ENV 2 0 0
        E 143 e0 27 44
        ENV 2 0 0
        E 137 e0 7e 38
        ENV 2 0 0
        E 130 e0 4a 44
        ENV 2 0 0
        E 125 e0 5c 38
        ENV 2 0 0
        E 118 e0 6a 44
        ENV 2 0 0
        E 112 e0 3e 38
        ENV 2 0 0
        E 106 e0 06 45
        ENV 2 0 0
        E 100 e0 23 38
        ENV 2 0 0
        E 93 e0 20 45
        ENV 2 0 0
        E 87 e0 0b 38
        ENV 2 0 0
        E 81 e0 36 45
        ENV 2 0 0
        E 75 e0 77 37
        ENV 2 0 0
        E 69 e0 49 45
        ENV 2 0 0
        E 62 e0 65 37
        ENV 2 0 0
        E 57 e0 58 45
        ENV 2 0 0
        E 46 80 48 00
        E 4 e0 57 37
        ENV 2 0 0
        E 4 90 43 6a
        E 6 e0 14 3b
        ENV 2 0 0
        E 150 e0 79 42
        ENV 2 0 0
        E 186 e0 24 3a
        ENV 2 0 0
        E 180 e0 2a 43
        ENV 2 0 0
        E 175 e0 76 39
        ENV 2 0 0
        E 167 e0 57 43
        ENV 2 0 0
        E 162 e0 4b 39
        ENV 2 0 0
        E 156 e0 00 44
        ENV 2 0 0
        E 149 e0 22 39
        ENV 2 0 0
        E 143 e0 27 44
        ENV 2 0 0
        E 137 e0 7e 38
        ENV 2 0 0
        E 130 e0 4a 44
        ENV 2 0 0
        E 125 e0 5c 38
        ENV 2 0 0
        E 118 e0 6a 44
        ENV 2 0 0
        E 112 e0 3e 38
        ENV 2 0 0
        E 106 e0 06 45
        ENV 2 0 0
        E 100 e0 23 38
        ENV 2 0 0
        E 93 e0 20 45
        ENV 2 0 0
        E 87 e0 0b 38
        ENV 2 0 0
        E 81 e0 36 45
        ENV 2 0 0
        E 75 e0 77 37
        ENV 2 0 0
        E 69 e0 49 45
        ENV 2 0 0
        E 62 e0 65 37
        ENV 2 0 0
        E 57 e0 58 45
        ENV 2 0 0
        E 50 e0 57 37
        ENV 2 0 0
        E 4 80 43 00
        E 2 90 41 6f
        E 4 e0 14 3b
        ENV 2 0 0
        E 150 e0 79 42
        ENV 2 0 0
        E 186 e0 24 3a
        ENV 2 0 0
        E 180 e0 2a 43
        ENV 2 0 0
        E 175 e0 76 39
        ENV 2 0 0
        E 167 e0 57 43
        ENV 2 0 0
        E 162 e0 4b 39
        ENV 2 0 0
        E 156 e0 00 44
        ENV 2 0 0
        E 149 e0 22 39
        ENV 2 0 0
        E 143 e0 27 44
        ENV 2 0 0
        E 137 e0 7e 38
        ENV 2 0 0
        E 130 e0 4a 44
        ENV 2 0 0
        E 125 e0 5c 38
        ENV 2 0 0
        E 118 e0 6a 44
        ENV 2 0 0
        E 112 e0 3e 38
        ENV 2 0 0
        E 106 e0 06 45
        ENV 2 0 0
        E 100 e0 23 38
        ENV 2 0 0
        E 93 e0 20 45
        ENV 2 0 0
        E 87 e0 0b 38
        ENV 2 0 0
        E 81 e0 36 45
        ENV 2 0 0
        E 75 e0 77 37
        ENV 2 0 0
        E 69 e0 49 45
        ENV 2 0 0
        E 62 e0 65 37
        ENV 2 0 0
        E 57 e0 58 45
        ENV 2 0 0
        E 50 e0 57 37
        ENV 2 0 0
        E 6 80 41 00
        E 21 90 4a 62
        E 841 e0 57 43
        ENV 2 0 0
        E 162 e0 4b 39
        ENV 2 0 0
        E 156 e0 00 44
        ENV 2 0 0
        E 149 e0 22 39
        ENV 2 0 0
        E 143 e0 27 44
        ENV 2 0 0
        E 137 e0 7e 38
        ENV 2 0 0
        E 130 e0 4a 44
        ENV 2 0 0
        E 125 e0 5c 38
        ENV 2 0 0
        E 118 e0 6a 44
        ENV 2 0 0
        E 112 e0 3e 38
        ENV 2 0 0
        E 106 e0 06 45
        ENV 2 0 0
        E 100 e0 23 38
        ENV 2 0 0
        E 93 e0 20 45
        ENV 2 0 0
        E 87 e0 0b 38
        ENV 2 0 0
        E 81 e0 36 45
        ENV 2 0 0
        E 75 e0 77 37
        ENV 2 0 0
        E 69 e0 49 45
        ENV 2 0 0
        E 62 e0 65 37
        ENV 2 0 0
        E 57 e0 58 45
        ENV 2 0 0
        E 44 90 48 66
        E 6 e0 57 37
        ENV 2 0 0
        E 10 e0 14 3b
        ENV 2 0 0
        E 17 80 4a 00
        E 133 e0 79 42
        ENV 2 0 0
        E 186 e0 24 3a
        ENV 2 0 0
        E 180 e0 2a 43
        ENV 2 0 0
        E 175 e0 76 39
        ENV 2 0 0
        E 167 e0 57 43
        ENV 2 0 0
        E 162 e0 4b 39
        ENV 2 0 0
        E 156 e0 00 44
        ENV 2 0 0
        E 149 e0 22 39
        ENV 2 0 0
        E 143 e0 27 44
        ENV 2 0 0
        E 137 e0 7e 38
        ENV 2 0 0
        E 130 e0 4a 44
        ENV 2 0 0
        E 125 e0 5c 38
        ENV 2 0 0
        E 118 e0 6a 44
        ENV 2 0 0
        E 112 e0 3e 38
        ENV 2 0 0
        E 106 e0 06 45
        ENV 2 0 0
        E 100 e0 23 38
        ENV 2 0 0
        E 93 e0 20 45
        ENV 2 0 0
        E 87 e0 0b 38
        ENV 2 0 0
        E 81 e0 36 45
        ENV 2 0 0
        E 75 e0 77 37
        ENV 2 0 0
        E 69 e0 49 45
        ENV 2 0 0
        E 62 e0 65 37
        ENV 2 0 0
        E 57 e0 58 45
        ENV 2 0 0
        E 44 80 48 00
        E 6 e0 57 37
        ENV 2 0 0
        E 3 90 43 74
        E 7 e0 14 3b
        ENV 2 0 0
        E 150 e0 79 42
        ENV 2 0 0
        E 186 e0 24 3a
        ENV 2 0 0
        E 180 e0 2a 43
        ENV 2 0 0
        E 175 e0 76 39
        ENV 2 0 0
        E 167 e0 57 43
        ENV 2 0 0
        E 162 e0 4b 39
        ENV 2 0 0
        E 156 e0 00 44
        ENV 2 0 0
        E 149 e0 22 39
        ENV 2 0 0
        E 143 e0 27 44
        ENV 2 0 0
        E 137 e0 7e 38
        ENV 2 0 0
        E 130 e0 4a 44
        ENV 2 0 0
        E 125 e0 5c 38
        ENV 2 0 0
        E 118 e0 6a 44
        ENV 2 0 0
        E 112 e0 3e 38
        ENV 2 0 0
        E 106 e0 06 45
        ENV 2 0 0
        E 100 e0 23 38
        ENV 2 0 0
        E 93 e0 20 45
        ENV 2 0 0
        E 87 e0 0b 38
        ENV 2 0 0
        E 81 e0 36 45
        ENV 2 0 0
        E 75 e0 77 37
        ENV 2 0 0
        E 69 e0 49 45
        ENV 2 0 0
        E 62 e0 65 37
        ENV 2 0 0
        E 57 e0 58 45
        ENV 2 0 0
        E 50 e0 57 37
        ENV 2 0 0
        E 3 80 43 00
        E 2 90 41 6c
        E 5 e0 14 3b
        ENV 2 0 0
        E 150 e0 79 42
        ENV 2 0 0
        E 186 e0 24 3a
        ENV 2 0 0
        E 180 e0 2a 43
        ENV 2 0 0
        E 175 e0 76 39
        ENV 2 0 0
        E 167 e0 57 43
        ENV 2 0 0
        E 162 e0 4b 39
        ENV 2 0 0
        E 156 e0 00 44
        ENV 2 0 0
        E 149 e0 22 39
        ENV 2 0 0
        E 143 e0 27 44
        ENV 2 0 0
        E 137 e0 7e 38
        ENV 2 0 0
        E 130 e0 4a 44
        ENV 2 0 0
        E 125 e0 5c 38
        ENV 2 0 0
        E 118 e0 6a 44
        ENV 2 0 0
        E 112 e0 3e 38
        ENV 2 0 0
        E 106 e0 06 45
        ENV 2 0 0
        E 100 e0 23 38
        ENV 2 0 0
        E 93 e0 20 45
        ENV 2 0 0
        E 87 e0 0b 38
        ENV 2 0 0
        E 81 e0 36 45
        ENV 2 0 0
        E 75 e0 77 37
        ENV 2 0 0
        E 69 e0 49 45
        ENV 2 0 0
        E 62 e0 65 37
        ENV 2 0 0
        E 57 e0 58 45
        ENV 2 0 0
        E 50 e0 57 37
        E 5 80 41 00
        E 9 90 4a 62
        E 854 e0 57 43
        ENV 2 0 0
        E 162 e0 4b 39
        ENV 2 0 0
        E 156 e0 00 44
        ENV 2 0 0
        E 149 e0 22 39
        ENV 2 0 0
        E 143 e0 27 44
        ENV 2 0 0
        E 137 e0 7e 38
        ENV 2 0 0
        E 130 e0 4a 44
        ENV 2 0 0
        E 125 e0 5c 38
        ENV 2 0 0
        E 118 e0 6a 44
        ENV 2 0 0
        E 112 e0 3e 38
        ENV 2 0 0
        E 106 e0 06 45
        ENV 2 0 0
        E 100 e0 23 38
        ENV 2 0 0
        E 93 e0 20 45
        ENV 2 0 0
        E 87 e0 0b 38
        ENV 2 0 0
        E 81 e0 36 45
        ENV 2 0 0
        E 75 e0 77 37
        ENV 2 0 0
        E 69 e0 49 45
        ENV 2 0 0
        E 62 e0 65 37
        ENV 2 0 0
        E 57 e0 58 45
        ENV 2 0 0
        E 50 e0 57 37
        ENV 2 0 0
        E 10 e0 14 3b
        ENV 2 0 0
        E 4 80 4a 00
        E 6 90 48 7a
        E 140 e0 79 42
        ENV 2 0 0
        E 186 e0 24 3a
        ENV 2 0 0
        E 180 e0 2a 43
        ENV 2 0 0
        E 175 e0 76 39
        ENV 2 0 0
        E 167 e0 57 43
        ENV 2 0 0
        E 162 e0 4b 39
        ENV 2 0 0
        E 156 e0 00 44
        ENV 2 0 0
        E 149 e0 22 39
        ENV 2 0 0
        E 143 e0 27 44
        ENV 2 0 0
        E 137 e0 7e 38
        ENV 2 0 0
        E 130 e0 4a 44
        ENV 2 0 0
        E 125 e0 5c 38
        ENV 2 0 0
        E 118 e0 6a 44
        ENV 2 0 0
        E 112 e0 3e 38
        ENV 2 0 0
        E 106 e0 06 45
        ENV 2 0 0
        E 100 e0 23 38
        ENV 2 0 0
        E 93 e0 20 45
        ENV 2 0 0
        E 87 e0 0b 38
        ENV 2 0 0
        E 81 e0 36 45
        ENV 2 0 0
        E 75 e0 77 37
        ENV 2 0 0
        E 69 e0 49 45
        ENV 2 0 0
        E 62 e0 65 37
        ENV 2 0 0
        E 57 e0 58 45
        ENV 2 0 0
        E 50 e0 57 37
        ENV 2 0 0
        E 9 90 43 74
        E 1 e0 14 3b
        ENV 2 0 0
        E 10 80 48 00
        E 140 e0 79 42
        ENV 2 0 0
        E 186 e0 24 3a
        ENV 2 0 0
        E 180 e0 2a 43
        ENV 2 0 0
        E 175 e0 76 39
        ENV 2 0 0
        E 167 e0 57 43
        ENV 2 0 0
        E 162 e0 4b 39
        ENV 2 0 0
        E 156 e0 00 44
        ENV 2 0 0
        E 149 e0 22 39
        ENV 2 0 0
        E 143 e0 27 44
        ENV 2 0 0
        E 137 e0 7e 38
        ENV 2 0 0
        E 130 e0 4a 44
        ENV 2 0 0
        E 125 e0 5c 38
        ENV 2 0 0
        E 118 e0 6a 44
        ENV 2 0 0
        E 112 e0 3e 38
        ENV 2 0 0
        E 106 e0 06 45
        ENV 2 0 0
        E 100 e0 23 38
        ENV 2 0 0
        E 93 e0 20 45
        ENV 2 0 0
        E 87 e0 0b 38
        ENV 2 0 0
        E 81 e0 36 45
        ENV 2 0 0
        E 75 e0 77 37
        ENV 2 0 0
        E 69 e0 49 45
        ENV 2 0 0
        E 62 e0 65 37
        ENV 2 0 0
        E 57 e0 58 45
        ENV 2 0 0
        E 50 e0 57 37
        ENV 2 0 0
        E 9 80 43 00
        E 0 90 41 71
        E 1 e0 14 3b
        ENV 2 0 0
        E 150 e0 79 42
        ENV 2 0 0
        E 186 e0 24 3a
        ENV 2 0 0
        E 180 e0 2a 43
        ENV 2 0 0
        E 175 e0 76 39
        ENV 2 0 0
        E 167 e0 57 43
        ENV 2 0 0
        E 162 e0 4b 39
        ENV 2 0 0
        E 156 e0 00 44
        ENV 2 0 0
        E 149 e0 22 39
        ENV 2 0 0
        E 143 e0 27 44
        ENV 2 0 0
        E 137 e0 7e 38
        ENV 2 0 0
        E 130 e0 4a 44
        ENV 2 0 0
        E 125 e0 5c 38
        ENV 2 0 0
        E 118 e0 6a 44
        ENV 2 0 0
        E 112 e0 3e 38
        ENV 2 0 0
        E 106 e0 06 45
        ENV 2 0 0
        E 100 e0 23 38
        ENV 2 0 0
        E 93 e0 20 45
        ENV 2 0 0
        E 87 e0 0b 38
        ENV 2 0 0
        E 81 e0 36 45
        ENV 2 0 0
        E 75 e0 77 37
        ENV 2 0 0
        E 69 e0 49 45
        ENV 2 0 0
        E 62 e0 65 37
        ENV 2 0 0
        E 57 e0 58 45
        ENV 2 0 0
        E 48 90 4a 79
        E 2 e0 57 37
        ENV 2 0 0
        E 9 80 41 00
        E 859 e0 57 43
        ENV 2 0 0
        E 162 e0 4b 39
        ENV 2 0 0
        E 156 e0 00 44
        ENV 2 0 0
        E 149 e0 22 39
        ENV 2 0 0
        E 143 e0 27 44
        ENV 2 0 0
        E 137 e0 7e 38
        ENV 2 0 0
        E 130 e0 4a 44
        ENV 2 0 0
        E 125 e0 5c 38
        ENV 2 0 0
        E 118 e0 6a 44
        ENV 2 0 0
        E 112 e0 3e 38
        ENV 2 0 0
        E 106 e0 06 45
        ENV 2 0 0
        E 100 e0 23 38
        ENV 2 0 0
        E 93 e0 20 45
        ENV 2 0 0
        E 87 e0 0b 38
        ENV 2 0 0
        E 81 e0 36 45
        ENV 2 0 0
        E 75 e0 77 37
        ENV 2 0 0
        E 69 e0 49 45
        ENV 2 0 0
        E 62 e0 65 37
        ENV 2 0 0
        E 57 e0 58 45
        ENV 2 0 0
        E 45 90 48 6e
        E 3 80 4a 00
        E 2 e0 57 37
        ENV 2 0 0
        E 10 e0 14 3b
        ENV 2 0 0
        E 150 e0 79 42
        ENV 2 0 0
        E 186 e0 24 3a
        ENV 2 0 0
        E 180 e0 2a 43
        ENV 2 0 0
        E 175 e0 76 39
        ENV 2 0 0
        E 167 e0 57 43
        ENV 2 0 0
        E 162 e0 4b 39
        ENV 2 0 0
        E 156 e0 00 44
        ENV 2 0 0
        E 149 e0 22 39
        ENV 2 0 0
        E 143 e0 27 44
        ENV 2 0 0
        E 137 e0 7e 38
        ENV 2 0 0
        E 130 e0 4a 44
        ENV 2 0 0
        E 125 e0 5c 38
        ENV 2 0 0
        E 118 e0 6a 44
        ENV 2 0 0
        E 112 e0 3e 38
        ENV 2 0 0
        E 106 e0 06 45
        ENV 2 0 0
        E 100 e0 23 38
        ENV 2 0 0
        E 93 e0 20 45
        ENV 2 0 0
        E 87 e0 0b 38
        ENV 2 0 0
        E 81 e0 36 45
        ENV 2 0 0
        E 75 e0 77 37
        ENV 2 0 0
        E 69 e0 49 45
        ENV 2 0 0
        E 62 e0 65 37
        ENV 2 0 0
        E 57 e0 58 45
        ENV 2 0 0
        E 45 80 48 00
        E 5 e0 57 37
        ENV 2 0 0
        E 5 90 43 71
        E 5 e0 14 3b
        ENV 2 0 0
        E 150 e0 79 42
        ENV 2 0 0
        E 186 e0 24 3a
        ENV 2 0 0
        E 180 e0 2a 43
        ENV 2 0 0
        E 175 e0 76 39
        ENV 2 0 0
        E 167 e0 57 43
        ENV 2 0 0
        E 162 e0 4b 39
        ENV 2 0 0
        E 156 e0 00 44
        ENV 2 0 0
        E 149 e0 22 39
        ENV 2 0 0
        E 143 e0 27 44
        ENV 2 0 0
        E 137 e0 7e 38
        ENV 2 0 0
        E 130 e0 4a 44
        ENV 2 0 0
        E 125 e0 5c 38
        ENV 2 0 0
        E 118 e0 6a 44
        ENV 2 0 0
        E 112 e0 3e 38
        ENV 2 0 0
        E 106 e0 06 45
        ENV 2 0 0
        E 100 e0 23 38
        ENV 2 0 0
        E 93 e0 20 45
        ENV 2 0 0
        E 87 e0 0b 38
        ENV 2 0 0
        E 81 e0 36 45
        ENV 2 0 0
        E 323 e0 25 49
        ENV 5 2 0.33
        E 2875 80 43 00
        E 4 e0 7f 7f
        ENV 5 0 0
        E 1 e0 00 40
        ENV 5 0 0
        E 0 b0 7b 00
        CCINTERP 32
        CHASE_CC_TAKEOFFS 1
        GUID {60A94F1F-AB59-4A54-A92E-F2AB9B592B51}
        IGNTEMPO 0 120 4 4
        SRCCOLOR 1764
        VELLANE 128 59 0
        VELLANE -2 108 108
        CFGEDITVIEW -3187.015591 0.012629 31 8 0 3 52 0 0 0.5
        KEYSNAP 0
        TRACKSEL 252
        EVTFILTER 0 -1 -1 -1 -1 0 0 0 0 -1 -1 -1 -1 0 -1 0 -1 -1
        CFGEDIT 1 1 0 1 1 0 1 1 1 1 1 0.125 715 908 2162 1647 0 0 0 0 0 0 0 0 0 0 0 0 1 64
      >
    >
    <ITEM
      POSITION 130.66666666666634
      SNAPOFFS 0
      LENGTH 21.33333340495301
      LOOP 0
      ALLTAKES 0
      FADEIN 1 0 0 1 0 0 0
      FADEOUT 1 0 0 1 0 0 0
      MUTE 0 0
      SEL 0
      IGUID {CC9B4746-5D6C-4A19-9CDA-9566B5816E61}
      IID 575
      NAME G5-7
      VOLPAN 1 0 1 -1
      SOFFS 0 0
      PLAYRATE 1 1 0 -1 0 0.0025
      CHANMODE 0
      GUID {305B1ECD-F060-4859-BCF9-C9B327C1967B}
      <SOURCE MIDI
        HASDATA 1 960 QN
        CCINTERP 32
        POOLEDEVTS {B45CF01C-533B-4882-8D2E-5761246B2D64}
        E 0 90 48 28
        E 480 80 48 00
        E 0 90 30 28
        E 240 80 30 00
        E 0 90 43 28
        E 480 80 43 00
        E 0 90 3e 28
        E 240 80 3e 00
        E 0 90 3c 16
        E 480 80 3c 00
        E 0 90 46 28
        E 720 80 46 00
        E 0 90 3c 28
        E 240 80 3c 00
        E 0 90 43 28
        E 240 80 43 00
        E 0 90 3e 28
        E 240 80 3e 00
        E 9 90 48 42
        E 443 80 48 00
        E 32 90 43 01
        E 956 80 43 00
        E 0 90 3c 42
        E 240 80 3c 00
        E 0 90 45 28
        E 240 80 45 00
        E 0 90 3e 28
        E 240 80 3e 00
        E 0 90 3c 28
        E 240 80 3c 00
        E 0 90 40 28
        E 0 90 40 28
        E 240 80 40 00
        E 0 90 30 28
        E 10 80 40 00
        E 230 90 42 0d
        E 10 80 30 00
        E 224 80 42 00
        E 6 90 46 28
        E 240 80 46 00
        E 0 90 3e 7f
        E 240 80 3e 00
        E 0 90 43 13
        E 240 80 43 00
        E 0 90 45 7f
        Em 0 90 43 2a
        E 240 80 45 00
        Em 0 80 43 00
        E 0 90 30 13
        E 240 80 30 00
        E 0 90 43 28
        e 0 90 18 41
        e 240 80 18 00
        E 240 80 43 00
        E 0 90 3c 60
        E 240 80 3c 00
        E 0 90 4a 28
        E 480 80 4a 00
        E 0 90 40 28
        E 240 80 40 00
        E 0 90 48 28
        E 480 80 48 00
        E 0 90 4c 13
        E 480 80 4c 00
        E 0 90 30 09
        E 480 80 30 00
        E 0 90 46 19
        E 240 80 46 00
        E 0 90 3e 28
        E 240 80 3e 00
        E 0 90 4f 28
        E 240 80 4f 00
        E 0 90 40 28
        E 240 80 40 00
        E 0 90 54 07
        E 1200 80 54 00
        E 0 90 32 2d
        E 240 80 32 00
        E 0 90 4c 28
        E 240 80 4c 00
        E 0 90 43 28
        e 0 90 1b 5a
        E 240 80 43 00
        E 0 90 4f 1c
        e 120 80 1b 00
        E 120 80 4f 00
        Em 0 90 32 28
        E 0 90 30 28
        E 240 80 30 00
        E 0 90 51 28
        Em 2 80 32 00
        E 232 80 51 00
        E 6 90 4c 25
        E 240 80 4c 00
        E 0 90 4a 16
        E 240 80 4a 00
        E 0 90 48 23
        E 240 80 48 00
        E 0 90 46 28
        E 240 80 46 00
        E 0 90 30 23
        E 240 80 30 00
        E 14 90 4f 14
        E 946 80 4f 00
        E 0 90 30 0c
        E 240 80 30 00
        E 0 90 43 7f
        E 480 80 43 00
        E 0 90 32 28
        E 240 80 32 00
        E 0 90 51 19
        E 960 90 3c 01
        E 240 80 51 00
        E 0 80 3c 00
        E 0 90 40 28
        E 240 80 40 00
        em 0 90 1c 5a
        E 0 90 45 3c
        E 240 80 45 00
        E 0 90 4a 22
        E 234 80 4a 00
        E 6 90 3c 22
        em 480 80 1c 00
        E 0 80 3c 00
        E 0 90 48 01
        e 960 90 1b 5a
        Em 240 90 40 50
        E 240 80 48 00
        e 0 80 1b 00
        Em 0 80 40 00
        E 0 90 30 50
        e 120 90 18 41
        E 120 80 30 00
        E 0 90 48 50
        E 240 80 48 00
        E 0 90 3e 1c
        e 120 80 18 00
        E 120 80 3e 00
        E 0 90 54 24
        E 240 80 54 00
        E 0 90 32 50
        E 240 80 32 00
        E 0 90 48 50
        E 240 80 48 00
        E 0 90 30 50
        E 240 80 30 00
        E 0 90 45 50
        E 239 90 30 01
        E 1 80 45 00
        Em 0 90 34 1f
        Em 0 90 3e 01
        Em 0 90 42 08
        Em 240 80 34 00
        Em 0 80 3e 00
        Em 0 80 42 00
        E 239 80 30 00
        E 1 90 48 01
        E 225 90 54 08
        E 15 80 48 00
        E 225 80 54 00
        E 5 90 34 01
        E 240 80 34 00
        E 1 90 40 08
        E 240 80 40 00
        E 7 90 54 08
        E 216 90 32 01
        E 24 80 54 00
        E 216 80 32 00
        E 9 90 48 08
        E 240 80 48 00
        E 23 90 54 01
        E 240 80 54 00
        E 9 90 30 01
        e 225 90 1b 5a
        E 5 90 45 08
        E 10 80 30 00
        E 224 90 46 07
        E 6 80 45 00
        E 211 90 4f 05
        E 23 80 46 00
        e 1 80 1b 00
        E 240 80 4f 00
        E 15 90 4c 01
        E 240 80 4c 00
        E 9 90 4a 01
        e 576 90 1b 5a
        E 360 90 46 01
        E 24 80 4a 00
        e 96 80 1b 00
        E 360 80 46 00
        E 0 90 40 08
        E 240 80 40 00
        E 0 90 4c 08
        E 240 80 4c 00
        E 0 90 30 01
        e 0 90 1b 5a
        E 240 80 30 00
        E 0 90 48 08
        e 240 80 1b 00
        E 0 80 48 00
        E 0 90 4a 01
        E 240 80 4a 00
        E 0 90 30 01
        E 240 80 30 00
        E 0 90 46 08
        E 240 80 46 00
        E 0 90 3c 08
        E 240 80 3c 00
        E 0 90 43 08
        E 240 80 43 00
        E 0 90 40 01
        E 240 80 40 00
        E 0 90 3c 01
        E 240 80 3c 00
        E 0 b0 7b 00
        CCINTERP 32
        CHASE_CC_TAKEOFFS 1
        GUID {F55C3186-C2B3-4E61-A220-27CBC1329518}
        IGNTEMPO 0 120 4 4
        SRCCOLOR 1769
        VELLANE 128 133 0
        VELLANE -2 108 108
        CFGEDITVIEW -1270.590506 0.031631 0 22 0 -1 0 0 0 0.5
        KEYSNAP 0
        TRACKSEL 252
        EVTFILTER 0 -1 -1 -1 -1 0 0 0 0 -1 -1 -1 -1 0 -1 0 -1 -1
        CFGEDIT 1 1 0 1 1 1 1 1 1 1 1 0.125 320 0 1767 739 0 1 0 0 0 0 0 1 0 0 0 0 1 64
      >
    >
    <ITEM
      POSITION 152.00000007161935
      SNAPOFFS 0
      LENGTH 21.33333340495244
      LOOP 0
      ALLTAKES 0
      FADEIN 1 0 0 1 0 0 0
      FADEOUT 1 0 0 1 0 0 0
      MUTE 0 0
      SEL 0
      IGUID {FAD27EA6-EC9C-486B-8D41-553992F18D37}
      IID 583
      NAME G5-8
      VOLPAN 1 0 1 -1
      SOFFS 0 0
      PLAYRATE 1 1 0 -1 0 0.0025
      CHANMODE 0
      GUID {5D1AE97D-DEBA-4D67-8998-82ECB43022C2}
      <SOURCE MIDI
        HASDATA 1 960 QN
        CCINTERP 32
        POOLEDEVTS {1ABC5F8A-7833-4713-A930-3AB7BC16F1C8}
        e 0 90 3e 01
        e 240 80 3e 00
        e 0 90 48 08
        e 240 80 48 00
        e 0 90 3c 01
        e 240 80 3c 00
        e 0 90 46 08
        e 240 80 46 00
        e 0 90 3e 01
        e 240 80 3e 00
        e 0 90 54 08
        e 240 80 54 00
        e 0 90 32 01
        em 240 90 4a 08
        e 240 80 32 00
        em 0 80 4a 00
        e 0 90 34 01
        e 240 80 34 00
        e 0 90 4c 08
        e 240 80 4c 00
        e 0 90 3e 01
        e 240 80 3e 00
        e 0 90 4f 08
        e 240 80 4f 00
        e 0 90 30 01
        e 240 80 30 00
        e 0 90 51 08
        e 240 80 51 00
        e 0 90 3e 01
        e 240 80 3e 00
        e 0 90 30 01
        e 240 80 30 00
        e 0 90 54 18
        e 3840 80 54 00
        e 0 90 30 2c
        em 113 90 43 25
        e 7 80 30 00
        e 0 90 40 27
        em 113 80 43 00
        e 7 80 40 00
        e 0 90 45 22
        e 115 90 48 19
        e 5 80 45 00
        e 115 80 48 00
        e 5 90 4a 21
        e 120 80 4a 00
        e 1 90 4c 2b
        e 119 90 4f 0a
        e 1 80 4c 00
        e 119 80 4f 00
        e 4 90 51 29
        e 120 80 51 00
        e 13 90 54 17
        e 111 90 52 21
        e 9 80 54 00
        e 111 80 52 00
        e 9 90 51 19
        e 103 80 51 00
        e 0 90 4c 21
        e 107 80 4c 00
        e 17 90 4a 1e
        e 107 80 4a 00
        e 9 90 4c 24
        e 120 80 4c 00
        e 13 90 4f 26
        e 107 80 4f 00
        e 0 90 54 2a
        e 103 80 54 00
        e 23 90 54 12
        e 86 80 54 00
        e 35 90 54 42
        e 220 90 51 29
        e 13 80 54 00
        e 107 80 51 00
        e 13 90 54 17
        e 111 90 52 21
        e 9 80 54 00
        e 111 80 52 00
        e 9 90 51 19
        e 103 80 51 00
        e 17 90 4f 19
        e 103 80 4f 00
        e 17 90 52 2a
        e 120 80 52 00
        e 0 90 54 12
        e 120 80 54 00
        e 7 90 52 42
        e 353 80 52 00
        e 0 90 51 17
        e 111 90 52 21
        e 9 80 51 00
        e 111 80 52 00
        e 9 90 51 19
        e 103 80 51 00
        e 17 90 4c 01
        e 960 80 4c 00
        e 0 90 51 17
        e 111 90 52 21
        e 9 80 51 00
        e 111 80 52 00
        e 9 90 51 19
        e 103 80 51 00
        e 137 90 4f 17
        e 80 80 4f 00
        e 31 90 51 21
        e 80 80 51 00
        e 49 90 4f 19
        e 63 80 4f 00
        e 177 90 4a 01
        e 480 80 4a 00
        e 0 90 4f 01
        e 120 80 4f 00
        e 0 90 52 1f
        e 120 80 52 00
        e 0 90 4f 1c
        e 120 80 4f 00
        e 6 90 51 29
        e 114 90 4f 21
        e 6 80 51 00
        e 114 80 4f 00
        e 0 90 4c 26
        e 120 80 4c 00
        e 10 90 40 1c
        e 110 90 4a 24
        e 10 80 40 00
        e 110 80 4a 00
        e 17 90 51 24
        e 94 80 51 00
        e 9 90 48 22
        e 120 80 48 00
        e 8 90 45 1a
        e 104 80 45 00
        e 8 90 43 1e
        e 120 80 43 00
        e 0 90 30 21
        e 960 80 30 00
        e 0 90 51 21
        e 240 80 51 00
        e 0 90 52 21
        e 240 80 52 00
        e 0 90 51 21
        e 240 80 51 00
        e 0 90 52 21
        e 0 90 46 21
        e 240 80 52 00
        e 0 80 46 00
        e 0 90 54 21
        e 960 80 54 00
        e 0 90 4f 21
        e 960 80 4f 00
        e 0 90 52 21
        e 960 80 52 00
        e 0 90 51 21
        e 240 80 51 00
        e 240 90 4f 21
        e 240 80 4f 00
        e 240 90 4d 21
        e 960 80 4d 00
        e 0 90 4a 36
        e 960 80 4a 00
        e 0 90 4c 06
        e 3840 80 4c 00
        e 0 90 4a 21
        e 3840 80 4a 00
        E 0 b0 7b 00
        CCINTERP 32
        CHASE_CC_TAKEOFFS 1
        GUID {54C05A2A-5401-4379-9801-3AC08BEDD587}
        IGNTEMPO 0 120 4 4
        SRCCOLOR 1790
        VELLANE 128 120 0
        VELLANE -2 108 108
        CFGEDITVIEW -921.6 0.044744 41 20 0 -1 0 0 0 0.5
        KEYSNAP 0
        TRACKSEL 252
        EVTFILTER 0 -1 -1 -1 -1 0 0 0 0 -1 -1 -1 -1 0 -1 0 -1 -1
        CFGEDIT 1 1 0 1 1 1 1 1 1 1 1 0.125 274 0 1705 723 0 0 0 0 0 0 0 1 0 0 0 0 1 64
      >
    >
    <ITEM
      POSITION 173.3333334049521
      SNAPOFFS 0
      LENGTH 32.00000000000452
      LOOP 0
      ALLTAKES 0
      FADEIN 1 0 0 1 0 0 0
      FADEOUT 1 0 0 1 0 0 0
      MUTE 0 0
      SEL 0
      IGUID {C89A4EE2-5243-4961-89E0-F00D28775FA2}
      IID 856
      NAME G5-9
      VOLPAN 1 0 1 -1
      SOFFS 0 0
      PLAYRATE 1 1 0 -1 0 0.0025
      CHANMODE 0
      GUID {451B5BDF-1FBF-496A-993A-1413EA46E672}
      <SOURCE MIDI
        HASDATA 1 960 QN
        CCINTERP 32
        POOLEDEVTS {18ED66C8-3F5E-491E-85E7-8EA65D551246}
        E 0 e0 56 41
        ENV 2 0 0
        E 960 90 45 01
        E 6846 e0 56 41
        ENV 2 0 0
        E 114 80 45 00
        E 4 e0 62 3a
        ENV 2 0 0
        E 119 e0 34 4b
        ENV 2 0 0
        E 118 e0 62 3a
        ENV 2 0 0
        E 119 e0 34 4b
        ENV 2 0 0
        E 118 e0 62 3a
        ENV 2 0 0
        E 119 e0 34 4b
        ENV 2 0 0
        E 120 e0 62 3a
        ENV 2 0 0
        E 3 e0 0c 43
        ENV 2 0 0
        E 118 e0 62 3a
        ENV 2 0 0
        E 117 e0 34 4b
        ENV 2 0 0
        E 118 e0 62 3a
        ENV 2 0 0
        E 119 e0 34 4b
        ENV 2 0 0
        E 118 e0 62 3a
        ENV 2 0 0
        E 119 e0 34 4b
        ENV 2 0 0
        E 118 e0 62 3a
        ENV 2 0 0
        E 119 e0 34 4b
        ENV 2 0 0
        E 120 e0 62 3a
        ENV 5 2 0.2266
        E 218 e0 6f 49
        ENV 5 2 0.2188
        E 119 e0 64 38
        ENV 2 0 0
        E 154 e0 44 4b
        ENV 2 0 0
        E 107 e0 56 37
        ENV 2 0 0
        E 120 e0 28 48
        ENV 2 0 0
        E 120 e0 56 37
        ENV 2 0 0
        E 120 e0 28 48
        ENV 2 0 0
        E 120 e0 56 37
        ENV 2 0 0
        E 121 e0 28 48
        ENV 2 0 0
        E 121 e0 56 37
        ENV 5 2 0.2578
        E 262 e0 49 48
        ENV 2 0 0
        E 232 e0 34 4b
        ENV 2 0 0
        E 0 90 48 01
        E 118 e0 62 3a
        ENV 2 0 0
        E 119 e0 34 4b
        ENV 2 0 0
        E 120 e0 62 3a
        ENV 5 2 0.2266
        E 218 e0 6f 49
        ENV 5 2 0.2188
        E 119 e0 64 38
        ENV 2 0 0
        E 154 e0 44 4b
        ENV 2 0 0
        E 107 e0 56 37
        ENV 2 0 0
        E 120 e0 28 48
        ENV 2 0 0
        E 120 e0 56 37
        ENV 2 0 0
        E 120 e0 28 48
        ENV 2 0 0
        E 120 e0 56 37
        ENV 2 0 0
        E 121 e0 28 48
        ENV 2 0 0
        E 121 e0 56 37
        ENV 5 2 0.2578
        E 224 e0 5e 49
        ENV 2 0 0
        E 118 e0 0c 39
        ENV 2 0 0
        E 119 e0 5e 49
        ENV 2 0 0
        E 120 e0 0c 39
        ENV 5 2 0.2266
        E 218 e0 19 48
        ENV 5 2 0.2188
        E 119 e0 0e 37
        ENV 2 0 0
        E 154 e0 6e 49
        ENV 2 0 0
        E 107 e0 00 36
        ENV 2 0 0
        E 120 e0 52 46
        ENV 2 0 0
        E 120 e0 00 36
        ENV 2 0 0
        E 120 e0 52 46
        ENV 2 0 0
        E 120 e0 00 36
        ENV 2 0 0
        E 121 e0 52 46
        ENV 2 0 0
        E 121 e0 00 36
        ENV 5 2 0.2578
        E 262 e0 55 6a
        ENV 5 2 0.2598
        E 27 e0 00 40
        ENV 2 0 0
        E 93 80 48 00
        E 505 e0 56 37
        ENV 2 0 0
        E 122 e0 28 48
        ENV 2 0 0
        E 121 e0 56 37
        ENV 2 0 0
        E 92 90 4a 20
        E 30 e0 28 48
        ENV 2 0 0
        E 121 e0 56 37
        ENV 2 0 0
        E 122 e0 28 48
        ENV 2 0 0
        E 123 e0 56 37
        ENV 2 0 0
        E 122 e0 28 48
        ENV 2 0 0
        E 122 e0 56 37
        ENV 2 0 0
        E 123 e0 28 48
        ENV 2 0 0
        E 123 e0 56 37
        ENV 2 0 0
        E 123 e0 28 48
        ENV 2 0 0
        E 123 e0 56 37
        ENV 2 0 0
        E 124 e0 28 48
        ENV 2 0 0
        E 123 e0 56 37
        ENV 2 0 0
        E 124 e0 28 48
        ENV 2 0 0
        E 124 e0 56 37
        ENV 2 0 0
        E 125 e0 28 48
        ENV 2 0 0
        E 48 e0 14 43
        ENV 2 0 0
        E 76 e0 56 37
        ENV 2 0 0
        E 66 e0 56 37
        ENV 2 0 0
        E 59 e0 28 48
        ENV 2 0 0
        E 62 e0 28 48
        ENV 2 0 0
        E 121 e0 56 37
        ENV 2 0 0
        E 120 e0 28 48
        ENV 2 0 0
        E 121 e0 56 37
        ENV 2 0 0
        E 122 e0 28 48
        ENV 2 0 0
        E 121 e0 56 37
        ENV 2 0 0
        E 212 e0 5a 43
        ENV 2 0 0
        E 3840 80 4a 00
        E 119 90 4a 7f
        E 601 e0 00 40
        ENV 2 0 0
        E 119 90 60 0b
        E 1 80 60 00
        E 49 e0 28 48
        ENV 2 0 0
        E 70 90 5f 0b
        E 1 80 5f 00
        E 52 e0 56 37
        ENV 2 0 0
        E 67 90 60 0b
        E 1 80 60 00
        E 56 e0 28 48
        ENV 2 0 0
        E 63 90 5f 0b
        E 1 80 5f 00
        E 59 e0 56 37
        ENV 2 0 0
        E 60 90 60 0b
        E 1 80 60 00
        E 63 e0 28 48
        ENV 2 0 0
        E 56 90 5f 0b
        E 1 80 5f 00
        E 67 e0 56 37
        ENV 2 0 0
        E 52 90 60 0b
        E 1 80 60 00
        Em 72 e0 28 48
        ENV 2 0 0
        E 47 90 5f 0b
        E 1 80 5f 00
        Em 76 e0 56 37
        ENV 2 0 0
        E 43 90 60 0b
        E 1 80 60 00
        Em 81 e0 28 48
        ENV 2 0 0
        E 38 90 5f 0b
        E 1 80 5f 00
        E 119 90 60 0b
        E 1 e0 56 37
        ENV 2 0 0
        E 0 80 60 00
        E 119 90 5f 0b
        E 1 80 5f 00
        E 3 e0 28 48
        ENV 2 0 0
        E 116 90 60 0b
        E 1 80 60 00
        E 6 e0 56 37
        ENV 2 0 0
        E 113 90 5f 0b
        E 1 80 5f 00
        E 10 e0 28 48
        ENV 2 0 0
        E 109 90 60 0b
        E 1 80 60 00
        E 13 e0 56 37
        ENV 2 0 0
        E 106 90 5f 0b
        E 1 80 5f 00
        E 17 e0 28 48
        ENV 2 0 0
        E 102 90 60 0b
        E 1 80 60 00
        E 21 e0 56 37
        ENV 2 0 0
        E 98 90 5f 0b
        E 1 80 5f 00
        Em 26 e0 28 48
        ENV 2 0 0
        E 93 90 60 0b
        E 1 80 60 00
        Em 30 e0 56 37
        ENV 2 0 0
        E 89 90 5f 0b
        E 1 80 5f 00
        E 35 e0 56 37
        ENV 2 0 0
        E 84 90 60 0b
        E 1 80 60 00
        E 38 e0 28 48
        ENV 2 0 0
        E 81 90 5f 0b
        E 1 80 5f 00
        E 41 e0 56 37
        ENV 2 0 0
        E 78 90 60 0b
        E 1 80 60 00
        E 45 e0 28 48
        ENV 2 0 0
        E 74 90 5f 0b
        E 1 80 5f 00
        E 48 e0 56 37
        ENV 2 0 0
        E 71 90 60 0b
        E 1 80 60 00
        E 52 e0 28 48
        ENV 2 0 0
        E 67 90 5f 0b
        E 1 80 4a 00
        E 0 80 5f 00
        E 0 90 32 7f
        E 56 e0 56 37
        ENV 2 0 0
        E 63 90 60 0b
        E 0 90 4a 7f
        E 1 80 60 00
        Em 61 e0 28 48
        ENV 2 0 0
        E 58 90 5f 0b
        E 1 80 5f 00
        Em 65 e0 56 37
        ENV 2 0 0
        E 54 90 60 0b
        E 1 80 60 00
        E 70 e0 56 37
        ENV 2 0 0
        E 49 90 5f 0b
        E 1 80 5f 00
        E 73 e0 28 48
        ENV 2 0 0
        E 46 90 60 0b
        E 1 80 60 00
        E 76 e0 56 37
        ENV 2 0 0
        E 43 90 5f 0b
        E 1 80 5f 00
        E 80 e0 28 48
        ENV 2 0 0
        E 39 90 60 0b
        E 1 80 60 00
        E 83 e0 56 37
        ENV 2 0 0
        E 36 90 5f 0b
        E 1 80 5f 00
        E 87 e0 28 48
        ENV 2 0 0
        E 32 90 60 0b
        E 1 80 60 00
        E 91 e0 56 37
        ENV 2 0 0
        E 28 90 5f 0b
        E 1 80 5f 00
        Em 96 e0 28 48
        ENV 2 0 0
        E 23 90 60 0b
        E 1 80 60 00
        Em 100 e0 56 37
        ENV 2 0 0
        E 19 90 5f 0b
        E 1 80 5f 00
        E 105 e0 56 37
        ENV 2 0 0
        E 14 90 60 0b
        E 1 80 60 00
        E 108 e0 28 48
        ENV 2 0 0
        E 11 90 5f 0b
        E 1 80 5f 00
        E 111 e0 56 37
        ENV 2 0 0
        E 8 90 60 0b
        E 1 80 60 00
        E 115 e0 28 48
        ENV 2 0 0
        E 4 90 5f 0b
        E 1 80 5f 00
        E 118 e0 56 37
        ENV 2 0 0
        E 1 90 60 0b
        E 1 80 60 00
        E 119 90 5f 0b
        E 1 80 5f 00
        E 2 e0 28 48
        ENV 2 0 0
        E 117 90 60 0b
        E 1 80 60 00
        E 6 e0 56 37
        ENV 2 0 0
        E 113 90 5f 0b
        E 1 80 5f 00
        Em 11 e0 28 48
        ENV 2 0 0
        E 108 90 60 0b
        E 1 80 60 00
        Em 15 e0 56 37
        ENV 2 0 0
        E 104 90 5f 0b
        E 1 80 5f 00
        Em 20 e0 28 48
        ENV 2 0 0
        E 99 90 60 0b
        E 1 80 60 00
        E 119 90 5f 0b
        E 1 80 5f 00
        E 119 90 60 0b
        E 1 80 60 00
        E 119 90 5f 0b
        E 1 80 5f 00
        E 119 90 60 0b
        E 1 80 60 00
        E 119 90 5f 0b
        E 1 80 5f 00
        E 119 90 60 0b
        E 1 80 60 00
        E 119 90 5f 0b
        E 1 80 5f 00
        E 119 90 60 0b
        E 1 80 60 00
        E 119 90 5f 0b
        E 1 80 4a 00
        E 0 80 5f 00
        E 120 80 32 00
        E 3600 90 3e 07
        e 120 e0 00 40
        ENV 2 0 0
        E 120 e0 0c 34
        ENV 2 0 0
        E 140 e0 44 52
        ENV 2 0 0
        E 204 e0 06 30
        ENV 2 0 0
        E 203 e0 3b 52
        ENV 2 0 0
        E 200 e0 0f 30
        ENV 2 0 0
        E 199 e0 32 52
        ENV 2 0 0
        E 197 e0 18 30
        ENV 2 0 0
        E 195 e0 2a 52
        ENV 2 0 0
        E 194 e0 20 30
        ENV 2 0 0
        E 191 e0 22 52
        ENV 2 0 0
        E 190 e0 28 30
        ENV 2 0 0
        E 188 e0 1a 52
        ENV 2 0 0
        E 186 e0 30 30
        ENV 2 0 0
        E 184 e0 12 52
        ENV 2 0 0
        E 182 e0 38 30
        ENV 2 0 0
        E 181 e0 0a 52
        ENV 2 0 0
        E 179 e0 3f 30
        ENV 2 0 0
        E 177 e0 02 52
        ENV 2 0 0
        E 175 e0 47 30
        ENV 2 0 0
        E 173 e0 7b 51
        ENV 2 0 0
        E 172 e0 4e 30
        ENV 2 0 0
        E 169 e0 74 51
        ENV 2 0 0
        E 168 e0 55 30
        ENV 2 0 0
        E 166 e0 6d 51
        ENV 2 0 0
        E 165 e0 5d 30
        ENV 2 0 0
        E 162 e0 66 51
        ENV 2 0 0
        E 161 e0 63 30
        ENV 2 0 0
        E 158 e0 5f 51
        ENV 2 0 0
        E 157 e0 6a 30
        ENV 2 0 0
        E 155 e0 58 51
        ENV 2 0 0
        E 154 e0 71 30
        ENV 2 0 0
        E 151 e0 52 51
        ENV 2 0 0
        E 150 e0 77 30
        ENV 2 0 0
        E 148 e0 4b 51
        ENV 2 0 0
        E 146 e0 7d 30
        ENV 2 0 0
        E 144 e0 45 51
        ENV 2 0 0
        E 143 e0 04 31
        ENV 2 0 0
        E 140 e0 3f 51
        ENV 2 0 0
        E 139 e0 0a 31
        ENV 2 0 0
        E 137 e0 39 51
        ENV 2 0 0
        E 135 e0 0f 31
        ENV 2 0 0
        E 133 e0 33 51
        ENV 2 0 0
        E 132 e0 15 31
        ENV 2 0 0
        E 129 e0 2e 51
        ENV 2 0 0
        E 128 e0 1a 31
        ENV 2 0 0
        E 126 e0 28 51
        ENV 2 0 0
        E 125 e0 20 31
        ENV 2 0 0
        E 122 e0 23 51
        ENV 2 0 0
        E 121 e0 25 31
        ENV 2 0 0
        E 118 e0 1e 51
        ENV 2 0 0
        E 117 e0 2a 31
        ENV 2 0 0
        E 115 e0 19 51
        ENV 2 0 0
        E 114 e0 2f 31
        ENV 2 0 0
        E 111 e0 14 51
        ENV 2 0 0
        E 110 e0 34 31
        ENV 2 0 0
        E 108 e0 10 51
        ENV 2 0 0
        E 106 e0 38 31
        ENV 2 0 0
        E 104 e0 0b 51
        ENV 2 0 0
        E 102 e0 3d 31
        ENV 2 0 0
        E 101 e0 07 51
        ENV 2 0 0
        E 99 e0 41 31
        ENV 2 0 0
        E 97 e0 03 51
        ENV 2 0 0
        E 95 e0 45 31
        ENV 2 0 0
        E 93 e0 7f 50
        ENV 2 0 0
        E 92 e0 49 31
        ENV 2 0 0
        E 89 e0 7b 50
        ENV 2 0 0
        E 88 e0 4d 31
        ENV 2 0 0
        E 86 e0 77 50
        ENV 2 0 0
        E 84 e0 50 31
        ENV 2 0 0
        E 83 e0 74 50
        ENV 2 0 0
        E 80 e0 54 31
        ENV 2 0 0
        E 79 e0 70 50
        ENV 2 0 0
        E 77 e0 57 31
        ENV 2 0 0
        E 75 e0 6d 50
        ENV 2 0 0
        E 73 e0 5a 31
        ENV 2 0 0
        E 72 e0 6a 50
        ENV 2 0 0
        E 69 e0 5d 31
        ENV 2 0 0
        E 68 e0 67 50
        ENV 2 0 0
        E 66 e0 60 31
        ENV 2 0 0
        E 64 e0 64 50
        ENV 2 0 0
        E 63 e0 63 31
        ENV 2 0 0
        E 60 e0 61 50
        ENV 2 0 0
        E 59 e0 65 31
        ENV 2 0 0
        E 57 e0 5f 50
        ENV 2 0 0
        E 55 e0 68 31
        ENV 2 0 0
        E 53 e0 5d 50
        ENV 2 0 0
        E 52 e0 6a 31
        ENV 2 0 0
        E 49 e0 5b 50
        ENV 2 0 0
        E 48 e0 6c 31
        ENV 2 0 0
        E 46 e0 59 50
        ENV 2 0 0
        E 45 e0 6e 31
        ENV 2 0 0
        E 42 e0 57 50
        ENV 2 0 0
        E 40 e0 70 31
        ENV 2 0 0
        E 39 e0 55 50
        ENV 2 0 0
        E 37 e0 71 31
        ENV 2 0 0
        E 35 e0 53 50
        ENV 2 0 0
        E 10 e0 56 4f
        ENV 2 0 0
        E 1 80 3e 00
        E 0 b0 7b 00
        CCINTERP 32
        CHASE_CC_TAKEOFFS 1
        GUID {02159E8E-9436-4DFB-824C-40FEFAC90C7A}
        IGNTEMPO 0 120 4 4
        SRCCOLOR 1904
        VELLANE 128 120 0
        VELLANE -2 108 108
        CFGEDITVIEW 0 0.044744 0 20 0 -1 0 0 0 0.5
        KEYSNAP 0
        TRACKSEL 252
        EVTFILTER 0 -1 -1 -1 -1 0 0 0 0 -1 -1 -1 -1 0 -1 0 -1 -1
        CFGEDIT 1 1 0 1 1 1 1 1 1 1 1 0.125 274 0 1705 723 0 1 0 0 0 0 0 1 0 0 0 0 1 64
      >
    >
  >
  <TRACK {8CD7612A-7CB1-4977-9191-82FD68C9ABC9}
    NAME Instruments
    PEAKCOL 16810112
    BEAT -1
    AUTOMODE 0
    VOLPAN 1.45790055265788 -0.16 -1 -1 1
    MUTESOLO 0 0 0
    IPHASE 0
    PLAYOFFS 0 1
    ISBUS 1 1
    BUSCOMP 1 0 0 0 0
    SHOWINMIX 0 0.6667 0.5 1 0.5 0 0 0
    FREEMODE 0
    SEL 0
    REC 0 1024 1 0 0 0 0
    VU 2
    TRACKHEIGHT 0 0 0 0 0 0
    INQ 0 0 0 0.5 100 0 0 100
    NCHAN 32
    FX 1
    TRACKID {8CD7612A-7CB1-4977-9191-82FD68C9ABC9}
    PERF 0
    MIDIOUT -1
    MAINSEND 0 0
  >
  <TRACK {A165701A-6F97-476B-B53C-1642531FAA91}
    NAME Inst-Synth-G1
    PEAKCOL 16810112
    BEAT -1
    AUTOMODE 0
    VOLPAN 1 0 -1 -1 1
    MUTESOLO 0 0 0
    IPHASE 0
    PLAYOFFS 0 1
    ISBUS 0 0
    BUSCOMP 0 0 0 0 0
    SHOWINMIX 0 0.6667 0.5 1 0.5 0 0 0
    FREEMODE 0
    SEL 0
    REC 0 1024 1 0 0 0 0
    VU 2
    TRACKHEIGHT 0 0 0 0 0 0
    INQ 0 0 0 0.5 100 0 0 100
    NCHAN 2
    FX 1
    TRACKID {A165701A-6F97-476B-B53C-1642531FAA91}
    PERF 0
    AUXRECV 3 0 1 0 0 0 0 0 0 -1:U 0 -1 ''
    MIDIOUT -1
    MAINSEND 0 12
    <FXCHAIN
      WNDRECT 242 213 575 508
      SHOW 0
      LASTSEL 0
      DOCKED 0
      BYPASS 0 0 0
      <VST "VSTi: ReaSynth (Cockos)" reasynth.dll 0 "" 1919251321<5653547265737972656173796E746800> ""
        eXNlcu9e7f4AAAAAAgAAAAEAAAAAAAAAAgAAAAAAAABAAAAAAAAAAAAAEAA=
        776t3g3wrd6mm8Q7F7fROgAAAAAAAAAAAAAAAM5NAD/pZ4g9AAAAAAAAAD8AAIA/AACAPwAAAD8AAAAAAAAAAA==
        AAAQAAAA
      >
      FLOATPOS 0 0 0 0
      FXID {92DABFB4-CFF4-416A-8F4F-BEF6813860A3}
      WAK 0 0
    >
  >
  <TRACK {FD35B587-9ECA-437B-8F09-BFE42A13A0F6}
    NAME Inst-Synth-G4
    PEAKCOL 16810112
    BEAT -1
    AUTOMODE 0
    VOLPAN 1 0 -1 -1 1
    MUTESOLO 0 0 0
    IPHASE 0
    PLAYOFFS 0 1
    ISBUS 0 0
    BUSCOMP 0 0 0 0 0
    SHOWINMIX 0 0.6667 0.5 1 0.5 0 0 0
    FREEMODE 0
    SEL 0
    REC 0 1024 1 0 0 0 0
    VU 2
    TRACKHEIGHT 0 0 0 0 0 0
    INQ 0 0 0 0.5 100 0 0 100
    NCHAN 2
    FX 1
    TRACKID {FD35B587-9ECA-437B-8F09-BFE42A13A0F6}
    PERF 0
    AUXRECV 4 0 1 0 0 0 0 0 0 -1:U 0 -1 ''
    MIDIOUT -1
    MAINSEND 0 12
    <FXCHAIN
      WNDRECT 242 213 575 508
      SHOW 0
      LASTSEL 0
      DOCKED 0
      BYPASS 0 0 0
      <VST "VSTi: ReaSynth (Cockos)" reasynth.dll 0 "" 1919251321<5653547265737972656173796E746800> ""
        eXNlcu9e7f4AAAAAAgAAAAEAAAAAAAAAAgAAAAAAAABAAAAAAAAAAAAAEAA=
        776t3g3wrd6mm8Q7F7fROgAAAAAAAAAAAAAAAM5NAD/pZ4g9AAAAAAAAAD8AAIA/AACAPwAAAD8AAAAAAAAAAA==
        AAAQAAAA
      >
      FLOATPOS 0 0 0 0
      FXID {AB00B3B0-8A34-4966-B2F2-BF0B0B2F2657}
      WAK 0 0
    >
  >
  <TRACK {B3229357-DC33-473E-90FE-E9D0100B1B63}
    NAME Inst-Synth-G5
    PEAKCOL 16810112
    BEAT -1
    AUTOMODE 0
    VOLPAN 1 0 -1 -1 1
    MUTESOLO 0 0 0
    IPHASE 0
    PLAYOFFS 0 1
    ISBUS 0 0
    BUSCOMP 0 0 0 0 0
    SHOWINMIX 0 0.6667 0.5 1 0.5 0 0 0
    FREEMODE 0
    SEL 0
    REC 0 1024 1 0 0 0 0
    VU 2
    TRACKHEIGHT 0 0 0 0 0 0
    INQ 0 0 0 0.5 100 0 0 100
    NCHAN 2
    FX 1
    TRACKID {B3229357-DC33-473E-90FE-E9D0100B1B63}
    PERF 0
    AUXRECV 5 0 1 0 0 0 0 0 0 -1:U 0 -1 ''
    MIDIOUT -1
    MAINSEND 0 12
    <FXCHAIN
      WNDRECT 242 213 575 508
      SHOW 0
      LASTSEL 0
      DOCKED 0
      BYPASS 0 0 0
      <VST "VSTi: ReaSynth (Cockos)" reasynth.dll 0 "" 1919251321<5653547265737972656173796E746800> ""
        eXNlcu9e7f4AAAAAAgAAAAEAAAAAAAAAAgAAAAAAAABAAAAAAAAAAAAAEAA=
        776t3g3wrd6mm8Q7F7fROgAAAAAAAAAAAAAAAM5NAD/pZ4g9AAAAAAAAAD8AAIA/AACAPwAAAD8AAAAAAAAAAA==
        AAAQAAAA
      >
      FLOATPOS 0 0 0 0
      FXID {9C73003F-F350-4F9A-B55E-F3501C88D5D1}
      WAK 0 0
    >
  >
  <TRACK {B51EC413-AFAC-4B99-8E4C-B4FAD99C380A}
    NAME Inst-Synth-Bass
    PEAKCOL 16810112
    BEAT -1
    AUTOMODE 0
    VOLPAN 1 0 -1 -1 1
    MUTESOLO 0 0 0
    IPHASE 0
    PLAYOFFS 0 1
    ISBUS 2 -1
    BUSCOMP 0 0 0 0 0
    SHOWINMIX 0 0.6667 0.5 1 0.5 0 0 0
    FREEMODE 0
    SEL 0
    REC 0 1024 1 0 0 0 0
    VU 2
    TRACKHEIGHT 0 0 0 0 0 0
    INQ 0 0 0 0.5 100 0 0 100
    NCHAN 2
    FX 1
    TRACKID {B51EC413-AFAC-4B99-8E4C-B4FAD99C380A}
    PERF 0
    AUXRECV 1 0 1 0 0 0 0 0 0 -1:U 0 -1 ''
    MIDIOUT -1
    MAINSEND 0 12
    <FXCHAIN
      WNDRECT 242 213 575 508
      SHOW 0
      LASTSEL 0
      DOCKED 0
      BYPASS 0 0 0
      <VST "VSTi: ReaSynth (Cockos)" reasynth.dll 0 "" 1919251321<5653547265737972656173796E746800> ""
        eXNlcu9e7f4AAAAAAgAAAAEAAAAAAAAAAgAAAAAAAABAAAAAAAAAAAAAEAA=
        776t3g3wrd6mm8Q7F7fROgAAAAAAAAAAAAAAAM5NAD/pZ4g9AAAAAAAAAD8AAIA/AACAPwAAAD8AAAAAAAAAAA==
        AAAQAAAA
      >
      FLOATPOS 0 0 0 0
      FXID {35FE239F-F930-4770-8406-0F95BE3C57B8}
      WAK 0 0
    >
  >
  <TRACK {B764E56C-CB0F-4876-A91E-7A8B994491BA}
    NAME Render
    PEAKCOL 33554431
    BEAT -1
    AUTOMODE 0
    VOLPAN 1.02027317611641 0 -1 -1 1
    MUTESOLO 0 0 0
    IPHASE 0
    PLAYOFFS 0 1
    ISBUS 1 1
    BUSCOMP 0 0 0 0 0
    SHOWINMIX 1 0.6667 0.435897 1 0.5 0 -1 0
    FREEMODE 0
    SEL 0
    REC 0 0 1 0 0 0 0
    VU 2
    MIDICTL -1 4
    TRACKHEIGHT 0 0 0 0 0 0
    INQ 0 0 0 0.5 100 0 0 100
    NCHAN 2
    FX 1
    TRACKID {B764E56C-CB0F-4876-A91E-7A8B994491BA}
    PERF 0
    MIDIOUT -1
    MAINSEND 1 0
  >
  <TRACK {64EAFE81-518A-414A-A05E-DB6C0E6B9C8E}
    NAME SYNTH-BASS
    PEAKCOL 21004543
    BEAT -1
    AUTOMODE 0
    WIDTH 0
    VOLPAN 0.16578262018909 0 -1 -1 1
    MUTESOLO 0 2 0
    IPHASE 0
    PLAYOFFS 0 1
    ISBUS 0 0
    BUSCOMP 0 0 0 0 0
    SHOWINMIX 1 0.6667 0.326923 1 0.5 0 0 0
    FREEMODE 0
    SEL 1
    REC 0 0 1 0 0 0 0
    VU 2
    TRACKHEIGHT 0 0 0 0 0 0
    INQ 0 0 0 0.5 100 0 0 100
    NCHAN 2
    FX 1
    TRACKID {64EAFE81-518A-414A-A05E-DB6C0E6B9C8E}
    PERF 0
    AUXRECV 10 0 1 0 0 0 0 0 0 -1:U 0 -1 ''
    MIDIOUT -1
    MAINSEND 1 0
    <FXCHAIN
      WNDRECT 447 207 1077 695
      SHOW 0
      LASTSEL 0
      DOCKED 0
    >
  >
  <TRACK {2EB79FFB-B818-427E-9107-F717937098C4}
    NAME SYNTH-G1
    PEAKCOL 21004543
    BEAT -1
    AUTOMODE 0
    WIDTH 0
    VOLPAN 0.35823646268172 0 -1 -1 1
    MUTESOLO 0 2 0
    IPHASE 0
    PLAYOFFS 0 1
    ISBUS 0 0
    BUSCOMP 0 0 0 0 0
    SHOWINMIX 1 0.6667 0.326923 1 0.5 0 0 0
    FREEMODE 0
    SEL 0
    REC 0 0 1 0 0 0 0
    VU 2
    TRACKHEIGHT 0 0 0 0 0 0
    INQ 0 0 0 0.5 100 0 0 100
    NCHAN 2
    FX 1
    TRACKID {2EB79FFB-B818-427E-9107-F717937098C4}
    PERF 0
    AUXRECV 7 0 1 0 0 0 0 0 0 -1:U 0 -1 ''
    AUXRECV 8 0 1 0 0 0 0 0 0 -1:U 0 -1 ''
    MIDIOUT -1
    MAINSEND 1 0
    <FXCHAIN
      WNDRECT 447 207 1077 695
      SHOW 0
      LASTSEL 0
      DOCKED 0
    >
  >
  <TRACK {F75F9439-F7CD-4301-AFCE-D2149415CFCB}
    NAME SYNTH-G4
    PEAKCOL 21004543
    BEAT -1
    AUTOMODE 0
    WIDTH 0
    VOLPAN 0.24114017177058 -1 -1 -1 1
    MUTESOLO 0 2 0
    IPHASE 0
    PLAYOFFS 0 1
    ISBUS 0 0
    BUSCOMP 0 0 0 0 0
    SHOWINMIX 1 0.6667 0.326923 1 0.5 0 0 0
    FREEMODE 0
    SEL 0
    REC 0 0 1 0 0 0 0
    VU 2
    TRACKHEIGHT 0 0 0 0 0 0
    INQ 0 0 0 0.5 100 0 0 100
    NCHAN 2
    FX 1
    TRACKID {F75F9439-F7CD-4301-AFCE-D2149415CFCB}
    PERF 0
    AUXRECV 8 0 1 0 0 0 0 0 0 -1:U 0 -1 ''
    MIDIOUT -1
    MAINSEND 1 0
    <FXCHAIN
      WNDRECT 447 207 1077 695
      SHOW 0
      LASTSEL 0
      DOCKED 0
    >
  >
  <TRACK {CD26CB61-3E2F-4321-B34C-35DB6C590CEB}
    NAME SYNTH-G5
    PEAKCOL 21004543
    BEAT -1
    AUTOMODE 0
    WIDTH 0
    VOLPAN 0.18672692101373 1 -1 -1 1
    MUTESOLO 0 2 0
    IPHASE 0
    PLAYOFFS 0 1
    ISBUS 2 -1
    BUSCOMP 0 0 0 0 0
    SHOWINMIX 1 0.6667 0.326923 1 0.5 0 0 0
    FREEMODE 0
    SEL 0
    REC 0 0 1 0 0 0 0
    VU 2
    TRACKHEIGHT 0 0 0 0 0 0
    INQ 0 0 0 0.5 100 0 0 100
    NCHAN 2
    FX 1
    TRACKID {CD26CB61-3E2F-4321-B34C-35DB6C590CEB}
    PERF 0
    AUXRECV 9 0 1 0 0 0 0 0 0 -1:U 0 -1 ''
    MIDIOUT -1
    MAINSEND 1 0
    <FXCHAIN
      WNDRECT 447 207 1077 695
      SHOW 0
      LASTSEL 0
      DOCKED 0
    >
  >
  <EXTENSIONS
  >
  <EXTSTATE
    <DOCKCFG
      MIDIEDIT:{C8738317-D8E3-40A3-9F5D-F70EA6978FAD} "0.50000000 0"
    >
  >
>
